SplineFontDB: 3.2
FontName: Jo_wrote_a_lovesong
FullName: Jo_wrote_a_lovesong
FamilyName: Jo_wrote_a_lovesong
Weight: Book
Copyright: Typeface (c) (Lars Manenschijn). 2009. All Rights Reserved
Version: 1.00 May 11, 2009, initial release
ItalicAngle: 0
UnderlinePosition: -292
UnderlineWidth: 150
Ascent: 1638
Descent: 410
InvalidEm: 0
sfntRevision: 0x00010000
LayerCount: 2
Layer: 0 1 "Back" 1
Layer: 1 1 "Fore" 0
XUID: [1021 596 1964513381 14643]
StyleMap: 0x0040
FSType: 8
OS2Version: 1
OS2_WeightWidthSlopeOnly: 0
OS2_UseTypoMetrics: 0
CreationTime: 1242071178
ModificationTime: 1708843658
PfmFamily: 17
TTFWeight: 400
TTFWidth: 5
LineGap: 67
VLineGap: 0
Panose: 2 0 0 0 0 0 0 0 0 0
OS2TypoAscent: 1491
OS2TypoAOffset: 0
OS2TypoDescent: -431
OS2TypoDOffset: 0
OS2TypoLinegap: 307
OS2WinAscent: 1854
OS2WinAOffset: 0
OS2WinDescent: 434
OS2WinDOffset: 0
HheadAscent: 1854
HheadAOffset: 0
HheadDescent: -434
HheadDOffset: 0
OS2SubXSize: 1434
OS2SubYSize: 1331
OS2SubXOff: 0
OS2SubYOff: 283
OS2SupXSize: 1434
OS2SupYSize: 1331
OS2SupXOff: 0
OS2SupYOff: 977
OS2StrikeYSize: 102
OS2StrikeYPos: 530
OS2Vendor: 'HL  '
OS2CodePages: 6000019f.dff70000
OS2UnicodeRanges: a00002af.500078fb.00000000.00000000
DEI: 91125
ShortTable: maxp 16
  1
  0
  653
  370
  38
  0
  0
  2
  16
  47
  66
  0
  1036
  0
  0
  0
EndShort
LangName: 1033 "Typeface +AKkA (Lars Manenschijn). 2009. All Rights Reserved" "" "Regular" "Jo_wrote_a_lovesong:Version 1.00" "" "Version 1.00 May 11, 2009, initial release" "" "" "" "" "This font was created using FontCreator 5.5 from High-Logic.com"
LangName: 1027 "" "" "Normal"
LangName: 1029 "" "" "oby+AQ0A-ejn+AOkA"
LangName: 1030 "" "" "normal"
LangName: 1031 "" "" "Standard"
LangName: 1032 "" "" "+A5oDsQO9A78DvQO5A7oDrAAA"
LangName: 1034 "" "" "Normal"
LangName: 1035 "" "" "Normaali"
LangName: 1036 "" "" "Normal"
LangName: 1038 "" "" "Norm+AOEA-l"
LangName: 1040 "" "" "Normale"
LangName: 1043 "" "" "Standaard"
LangName: 1044 "" "" "Normal"

StartChar: .notdef
Encoding: 65536 -1 0
Width: 1536
GlyphClass: 1
Flags: W
LayerCount: 2
Fore
SplineSet
256 0 m 1,0,-1
 256 1280 l 1,1,-1
 1280 1280 l 1,2,-1
 1280 0 l 1,3,-1
 256 0 l 1,0,-1
288 32 m 1,4,-1
 1248 32 l 1,5,-1
 1248 1248 l 1,6,-1
 288 1248 l 1,7,-1
 288 32 l 1,4,-1
EndSplineSet
EndChar

StartChar: exclam
Encoding: 33 33 4
Width: 396
GlyphClass: 1
Flags: W
LayerCount: 2
Fore
SplineSet
282 1860 m 1,0,-1
 306 1852 l 1,1,-1
 326 1856 l 1,2,3
 338 1837 338 1837 338 1804 c 2,4,-1
 334 1708 l 1,5,-1
 354 1656 l 1,6,-1
 314 940 l 1,7,8
 314 744 314 744 278 700 c 1,9,10
 253 700 253 700 246 568 c 1,11,-1
 226 544 l 1,12,13
 210 544 210 544 206 596 c 1,14,-1
 250 856 l 1,15,-1
 250 860 l 1,16,-1
 246 860 l 1,17,-1
 202 640 l 1,18,19
 167 596 167 596 146 596 c 1,20,21
 134 616 134 616 134 648 c 2,22,-1
 134 668 l 1,23,-1
 222 1592 l 1,24,25
 263 1860 263 1860 278 1860 c 2,26,-1
 282 1860 l 1,0,-1
290 1672 m 1,27,-1
 278 1576 l 1,28,-1
 278 1564 l 1,29,-1
 282 1564 l 1,30,-1
 294 1668 l 1,31,-1
 294 1672 l 1,32,-1
 290 1672 l 1,27,-1
262 1432 m 1,33,34
 210 1019 210 1019 198 848 c 1,35,-1
 198 832 l 1,36,-1
 202 832 l 1,37,38
 266 1322 266 1322 266 1420 c 2,39,-1
 266 1432 l 1,40,-1
 262 1432 l 1,33,34
318 360 m 1,41,-1
 322 356 l 1,42,-1
 322 352 l 1,43,44
 285 294 285 294 194 244 c 1,45,46
 186 226 186 226 178 224 c 1,47,-1
 226 168 l 1,48,-1
 226 156 l 1,49,50
 218 140 218 140 202 140 c 1,51,-1
 202 136 l 2,52,53
 202 72 202 72 170 72 c 1,54,-1
 158 76 l 1,55,-1
 158 72 l 1,56,-1
 166 24 l 1,57,58
 158 0 158 0 122 0 c 2,59,-1
 114 0 l 2,60,61
 90 0 90 0 -10 64 c 1,62,63
 -30 64 -30 64 -30 72 c 0,64,65
 -30 104 -30 104 26 148 c 1,66,67
 72 172 72 172 106 212 c 1,68,69
 4 280 4 280 -58 280 c 1,70,-1
 -58 288 l 1,71,-1
 -34 312 l 1,72,73
 -1 312 -1 312 54 288 c 1,74,-1
 54 300 l 1,75,-1
 22 332 l 1,76,-1
 22 344 l 1,77,-1
 34 356 l 1,78,79
 87 356 87 356 162 260 c 1,80,-1
 166 260 l 1,81,82
 258 360 258 360 318 360 c 1,41,-1
146 148 m 1,83,-1
 150 124 l 1,84,-1
 150 116 l 1,85,-1
 154 116 l 1,86,-1
 166 120 l 1,87,-1
 166 132 l 1,88,-1
 158 168 l 1,89,90
 151 168 151 168 146 148 c 1,83,-1
46 100 m 1,91,92
 99 122 99 122 114 164 c 1,93,-1
 110 164 l 1,94,95
 42 138 42 138 42 100 c 1,96,-1
 46 100 l 1,91,92
50 60 m 1,97,98
 50 39 50 39 98 32 c 1,99,-1
 130 32 l 1,100,-1
 130 36 l 1,101,-1
 118 88 l 1,102,103
 93 88 93 88 50 60 c 1,97,98
EndSplineSet
EndChar

StartChar: comma
Encoding: 44 44 15
Width: 569
GlyphClass: 1
Flags: W
LayerCount: 2
Fore
SplineSet
25 200 m 1,0,-1
 76 231 l 1,1,-1
 78 228 l 1,2,3
 69 188 69 188 79 172 c 2,4,-1
 81 169 l 2,5,6
 104 130 104 130 196 117 c 1,7,-1
 203 121 l 1,8,9
 275 206 275 206 294 218 c 2,10,-1
 308 226 l 1,11,-1
 319 223 l 1,12,-1
 321 196 l 1,13,-1
 325 199 l 1,14,-1
 388 241 l 1,15,-1
 405 243 l 1,16,17
 422 215 422 215 338 137 c 1,18,19
 360 134 360 134 535 167 c 1,20,-1
 568 159 l 1,21,-1
 574 148 l 1,22,23
 571 114 571 114 555 104 c 0,24,25
 283 -32 283 -32 226 -24 c 1,26,-1
 223 -21 l 1,27,28
 145 -99 145 -99 60 -222 c 1,29,-1
 15 -272 l 1,30,31
 -14 -285 -14 -285 -22 -272 c 1,32,-1
 -32 -278 l 2,33,34
 -118 -329 -118 -329 -145 -285 c 1,35,-1
 -156 -282 l 1,36,37
 -118 -171 -118 -171 -35 -88 c 1,38,-1
 -26 -78 l 1,39,-1
 -25 -73 l 1,40,41
 -15 -66 -15 -66 -19 -60 c 2,42,-1
 -23 -53 l 1,43,44
 -33 -59 -33 -59 -48 -49 c 1,45,-1
 -44 -33 l 1,46,-1
 -7 -10 l 1,47,-1
 144 34 l 1,48,-1
 151 38 l 1,49,-1
 149 41 l 1,50,51
 26 120 26 120 15 138 c 2,52,-1
 9 148 l 2,53,54
 -6 175 -6 175 25 200 c 1,0,-1
-64 -232 m 1,55,-1
 -51 -238 l 1,56,57
 34 -187 34 -187 97 -59 c 1,58,-1
 99 -54 l 1,59,-1
 95 -47 l 1,60,-1
 38 -77 l 1,61,62
 -99 -174 -99 -174 -64 -232 c 1,55,-1
EndSplineSet
EndChar

StartChar: period
Encoding: 46 46 17
Width: 367
GlyphClass: 1
Flags: W
LayerCount: 2
Fore
SplineSet
340 353 m 1,0,-1
 344 349 l 1,1,-1
 344 345 l 1,2,3
 307 287 307 287 216 237 c 1,4,5
 208 219 208 219 200 217 c 1,6,-1
 248 161 l 1,7,-1
 248 149 l 1,8,9
 240 133 240 133 224 133 c 1,10,-1
 224 129 l 2,11,12
 224 65 224 65 192 65 c 1,13,-1
 180 69 l 1,14,-1
 180 65 l 1,15,-1
 188 17 l 1,16,17
 180 -7 180 -7 144 -7 c 2,18,-1
 136 -7 l 2,19,20
 112 -7 112 -7 12 57 c 1,21,22
 -8 57 -8 57 -8 65 c 0,23,24
 -8 97 -8 97 48 141 c 1,25,26
 94 165 94 165 128 205 c 1,27,28
 26 273 26 273 -36 273 c 1,29,-1
 -36 281 l 1,30,-1
 -12 305 l 1,31,32
 21 305 21 305 76 281 c 1,33,-1
 76 293 l 1,34,-1
 44 325 l 1,35,-1
 44 337 l 1,36,-1
 56 349 l 1,37,38
 109 349 109 349 184 253 c 1,39,-1
 188 253 l 1,40,41
 280 353 280 353 340 353 c 1,0,-1
168 141 m 1,42,-1
 172 117 l 1,43,-1
 172 109 l 1,44,-1
 176 109 l 1,45,-1
 188 113 l 1,46,-1
 188 125 l 1,47,-1
 180 161 l 1,48,49
 173 161 173 161 168 141 c 1,42,-1
68 93 m 1,50,51
 121 115 121 115 136 157 c 1,52,-1
 132 157 l 1,53,54
 64 131 64 131 64 93 c 1,55,-1
 68 93 l 1,50,51
72 53 m 1,56,57
 72 32 72 32 120 25 c 1,58,-1
 152 25 l 1,59,-1
 152 29 l 1,60,-1
 140 81 l 1,61,62
 115 81 115 81 72 53 c 1,56,57
EndSplineSet
EndChar

StartChar: zero
Encoding: 48 48 19
Width: 1139
GlyphClass: 1
Flags: W
LayerCount: 2
Back
Fore
SplineSet
1204.38964844 1549.125 m 0,0,1
 1239.3090583 1586.80055004 1239.3090583 1586.80055004 1270.8269687 1612.40027502 c 128,-1,2
 1302.3448791 1638 1302.3448791 1638 1313.81152344 1638 c 0,3,4
 1332.00055177 1638 1332.00055177 1638 1310.34595079 1538.60094038 c 128,-1,5
 1288.69134982 1439.20188076 1288.69134982 1439.20188076 1246.900794 1320.07093462 c 128,-1,6
 1205.11023818 1200.93998848 1205.11023818 1200.93998848 1172.45605469 1151.1171875 c 0,7,8
 1147.09674476 1112.42436833 1147.09674476 1112.42436833 1140.51634188 1073.75818027 c 128,-1,9
 1133.935939 1035.09199222 1133.935939 1035.09199222 1141.67929614 970.59435879 c 128,-1,10
 1149.42265328 906.096725363 1149.42265328 906.096725363 1176.72460938 772.430664062 c 0,11,12
 1230.00024802 511.599834537 1230.00024802 511.599834537 1232.89587402 274.774780273 c 128,-1,13
 1235.79150003 37.94972601 1235.79150003 37.94972601 1186.78808594 -50.6337890625 c 0,14,15
 1131.03570302 -151.416335707 1131.03570302 -151.416335707 1037.75145301 -219.558184117 c 128,-1,16
 944.467203002 -287.700032527 944.467203002 -287.700032527 838.926464469 -312.910321742 c 128,-1,17
 733.385725937 -338.120610957 733.385725937 -338.120610957 619.251697152 -319.5241265 c 128,-1,18
 505.117668367 -300.927642043 505.117668367 -300.927642043 409.599609375 -236.278320312 c 2,19,-1
 266.625976562 -139.509765625 l 1,20,-1
 228.288085938 -224.520507812 l 2,21,22
 207.242162985 -271.187013101 207.242162985 -271.187013101 116.207749353 -340.879396984 c 0,23,24
 30.6270505522 -406.396630257 30.6270505522 -406.396630257 5.8527356824 -399.351543741 c 0,25,26
 0 -397.687197847 0 -397.687197847 0 -390.6796875 c 0,27,28
 0 -379.087051293 0 -379.087051293 98.5361328125 -166.55859375 c 0,29,30
 146.168982882 -63.8209212614 146.168982882 -63.8209212614 161.923852362 -11.2841626151 c 128,-1,31
 177.678721841 41.2525960312 177.678721841 41.2525960312 175.89711118 89.5237459484 c 128,-1,32
 174.115500519 137.794895866 174.115500519 137.794895866 152.633789062 223.720703125 c 0,33,34
 134.273431168 297.162867125 134.273431168 297.162867125 125.769895396 443.988805183 c 128,-1,35
 117.266359624 590.814743242 117.266359624 590.814743242 123.65234375 724.127929688 c 0,36,37
 132.954087852 918.301471603 132.954087852 918.301471603 158.72772579 1027.93530265 c 128,-1,38
 184.501363727 1137.5691337 184.501363727 1137.5691337 253.1015625 1274.76953125 c 0,39,40
 308.557976773 1385.68198606 308.557976773 1385.68198606 358.43310678 1449.37293611 c 128,-1,41
 408.308236788 1513.06388615 408.308236788 1513.06388615 465.74809134 1539.61664214 c 128,-1,42
 523.187945892 1566.16939813 523.187945892 1566.16939813 586.675996185 1554.88297639 c 128,-1,43
 650.164046478 1543.59655466 650.164046478 1543.59655466 734.188476562 1497.16210938 c 0,44,45
 841.613547614 1437.79547233 841.613547614 1437.79547233 865.374169273 1435.17276639 c 0,46,47
 887.309007127 1432.75159113 887.309007127 1432.75159113 898.731903447 1460.15523504 c 0,48,49
 902.253222662 1468.60291548 902.253222662 1468.60291548 908.184570312 1487.29785156 c 0,50,51
 927.43597818 1547.97397515 927.43597818 1547.97397515 958.571339857 1556.97377363 c 0,52,53
 982.616343541 1563.9240763 982.616343541 1563.9240763 989.411473771 1533.01129091 c 0,54,55
 994.694078073 1508.97937282 994.694078073 1508.97937282 984.034179688 1471.84179688 c 0,56,57
 928.516798889 1278.42579533 928.516798889 1278.42579533 933.419435538 1265.68276357 c 0,58,59
 937.234861258 1255.76563232 937.234861258 1255.76563232 976.081137081 1308.03892466 c 0,60,61
 980.198902084 1313.57997408 980.198902084 1313.57997408 985.752929688 1321.13964844 c 0,62,63
 1013.4326382 1358.81545829 1013.4326382 1358.81545829 1047.26674253 1378.85023092 c 128,-1,64
 1081.10084687 1398.88500355 1081.10084687 1398.88500355 1103.21484375 1390.69433594 c 0,65,66
 1123.50149651 1383.18046968 1123.50149651 1383.18046968 1147.70617676 1390.26464844 c 128,-1,67
 1171.910857 1397.34882719 1171.910857 1397.34882719 1182.43066406 1413.87890625 c 0,68,69
 1195.34026246 1434.16615044 1195.34026246 1434.16615044 1191.30029297 1438.33227539 c 128,-1,70
 1187.26032348 1442.49840034 1187.26032348 1442.49840034 1166.97363281 1429.81933594 c 0,71,72
 1120.27366399 1400.63162331 1120.27366399 1400.63162331 1122.58871564 1427.18564787 c 0,73,74
 1127.04515563 1465.3048236 1127.04515563 1465.3048236 1204.38964844 1549.125 c 0,0,1
575.758789062 1510.48339844 m 0,75,76
 586.438742372 1518.49336342 586.438742372 1518.49336342 565.032597204 1521.26989635 c 0,77,78
 558.82401011 1522.07519531 558.82401011 1522.07519531 550.641601562 1522.07519531 c 0,79,80
 533.807517096 1522.07519531 533.807517096 1522.07519531 495.371542056 1498.90065913 c 128,-1,81
 456.935567016 1475.72612295 456.935567016 1475.72612295 419.260742188 1442.86035156 c 2,82,-1
 328.453125 1363.64550781 l 1,83,-1
 444.376953125 1431.26757812 l 2,84,85
 560.306324072 1498.89361898 560.306324072 1498.89361898 575.758789062 1510.48339844 c 0,75,76
772.830078125 1425.47167969 m 0,86,87
 754.282150214 1448.65658958 754.282150214 1448.65658958 734.575141232 1466.04509166 c 128,-1,88
 714.86813225 1483.43359375 714.86813225 1483.43359375 707.139648438 1483.43359375 c 0,89,90
 693.238539058 1483.43359375 693.238539058 1483.43359375 721.490601823 1442.49571645 c 0,91,92
 727.277348499 1434.11058977 727.277348499 1434.11058977 734.188476562 1425.47167969 c 0,93,94
 752.736004985 1402.28726916 752.736004985 1402.28726916 772.443496692 1384.89851739 c 128,-1,95
 792.150988399 1367.50976562 792.150988399 1367.50976562 799.87890625 1367.50976562 c 0,96,97
 813.78001563 1367.50976562 813.78001563 1367.50976562 785.527952865 1408.44764292 c 0,98,99
 779.741206188 1416.83276961 779.741206188 1416.83276961 772.830078125 1425.47167969 c 0,86,87
676.2265625 1328.86816406 m 0,100,101
 665.793073374 1346.25682432 665.793073374 1346.25682432 649.853463306 1356.88329497 c 128,-1,102
 633.913853237 1367.50976562 633.913853237 1367.50976562 618.263671875 1367.50976562 c 0,103,104
 581.714506607 1367.50976562 581.714506607 1367.50976562 583.820186368 1352.91423638 c 0,105,106
 586.474542917 1334.51555138 586.474542917 1334.51555138 641.44921875 1312.95703125 c 0,107,108
 683.338577602 1296.52923203 683.338577602 1296.52923203 681.494639498 1315.5767903 c 0,109,110
 680.973913214 1320.95580178 680.973913214 1320.95580178 676.2265625 1328.86816406 c 0,100,101
618.263671875 1270.72460938 m 0,111,112
 586.565597534 1287.0688324 586.565597534 1287.0688324 573.249835423 1294.07324736 c 128,-1,113
 559.934073312 1301.07766233 559.934073312 1301.07766233 539.433826991 1309.48719461 c 128,-1,114
 518.933580671 1317.89672688 518.933580671 1317.89672688 512.736697606 1320.23317855 c 128,-1,115
 506.53981454 1322.56963021 506.53981454 1322.56963021 492.975819179 1322.58233316 c 128,-1,116
 479.411823818 1322.5950361 479.411823818 1322.5950361 475.812488011 1320.26775878 c 128,-1,117
 472.213152204 1317.94048146 472.213152204 1317.94048146 461.064076015 1309.56058938 c 128,-1,118
 449.914999826 1301.1806973 449.914999826 1301.1806973 444.39187949 1294.19392531 c 128,-1,119
 438.868759155 1287.20715332 438.868759155 1287.20715332 425.353515625 1270.90527344 c 0,120,121
 380.635027201 1216.96664949 380.635027201 1216.96664949 344.346911238 1096.81715862 c 128,-1,122
 308.058795275 976.66766774 308.058795275 976.66766774 290.527753068 844.683619581 c 128,-1,123
 272.996710861 712.699571423 272.996710861 712.699571423 276.112963484 583.112172045 c 128,-1,124
 279.229216107 453.524772667 279.229216107 453.524772667 307.302734375 382.151367188 c 0,125,126
 323.841520033 340.103435682 323.841520033 340.103435682 340.633108024 353.234592515 c 0,127,128
 360.42934421 368.715408398 360.42934421 368.715408398 409.599609375 490.34765625 c 0,129,130
 440.061149239 565.698768529 440.061149239 565.698768529 470.018512174 618.830341296 c 128,-1,131
 499.975875109 671.961914062 499.975875109 671.961914062 512 671.961914062 c 128,-1,132
 524.075447673 671.961914062 524.075447673 671.961914062 532.955326583 692.248667091 c 128,-1,133
 541.835205493 712.53542012 541.835205493 712.53542012 542.4453125 741.516601562 c 0,134,135
 543.304169842 782.305062762 543.304169842 782.305062762 568.197293944 831.061505142 c 128,-1,136
 593.090418045 879.817947523 593.090418045 879.817947523 624.250948244 906.086281316 c 128,-1,137
 655.411478443 932.35461511 655.411478443 932.35461511 672.362304688 915.403320312 c 0,138,139
 683.988556096 903.777068904 683.988556096 903.777068904 683.2951063 919.043419526 c 0,140,141
 682.680595099 932.571930907 682.680595099 932.571930907 672.362304688 959.841796875 c 0,142,143
 650.067821696 1018.76346232 650.067821696 1018.76346232 673.231134704 1012.99364641 c 0,144,145
 677.745793339 1011.86907718 677.745793339 1011.86907718 683.955078125 1008.14355469 c 0,146,147
 706.575062431 994.57077049 706.575062431 994.57077049 719.119743002 1042.16850025 c 0,148,149
 725.334587929 1065.74921302 725.334587929 1065.74921302 726.459960938 1098.95117188 c 0,150,151
 728.719484231 1165.60747525 728.719484231 1165.60747525 706.254979553 1201.27237908 c 128,-1,152
 683.790474875 1236.93728291 683.790474875 1236.93728291 618.263671875 1270.72460938 c 0,111,112
1035.59277344 1054.51367188 m 0,153,154
 1041.83454968 1074.80054331 1041.83454968 1074.80054331 1034.34783781 1101.86802411 c 128,-1,155
 1026.86112594 1128.93550491 1026.86112594 1128.93550491 1010.47558594 1145.3203125 c 0,156,157
 983.458109847 1172.33778859 983.458109847 1172.33778859 984.177036315 1147.85873211 c 0,158,159
 984.623049963 1132.67220922 984.623049963 1132.67220922 995.018554688 1095.08691406 c 0,160,161
 1010.42900315 1039.3718825 1010.42900315 1039.3718825 1025.84989567 1041.54935285 c 0,162,163
 1031.86495733 1042.39869528 1031.86495733 1042.39869528 1035.59277344 1054.51367188 c 0,153,154
1161.28320312 668.09765625 m 0,164,165
 1119.39110895 914.959600917 1119.39110895 914.959600917 1084.74005627 955.321097905 c 0,166,167
 1070.05114775 972.430717705 1070.05114775 972.430717705 1064.04450975 934.973824625 c 0,168,169
 1054.13574053 873.183567132 1054.13574053 873.183567132 1071.88476562 702.875 c 0,170,171
 1083.96616725 586.949941364 1083.96616725 586.949941364 1092.62468519 427.619781728 c 128,-1,172
 1101.28320312 268.289622092 1101.28320312 268.289622092 1101.28320312 161.89453125 c 0,173,174
 1101.28320312 -60.5513794101 1101.28320312 -60.5513794101 1128.97708451 -65.3198274561 c 0,175,176
 1132.38101084 -65.9059296938 1132.38101084 -65.9059296938 1136.06054688 -62.2265625 c 0,177,178
 1165.97075905 -32.3158738714 1165.97075905 -32.3158738714 1180.67369361 87.0128264863 c 128,-1,179
 1195.37662816 206.341526844 1195.37662816 206.341526844 1190.32695743 366.522329764 c 128,-1,180
 1185.2772867 526.703132683 1185.2772867 526.703132683 1161.28320312 668.09765625 c 0,164,165
864.12109375 772.430664062 m 0,181,182
 873.902083305 798.514279462 873.902083305 798.514279462 877.833618164 821.812011719 c 128,-1,183
 881.765153023 845.109743976 881.765153023 845.109743976 877.162109375 849.712890625 c 0,184,185
 868.120989331 858.754010669 868.120989331 858.754010669 842.495579364 839.523644157 c 128,-1,186
 816.870169397 820.293277646 816.870169397 820.293277646 794.850123761 790.113400113 c 128,-1,187
 772.830078125 759.933522581 772.830078125 759.933522581 772.830078125 741.516601562 c 0,188,189
 772.830078125 707.447782929 772.830078125 707.447782929 798.789415692 708.736478872 c 0,190,191
 828.558932954 710.214323059 828.558932954 710.214323059 852.949083951 749.603647178 c 0,192,193
 859.571486273 760.298617929 859.571486273 760.298617929 864.12109375 772.430664062 c 0,181,182
991.262695312 215.9921875 m 0,194,195
 998.463177436 285.224895537 998.463177436 285.224895537 992.796508789 384.404907227 c 128,-1,196
 987.129840142 483.584918917 987.129840142 483.584918917 971.833984375 556.038085938 c 0,197,198
 941.914715022 697.757773877 941.914715022 697.757773877 932.826745708 687.941241481 c 0,199,200
 931.665835272 686.687263336 931.665835272 686.687263336 931.260742188 681.623046875 c 0,201,202
 929.714590817 662.301647945 929.714590817 662.301647945 911.166799803 647.810980222 c 128,-1,203
 892.619008788 633.3203125 892.619008788 633.3203125 869.43359375 633.3203125 c 0,204,205
 846.025948095 633.3203125 846.025948095 633.3203125 821.26183751 603.373261464 c 128,-1,206
 796.497726925 573.426210428 796.497726925 573.426210428 786.354492188 532.852539062 c 0,207,208
 776.079297618 491.751760784 776.079297618 491.751760784 719.946717557 411.83409167 c 128,-1,209
 663.814137496 331.916422557 663.814137496 331.916422557 596.3671875 262.362304688 c 0,210,211
 471.799389685 133.901647903 471.799389685 133.901647903 449.094013301 41.887973658 c 0,212,213
 431.938917207 -27.6331563569 431.938917207 -27.6331563569 487.919425921 -33.5121198367 c 0,214,215
 502.542248198 -35.0477800176 502.542248198 -35.0477800176 521.66015625 -31.5927734375 c 0,216,217
 547.743138632 -26.8789108459 547.743138632 -26.8789108459 560.55748689 -34.9492135685 c 128,-1,218
 573.371835147 -43.019516291 573.371835147 -43.019516291 564.166015625 -58.3623046875 c 0,219,220
 553.732624984 -75.750707803 553.732624984 -75.750707803 557.983276367 -92.7529296875 c 128,-1,221
 562.233927751 -109.755151572 562.233927751 -109.755151572 579.623046875 -120.188476562 c 128,-1,222
 597.011474609 -130.621782575 597.011474609 -130.621782575 607.637573242 -127.965209961 c 128,-1,223
 618.263671875 -125.308637347 618.263671875 -125.308637347 618.263671875 -110.528320312 c 0,224,225
 618.263671875 -96.9375130745 618.263671875 -96.9375130745 651.109108555 -89.5498097042 c 128,-1,226
 683.954545235 -82.1621063339 683.954545235 -82.1621063339 730.32421875 -85.3232421875 c 0,227,228
 842.926622346 -93.0012114661 842.926622346 -93.0012114661 908.956709586 -16.7536295586 c 128,-1,229
 974.986796825 59.4939523489 974.986796825 59.4939523489 991.262695312 215.9921875 c 0,194,195
703.275390625 548.309570312 m 0,230,231
 723.562009642 568.596189329 723.562009642 568.596189329 731.169555664 586.845458984 c 128,-1,232
 738.777101687 605.09472864 738.777101687 605.09472864 730.32421875 613.1953125 c 0,233,234
 710.977255827 631.735877309 710.977255827 631.735877309 683.941264632 604.996318558 c 128,-1,235
 656.905273438 578.256759806 656.905273438 578.256759806 656.905273438 540.581054688 c 0,236,237
 656.905273438 514.367263451 656.905273438 514.367263451 684.029201 532.130770353 c 0,238,239
 692.917653573 537.951833261 692.917653573 537.951833261 703.275390625 548.309570312 c 0,230,231
555.208007812 532.852539062 m 0,240,241
 576.407932882 588.819901202 576.407932882 588.819901202 561.117402535 594.221505578 c 0,242,243
 547.949958136 598.873098668 547.949958136 598.873098668 521.177734375 556.038085938 c 0,244,245
 510.309458806 538.649137992 510.309458806 538.649137992 508.168701172 520.382080078 c 128,-1,246
 506.027943538 502.115022164 506.027943538 502.115022164 513.931640625 494.2109375 c 128,-1,247
 521.660234301 486.483076253 521.660234301 486.483076253 534.043296257 498.075517497 c 128,-1,248
 546.426358213 509.66795874 546.426358213 509.66795874 555.208007812 532.852539062 c 0,240,241
179.682617188 372.490234375 m 0,249,250
 187.135009766 401.471435547 187.135009766 401.471435547 187.135009766 440.11328125 c 128,-1,251
 187.135009766 478.755126953 187.135009766 478.755126953 179.682617188 507.736328125 c 0,252,253
 171.23766525 540.577807881 171.23766525 540.577807881 165.924007786 507.667520539 c 0,254,255
 162.293945312 485.184626243 162.293945312 485.184626243 162.293945312 440.11328125 c 0,256,257
 162.293945312 351.699050008 162.293945312 351.699050008 172.948724921 357.226872436 c 0,258,259
 176.190192605 358.90858322 176.190192605 358.90858322 179.682617188 372.490234375 c 0,249,250
476.192382812 347.374023438 m 0,260,261
 459.189950565 393.743627366 459.189950565 393.743627366 449.965332031 397.721313477 c 128,-1,262
 440.740713498 401.698999587 440.740713498 401.698999587 413.463867188 374.422851562 c 0,263,264
 381.262853065 342.221191406 381.262853065 342.221191406 389.15222168 319.680419922 c 128,-1,265
 397.041590294 297.139648438 397.041590294 297.139648438 440.513671875 297.139648438 c 0,266,267
 463.698476062 297.139648438 463.698476062 297.139648438 473.892452669 311.492426874 c 128,-1,268
 484.086429277 325.845205311 484.086429277 325.845205311 476.192382812 347.374023438 c 0,260,261
996.021484375 -147.237304688 m 0,269,270
 1053.87496299 -61.0026786179 1053.87496299 -61.0026786179 1030.49954818 -68.0185020037 c 0,271,272
 1007.6598476 -74.8735378031 1007.6598476 -74.8735378031 923.268554688 -166.55859375 c 0,273,274
 863.297236557 -231.711979496 863.297236557 -231.711979496 871.541463311 -248.109424197 c 0,275,276
 874.060134751 -253.118963223 874.060134751 -253.118963223 884.890625 -249.637695312 c 0,277,278
 907.021572112 -242.524385862 907.021572112 -242.524385862 939.855925076 -212.269570285 c 128,-1,279
 972.690278041 -182.014754707 972.690278041 -182.014754707 996.021484375 -147.237304688 c 0,269,270
780.55859375 -282.483398438 m 0,280,281
 823.444578423 -265.987976606 823.444578423 -265.987976606 773.468068079 -260.54633093 c 0,282,283
 766.331773614 -259.769302169 766.331773614 -259.769302169 757.374023438 -259.297851562 c 0,284,285
 707.594526481 -256.678606379 707.594526481 -256.678606379 704.079848918 -271.127037185 c 0,286,287
 703.212681932 -274.691859837 703.212681932 -274.691859837 707.139648438 -278.619140625 c 0,288,289
 716.50287472 -287.982366908 716.50287472 -287.982366908 738.387451172 -289.134155273 c 128,-1,290
 760.272027623 -290.285943639 760.272027623 -290.285943639 780.55859375 -282.483398438 c 0,280,281
EndSplineSet
EndChar

StartChar: one
Encoding: 49 49 20
Width: 1139
GlyphClass: 1
Flags: W
LayerCount: 2
Back
Fore
SplineSet
273.655273438 172.62109375 m 0,0,1
 259.095076851 410.88352864 259.095076851 410.88352864 274.937935454 414.395517292 c 0,2,3
 278.01026767 415.07658099 278.01026767 415.07658099 282.09375 402.137695312 c 0,4,5
 304.253516461 331.919658735 304.253516461 331.919658735 314.396094829 59.3564135418 c 0,6,7
 322.203351528 -171.604279662 322.203351528 -171.604279662 305.328125 -159.296875 c 0,8,9
 300.223089282 -153.411801543 300.223089282 -153.411801543 290.985036012 -56.6015465863 c 128,-1,10
 281.746982743 40.2087083701 281.746982743 40.2087083701 273.655273438 172.62109375 c 0,0,1
427.254882812 1606.22070312 m 0,11,12
 429.0939827 1631.96622779 429.0939827 1631.96622779 443.423495631 1592.38830403 c 0,13,14
 451.707750363 1569.50730286 451.707750363 1569.50730286 460.799804688 1532.06933594 c 0,15,16
 476.878709684 1465.86213273 476.878709684 1465.86213273 471.960693359 1419.13903809 c 128,-1,17
 467.042677035 1372.41594344 467.042677035 1372.41594344 439.614257812 1330.79980469 c 0,18,19
 419.04251168 1299.58805585 419.04251168 1299.58805585 404.784202639 1246.7800284 c 128,-1,20
 390.525893597 1193.97200096 390.525893597 1193.97200096 391.9453125 1154.24804688 c 2,21,-1
 395.475585938 1055.37890625 l 1,22,-1
 419.395507812 1161.31054688 l 2,23,24
 431.625368521 1215.47075384 431.625368521 1215.47075384 437.309622823 1215.24667194 c 0,25,26
 449.52015355 1214.76531437 449.52015355 1214.76531437 479.773012569 961.620650446 c 0,27,28
 492.036578339 859.003696675 492.036578339 859.003696675 527.852539062 543.37890625 c 0,29,30
 540.173308466 434.79983707 540.173308466 434.79983707 560.634607343 327.509589294 c 128,-1,31
 581.095906219 220.219341519 581.095906219 220.219341519 597.212890625 179.682617188 c 0,32,33
 662.863694815 14.5591677287 662.863694815 14.5591677287 615.515655592 24.9784138278 c 0,34,35
 607.678645596 26.7029991999 607.678645596 26.7029991999 596.745117188 33.4560546875 c 0,36,37
 567.484258893 51.529161768 567.484258893 51.529161768 568.434918897 21.6434899885 c 0,38,39
 568.937340838 5.84897128837 568.937340838 5.84897128837 577.32421875 -25.1171875 c 0,40,41
 600.275390625 -109.863443115 600.275390625 -109.863443115 600.275390625 -168.124023438 c 0,42,43
 600.275390625 -203.923290559 600.275390625 -203.923290559 628.523925781 -211.410888672 c 128,-1,44
 656.772460938 -218.898486785 656.772460938 -218.898486785 746.813476562 -206.965820312 c 0,45,46
 797.361028033 -200.266817405 797.361028033 -200.266817405 822.611755371 -198.8203125 c 128,-1,47
 847.862482709 -197.373807595 847.862482709 -197.373807595 864.050292969 -201.116210938 c 128,-1,48
 880.238103228 -204.85861428 880.238103228 -204.85861428 878.208312988 -216.047119141 c 128,-1,49
 876.178522748 -227.235624001 876.178522748 -227.235624001 872.165039062 -245.806640625 c 0,50,51
 862.535097869 -272.289550781 862.535097869 -272.289550781 867.831665039 -288.179443359 c 128,-1,52
 873.128232209 -304.069335938 873.128232209 -304.069335938 891.5859375 -304.069335938 c 0,53,54
 912.772567138 -304.069335938 912.772567138 -304.069335938 914.0390625 -312.512817383 c 128,-1,55
 915.305557862 -320.956298828 915.305557862 -320.956298828 896.8828125 -339.37890625 c 0,56,57
 882.310579608 -353.951871562 882.310579608 -353.951871562 773.955615373 -368.986792674 c 128,-1,58
 665.600651137 -384.021713786 665.600651137 -384.021713786 527.889648438 -390.579101562 c 0,59,60
 260.436688622 -403.314956792 260.436688622 -403.314956792 289.22768313 -386.938068202 c 0,61,62
 295.658740349 -383.279955331 295.658740349 -383.279955331 317.79296875 -378.220703125 c 0,63,64
 404.330148849 -358.440893469 404.330148849 -358.440893469 404.738437836 -353.627824916 c 0,65,66
 405.203498359 -348.145511533 405.203498359 -348.145511533 318.192116824 -342.633126856 c 0,67,68
 302.62606022 -341.646978948 302.62606022 -341.646978948 264.827148438 -339.37890625 c 0,69,70
 137.159062549 -331.719291878 137.159062549 -331.719291878 135.886505392 -326.162656161 c 0,71,72
 135.146909854 -322.933203592 135.146909854 -322.933203592 162.352181863 -317.708148353 c 0,73,74
 178.469617437 -314.612627339 178.469617437 -314.612627339 211.862304688 -309.365234375 c 2,75,-1
 335.448242188 -289.9453125 l 1,76,-1
 194.20703125 -266.993164062 l 2,77,78
 95.7885030514 -250.99999865 95.7885030514 -250.99999865 94.4228999889 -247.29967731 c 0,79,80
 93.621569995 -245.128344689 93.621569995 -245.128344689 110.113652751 -243.68027764 c 0,81,82
 131.578539082 -241.795579687 131.578539082 -241.795579687 238.344726562 -238.745117188 c 0,83,84
 293.375122526 -237.172828522 293.375122526 -237.172828522 316.743498117 -236.462972318 c 128,-1,85
 340.111873709 -235.753116114 340.111873709 -235.753116114 367.021842052 -230.008137708 c 128,-1,86
 393.931810396 -224.263159303 393.931810396 -224.263159303 400.584092373 -219.913710165 c 128,-1,87
 407.236374351 -215.564261028 407.236374351 -215.564261028 415.013993383 -198.628471909 c 128,-1,88
 422.791612415 -181.692682791 422.791612415 -181.692682791 422.637251734 -167.224474054 c 128,-1,89
 422.482891053 -152.756265317 422.482891053 -152.756265317 421.958984375 -118.689453125 c 0,90,91
 421.22289294 -70.8728070267 421.22289294 -70.8728070267 405.215704587 55.2885097476 c 128,-1,92
 389.208516235 181.449826522 389.208516235 181.449826522 367.077148438 313.862304688 c 0,93,94
 299.531162238 717.997569419 299.531162238 717.997569419 294.903171148 879.090898056 c 0,95,96
 293.537879295 926.614630267 293.537879295 926.614630267 301.589423619 916.614843796 c 0,97,98
 306.84329216 910.089690179 306.84329216 910.089690179 315.775390625 878.827148438 c 0,99,100
 330.921197311 825.816535806 330.921197311 825.816535806 337.225872331 825.102672871 c 128,-1,101
 343.356937018 824.40846741 343.356937018 824.40846741 346.155152533 868.555937106 c 0,102,103
 348.264072919 901.828391758 348.264072919 901.828391758 349.572265625 977.696289062 c 0,104,105
 352.737292292 1161.2904028 352.737292292 1161.2904028 323.294874285 1162.8787246 c 0,106,107
 320.645019353 1163.02167557 320.645019353 1163.02167557 317.79296875 1161.31054688 c 0,108,109
 304.061346206 1153.07142686 304.061346206 1153.07142686 293.271884041 1132.03229791 c 128,-1,110
 282.482421875 1110.99316895 282.482421875 1110.99316895 282.482421875 1092.45507812 c 128,-1,111
 282.482421875 1073.91750081 282.482421875 1073.91750081 274.390508581 1055.5756964 c 128,-1,112
 266.298595287 1037.23389199 266.298595287 1037.23389199 256 1032.42773438 c 0,113,114
 245.132145823 1027.35562963 245.132145823 1027.35562963 211.98997783 968.539245076 c 128,-1,115
 178.847809838 909.722860519 178.847809838 909.722860519 143.583007812 832.923828125 c 0,116,117
 79.0708334765 692.43045296 79.0708334765 692.43045296 31.3745797607 654.270328365 c 0,118,119
 1.48939925177 630.360228034 1.48939925177 630.360228034 2.48433643323 672.592028125 c 0,120,121
 2.96385517144 692.946016165 2.96385517144 692.946016165 11.4755859375 726.993164062 c 0,122,123
 31.7790681232 808.20364628 31.7790681232 808.20364628 56.49609375 914.137695312 c 0,124,125
 66.7412083956 958.043446138 66.7412083956 958.043446138 124.114736017 1067.62168486 c 128,-1,126
 181.488263639 1177.19992358 181.488263639 1177.19992358 252.46875 1288.42773438 c 128,-1,127
 323.449829072 1399.65532625 323.449829072 1399.65532625 374.62066523 1492.69324609 c 128,-1,128
 425.791501389 1585.73116593 425.791501389 1585.73116593 427.254882812 1606.22070312 c 0,11,12
483.751953125 605.172851562 m 0,129,130
 491.166992188 623.710449219 491.166992188 623.710449219 491.166992188 649.310546875 c 128,-1,131
 491.166992188 674.910644531 491.166992188 674.910644531 483.751953125 693.448242188 c 0,132,133
 473.631513319 718.749341701 473.631513319 718.749341701 468.566587079 688.756981275 c 0,134,135
 466.096679688 674.131229745 466.096679688 674.131229745 466.096679688 649.310546875 c 0,136,137
 466.096679688 590.143220171 466.096679688 590.143220171 476.84219186 594.698155711 c 0,138,139
 480.117583102 596.086567519 480.117583102 596.086567519 483.751953125 605.172851562 c 0,129,130
547.310546875 -198.137695312 m 0,140,141
 537.776474745 -182.248307528 537.776474745 -182.248307528 522.725287458 -172.537727983 c 128,-1,142
 507.67410017 -162.827148438 507.67410017 -162.827148438 492.579101562 -162.827148438 c 128,-1,143
 477.48401925 -162.827148438 477.48401925 -162.827148438 468.259099469 -172.537772042 c 128,-1,144
 459.034179688 -182.248395647 459.034179688 -182.248395647 459.034179688 -198.137695312 c 0,145,146
 459.034179688 -213.514858391 459.034179688 -213.514858391 474.482639521 -223.481550289 c 128,-1,147
 489.931099354 -233.448242188 489.931099354 -233.448242188 513.765625 -233.448242188 c 128,-1,148
 537.600130671 -233.448242188 537.600130671 -233.448242188 547.068491563 -223.481556733 c 128,-1,149
 556.536852455 -213.514871278 556.536852455 -213.514871278 547.310546875 -198.137695312 c 0,140,141
EndSplineSet
EndChar

StartChar: two
Encoding: 50 50 21
Width: 1139
GlyphClass: 1
Flags: W
LayerCount: 2
Back
Fore
SplineSet
502.33984375 575.358398438 m 0,0,1
 539.667327811 615.931941742 539.667327811 615.931941742 576.647298345 643.946927902 c 128,-1,2
 613.627268879 671.961914062 613.627268879 671.961914062 629.856445312 671.961914062 c 0,3,4
 653.603822459 671.961914062 653.603822459 671.961914062 616.530377996 620.108351565 c 0,5,6
 601.668375068 599.321294715 601.668375068 599.321294715 579.623046875 575.358398438 c 0,7,8
 542.294876509 534.784841573 542.294876509 534.784841573 505.314977859 506.769862193 c 128,-1,9
 468.33507921 478.754882812 468.33507921 478.754882812 452.10546875 478.754882812 c 0,10,11
 428.358063995 478.754882812 428.358063995 478.754882812 465.432055506 530.608876014 c 0,12,13
 480.294408869 551.396288938 480.294408869 551.396288938 502.33984375 575.358398438 c 0,0,1
639.416992188 1599.35839844 m 0,14,15
 663.889756598 1639.59355257 663.889756598 1639.59355257 693.281014618 1637.53446555 c 0,16,17
 717.087464544 1635.86663792 717.087464544 1635.86663792 715.445798063 1606.99051457 c 0,18,19
 714.848332672 1596.48138586 714.848332672 1596.48138586 710.028320312 1583.90234375 c 0,20,21
 699.903294919 1557.47796107 699.903294919 1557.47796107 747.476174181 1488.09348214 c 128,-1,22
 795.049053442 1418.7090032 795.049053442 1418.7090032 884.890625 1328.86816406 c 0,23,24
 1111.21894538 1102.53872214 1111.21894538 1102.53872214 1074.81049755 1102.1391118 c 0,25,26
 1064.63443293 1102.02742177 1064.63443293 1102.02742177 1035.59277344 1117.1796875 c 0,27,28
 1019.89180903 1125.37154478 1019.89180903 1125.37154478 1023.52048194 1116.87778261 c 0,29,30
 1029.29756285 1103.35516634 1029.29756285 1103.35516634 1072.30175781 1064.17382812 c 0,31,32
 1112.8757611 1027.2062727 1112.8757611 1027.2062727 1125.24108887 999.384521484 c 128,-1,33
 1137.60641664 971.562770268 1137.60641664 971.562770268 1118.671875 959.841796875 c 0,34,35
 1102.89323589 950.074172532 1102.89323589 950.074172532 1096.39916992 926.459716797 c 128,-1,36
 1089.90510396 902.845261062 1089.90510396 902.845261062 1097.41894531 882.55859375 c 0,37,38
 1105.1474208 861.692002909 1105.1474208 861.692002909 1093.55484971 831.651593276 c 128,-1,39
 1081.96227862 801.611183643 1081.96227862 801.611183643 1058.77734375 782.423828125 c 0,40,41
 990.679677398 726.067026457 990.679677398 726.067026457 826.533291371 513.338082763 c 128,-1,42
 662.386905344 300.609139069 662.386905344 300.609139069 531.855380504 104.008596925 c 128,-1,43
 401.323855664 -92.5919452193 401.323855664 -92.5919452193 417.328125 -108.596679688 c 0,44,45
 431.623553455 -122.892108143 431.623553455 -122.892108143 560.204338511 -140.529068492 c 128,-1,46
 688.785123566 -158.166028841 688.785123566 -158.166028841 853.977539062 -168.490234375 c 0,47,48
 1175.60218256 -188.592422062 1175.60218256 -188.592422062 1165.90392693 -217.645550421 c 0,49,50
 1157.7691945 -242.014821988 1157.7691945 -242.014821988 908.075195312 -259.850585938 c 0,51,52
 861.093679353 -263.206298167 861.093679353 -263.206298167 872.663155375 -269.030614146 c 0,53,54
 894.476225469 -280.011769425 894.476225469 -280.011769425 1081.96191406 -292.143554688 c 0,55,56
 1326.9478581 -307.995061348 1326.9478581 -307.995061348 1354.06259299 -322.093210678 c 0,57,58
 1373.19944103 -332.043303953 1373.19944103 -332.043303953 1337.48767757 -354.245251533 c 0,59,60
 1330.92311474 -358.326429996 1330.92311474 -358.326429996 1321.54003906 -363.629882812 c 0,61,62
 1270.26538307 -392.611082733 1270.26538307 -392.611082733 1145.20043945 -397.391357422 c 128,-1,63
 1020.13549583 -402.17163211 1020.13549583 -402.17163211 730.32421875 -386.227539062 c 0,64,65
 266.943457992 -360.733917486 266.943457992 -360.733917486 267.171791138 -323.479553185 c 0,66,67
 267.288532694 -304.432242012 267.288532694 -304.432242012 386.415039062 -281.642578125 c 0,68,69
 467.155832054 -266.197605282 467.155832054 -266.197605282 369.442983698 -263.626530783 c 0,70,71
 351.792799447 -263.162109375 351.792799447 -263.162109375 328.453125 -263.162109375 c 0,72,73
 171.660496854 -263.162109375 171.660496854 -263.162109375 149.289676214 -254.603617824 c 0,74,75
 127.217544449 -246.159396833 127.217544449 -246.159396833 149.663687442 -217.15107379 c 0,76,77
 159.033769808 -205.04162691 159.033769808 -205.04162691 191.616210938 -170.422851562 c 0,78,79
 248.896791257 -109.562189196 248.896791257 -109.562189196 265.841212507 -68.5054302048 c 128,-1,80
 282.785633757 -27.4486712133 282.785633757 -27.4486712133 272.94921875 26.6494140625 c 0,81,82
 270.350600481 40.9410821268 270.350600481 40.9410821268 299.216195885 92.7230644141 c 128,-1,83
 328.08179129 144.505046701 328.08179129 144.505046701 370.958007812 202.467773438 c 0,84,85
 449.409141088 308.521065749 449.409141088 308.521065749 433.35661472 302.969265336 c 0,86,87
 430.404409911 301.948239019 430.404409911 301.948239019 423.125 295.208007812 c 0,88,89
 402.837546612 276.42349151 402.837546612 276.42349151 375.090977529 261.664382474 c 128,-1,90
 347.344408447 246.905273438 347.344408447 246.905273438 332.317382812 246.905273438 c 0,91,92
 309.852439754 246.905273438 309.852439754 246.905273438 406.335371499 356.626334351 c 0,93,94
 448.677592195 404.778202171 448.677592195 404.778202171 502.33984375 459.43359375 c 0,95,96
 645.839505082 605.591522652 645.839505082 605.591522652 673.68438755 659.569879094 c 0,97,98
 680.89461553 673.547178384 680.89461553 673.547178384 674.293945312 673.89453125 c 0,99,100
 653.345585884 674.996749658 653.345585884 674.996749658 719.810903143 741.026785911 c 0,101,102
 749.517046969 770.53838436 749.517046969 770.53838436 788.287109375 803.34375 c 2,103,-1
 938.98828125 930.860351562 l 1,104,-1
 809.540039062 1127.93164062 l 2,105,106
 756.237418174 1209.07868465 756.237418174 1209.07868465 693.160616469 1280.11097812 c 128,-1,107
 630.083814763 1351.14327159 630.083814763 1351.14327159 595.079101562 1369.44140625 c 0,108,109
 565.040524135 1385.14351434 565.040524135 1385.14351434 544.231354062 1388.65663315 c 128,-1,110
 523.42218399 1392.16975197 523.42218399 1392.16975197 490.696807559 1379.21877883 c 128,-1,111
 457.971431128 1366.2678057 457.971431128 1366.2678057 420.301422422 1339.6119249 c 128,-1,112
 382.631413715 1312.9560441 382.631413715 1312.9560441 312.99609375 1257.80859375 c 0,113,114
 166.979750052 1142.1723768 166.979750052 1142.1723768 75.5497782042 1125.93082834 c 0,115,116
 14.9521654647 1115.16631596 14.9521654647 1115.16631596 16.4750091542 1160.1157285 c 0,117,118
 16.9579681573 1174.37111375 16.9579681573 1174.37111375 24.30859375 1193.62304688 c 0,119,120
 39.0937108596 1232.34450808 39.0937108596 1232.34450808 154.19975505 1325.38099115 c 128,-1,121
 269.30579924 1418.41747423 269.30579924 1418.41747423 392.881950679 1495.0714828 c 128,-1,122
 516.458102118 1571.72549138 516.458102118 1571.72549138 552.573242188 1569.19140625 c 0,123,124
 578.655902161 1567.36037598 578.655902161 1567.36037598 604.837050348 1576.45512032 c 128,-1,125
 631.018198534 1585.54986467 631.018198534 1585.54986467 639.416992188 1599.35839844 c 0,14,15
1043.3203125 849.712890625 m 0,126,127
 1043.3203125 896.082835234 1043.3203125 896.082835234 941.61328125 776.293945312 c 2,128,-1
 869.43359375 691.283203125 l 1,129,-1
 956.376953125 764.702148438 l 2,130,131
 991.153884494 794.068781552 991.153884494 794.068781552 1017.2370985 819.57231087 c 128,-1,132
 1043.3203125 845.075840189 1043.3203125 845.075840189 1043.3203125 849.712890625 c 0,126,127
653.041992188 -203.330078125 m 1,133,134
 634.695813186 -187.351297591 634.695813186 -187.351297591 549.59737452 -176.078548969 c 128,-1,135
 464.498935855 -164.805800347 464.498935855 -164.805800347 386.815385896 -165.989484885 c 128,-1,136
 309.131835938 -167.173169424 309.131835938 -167.173169424 309.131835938 -182.014648438 c 0,137,138
 309.131835938 -196.599194501 309.131835938 -196.599194501 361.297776702 -206.695593344 c 128,-1,139
 413.463717466 -216.791992188 413.463717466 -216.791992188 488.815429688 -216.791992188 c 0,140,141
 651.335471904 -215.435635854 651.335471904 -215.435635854 653.041992188 -203.330078125 c 1,133,134
EndSplineSet
EndChar

StartChar: three
Encoding: 51 51 22
Width: 1139
GlyphClass: 1
Flags: W
LayerCount: 2
Back
Fore
SplineSet
360.295898438 1509.05175781 m 2,0,-1
 625.77734375 1634.20703125 l 1,1,-1
 740.920898438 1509.05175781 l 2,2,3
 913.635161277 1321.31921371 913.635161277 1321.31921371 980.480561084 1231.9661453 c 128,-1,4
 1047.32596089 1142.6130769 1047.32596089 1142.6130769 1030.32128906 1122.20703125 c 0,5,6
 1020.84656328 1110.83800071 1020.84656328 1110.83800071 1028.87492846 1113.65258355 c 0,7,8
 1039.26958144 1117.29673915 1039.26958144 1117.29673915 1071.40722656 1141.16992188 c 0,9,10
 1133.39396239 1182.80424293 1133.39396239 1182.80424293 1137.77734375 1150.65136719 c 0,11,12
 1137.77734375 1133.58507719 1137.77734375 1133.58507719 1126.39959426 1115.16395898 c 128,-1,13
 1115.02184477 1096.74284076 1115.02184477 1096.74284076 1097.95507812 1086.17773438 c 0,14,15
 1058.13297025 1061.52580915 1058.13297025 1061.52580915 1107.4375 1002.74121094 c 0,16,17
 1146.58038212 956.069820396 1146.58038212 956.069820396 1134.84305324 954.208640721 c 0,18,19
 1128.67527716 953.230620969 1128.67527716 953.230620969 1107.4375 960.249023438 c 0,20,21
 1080.46944514 969.161296687 1080.46944514 969.161296687 1013.02032633 921.683459182 c 128,-1,22
 945.571207518 874.205621676 945.571207518 874.205621676 880.852888391 809.164059739 c 128,-1,23
 816.134569265 744.122497803 816.134569265 744.122497803 772.475984289 679.937823195 c 128,-1,24
 728.817399314 615.753148588 728.817399314 615.753148588 744.040039062 595.037109375 c 0,25,26
 777.472867163 549.537299396 777.472867163 549.537299396 940.5625 333.348632812 c 0,27,28
 1017.81178478 230.947975243 1017.81178478 230.947975243 1055.23865496 157.092392424 c 128,-1,29
 1092.66552514 83.2368096051 1092.66552514 83.2368096051 1082.78515625 52.6962890625 c 0,30,31
 1074.27956473 26.4060791503 1074.27956473 26.4060791503 1010.26574787 -30.3079966082 c 128,-1,32
 946.251931017 -87.0220723667 946.251931017 -87.0220723667 866.607421875 -138.830078125 c 0,33,34
 722.336785868 -232.675859358 722.336785868 -232.675859358 710.334824977 -268.653182065 c 0,35,36
 704.201276199 -287.039232956 704.201276199 -287.039232956 724.384765625 -300.014648438 c 0,37,38
 748.489035636 -315.50988521 748.489035636 -315.50988521 754.780191872 -322.28258198 c 128,-1,39
 761.071348108 -329.055278749 761.071348108 -329.055278749 753.744873232 -331.601858125 c 128,-1,40
 746.418398356 -334.1484375 746.418398356 -334.1484375 720.592773438 -334.1484375 c 0,41,42
 683.614990234 -334.1484375 683.614990234 -334.1484375 683.614990234 -340.785400391 c 128,-1,43
 683.614990234 -347.422363281 683.614990234 -347.422363281 720.592773438 -372.07421875 c 0,44,45
 738.73983092 -384.172383987 738.73983092 -384.172383987 745.96556548 -391.16798746 c 128,-1,46
 753.19130004 -398.163590933 753.19130004 -398.163590933 750.088404857 -402.596493131 c 128,-1,47
 746.985509673 -407.02939533 746.985509673 -407.02939533 733.823139943 -408.514697665 c 128,-1,48
 720.660770214 -410 720.660770214 -410 694.044921875 -410 c 0,49,50
 659.911067962 -410 659.911067962 -410 617.33075454 -392.071509621 c 128,-1,51
 574.750441117 -374.143019242 574.750441117 -374.143019242 549.92578125 -349.318359375 c 0,52,53
 524.749488593 -324.142066718 524.749488593 -324.142066718 454.848587284 -291.965433144 c 128,-1,54
 384.947685974 -259.78879957 384.947685974 -259.78879957 310.9921875 -239.333007812 c 0,55,56
 189.490545576 -205.726145083 189.490545576 -205.726145083 193.094977421 -189.842905882 c 0,57,58
 194.096909094 -185.42780772 194.096909094 -185.42780772 208.592773438 -184.340820312 c 0,59,60
 259.461796218 -180.525678689 259.461796218 -180.525678689 260.305683787 -175.227113455 c 0,61,62
 260.98057712 -170.989622011 260.98057712 -170.989622011 239.660759534 -161.360857712 c 0,63,64
 227.601561161 -155.914508168 227.601561161 -155.914508168 199.111328125 -144.518554688 c 0,65,66
 162.133403231 -129.727238245 162.133403231 -129.727238245 137.95537349 -97.4903840564 c 128,-1,67
 113.77734375 -65.2535298679 113.77734375 -65.2535298679 113.77734375 -30.7412109375 c 0,68,69
 113.77734375 13.552037395 113.77734375 13.552037395 130.048194965 16.6029547382 c 0,70,71
 152.467677395 20.8067905956 152.467677395 20.8067905956 258.346134617 -49.1826533579 c 0,72,73
 280.151371156 -63.5966939541 280.151371156 -63.5966939541 312.888671875 -85.7333984375 c 0,74,75
 395.377622685 -141.511676243 395.377622685 -141.511676243 469.238363507 -180.940896715 c 128,-1,76
 543.09910433 -220.370117188 543.09910433 -220.370117188 565.096679688 -220.370117188 c 0,77,78
 602.275291533 -220.370117188 602.275291533 -220.370117188 600.391020889 -206.016076239 c 0,79,80
 599.870106265 -202.04784064 599.870106265 -202.04784064 595.4375 -197.615234375 c 0,81,82
 578.944048804 -181.121783179 578.944048804 -181.121783179 663.095243437 -102.207167541 c 128,-1,83
 747.246438069 -23.2925519035 747.246438069 -23.2925519035 848.407035209 44.943821187 c 128,-1,84
 949.567632349 113.180194278 949.567632349 113.180194278 974.696289062 103.543945312 c 0,85,86
 1036.8738665 79.7000973168 1036.8738665 79.7000973168 1019.32213127 109.89462134 c 0,87,88
 987.97260944 163.825692975 987.97260944 163.825692975 724.384765625 367.0078125 c 0,89,90
 602.073960776 461.288829022 602.073960776 461.288829022 519.767449493 540.953619633 c 128,-1,91
 437.460938209 620.618410243 437.460938209 620.618410243 443.733398438 638.651367188 c 0,92,93
 449.669648121 655.718176581 449.669648121 655.718176581 441.589747591 676.701348725 c 128,-1,94
 433.50984706 697.68452087 433.50984706 697.68452087 417.185546875 707.595703125 c 0,95,96
 382.338577086 728.752348241 382.338577086 728.752348241 415.848132518 766.577504008 c 0,97,98
 457.513229822 813.608530689 457.513229822 813.608530689 667.49609375 947.584960938 c 0,99,100
 719.550743013 980.797848714 719.550743013 980.797848714 748.262299261 999.19690602 c 128,-1,101
 776.973855509 1017.59596333 776.973855509 1017.59596333 810.427524957 1042.29722484 c 128,-1,102
 843.881194405 1066.99848635 843.881194405 1066.99848635 859.314760199 1079.00292164 c 128,-1,103
 874.748325992 1091.00735694 874.748325992 1091.00735694 890.643853082 1111.58742015 c 128,-1,104
 906.539380173 1132.16748337 906.539380173 1132.16748337 910.378002386 1142.15729664 c 128,-1,105
 914.2166246 1152.14710992 914.2166246 1152.14710992 914.237056207 1172.98597484 c 128,-1,106
 914.257487815 1193.82483976 914.257487815 1193.82483976 908.184213324 1206.18003102 c 128,-1,107
 902.110938832 1218.53522228 902.110938832 1218.53522228 887.939321832 1244.0128889 c 128,-1,108
 873.767704833 1269.49055552 873.767704833 1269.49055552 859.465580511 1288.59112477 c 128,-1,109
 845.16345619 1307.69169402 845.16345619 1307.69169402 819.123046875 1342.17773438 c 0,110,111
 765.425878484 1413.28909208 765.425878484 1413.28909208 710.693074668 1463.06690932 c 128,-1,112
 655.960270851 1512.84472656 655.960270851 1512.84472656 631.466796875 1512.84472656 c 0,113,114
 605.866464218 1512.84472656 605.866464218 1512.84472656 594.626467939 1503.74560797 c 128,-1,115
 583.386471661 1494.64648939 583.386471661 1494.64648939 591.64453125 1480.60742188 c 0,116,117
 600.178094183 1466.10087759 600.178094183 1466.10087759 614.2578125 1462.45031738 c 128,-1,118
 628.337530817 1458.79975717 628.337530817 1458.79975717 642.844726562 1467.33300781 c 0,119,120
 656.276623751 1475.23438231 656.276623751 1475.23438231 699.585844041 1430.9875196 c 128,-1,121
 742.895064331 1386.74065689 742.895064331 1386.74065689 791.333007812 1315.62988281 c 0,122,123
 906.259069319 1146.90824736 906.259069319 1146.90824736 859.442842403 1153.94574002 c 0,124,125
 817.868699102 1160.195234 817.868699102 1160.195234 659.911132812 1306.00195312 c 2,126,-1
 489.244140625 1463.54101562 l 1,127,-1
 280.651367188 1360.67285156 l 2,128,129
 14.6695371587 1229.50340228 14.6695371587 1229.50340228 14.4301414596 1271.98962373 c 0,130,131
 14.3501330225 1286.18894389 14.3501330225 1286.18894389 41.71875 1319.421875 c 0,132,133
 63.9051826093 1346.36317096 63.9051826093 1346.36317096 156.633638641 1401.55879776 c 128,-1,134
 249.362094673 1456.75442457 249.362094673 1456.75442457 360.295898438 1509.05175781 c 2,0,-1
986.07421875 1050.1484375 m 128,-1,136
 986.07421875 1072.90381138 986.07421875 1072.90381138 981.522859331 1089.97046038 c 128,-1,137
 976.971499912 1107.03710938 976.971499912 1107.03710938 970.903320312 1107.03710938 c 128,-1,138
 964.835217285 1107.03710938 964.835217285 1107.03710938 954.026503754 1089.97060394 c 128,-1,139
 943.217790223 1072.90409851 943.217790223 1072.90409851 934.874023438 1050.1484375 c 128,-1,140
 926.530314127 1027.39282227 926.530314127 1027.39282227 931.081665039 1010.32580566 c 128,-1,141
 935.633015951 993.258789062 935.633015951 993.258789062 950.044921875 993.258789062 c 128,-1,142
 964.456152714 993.258789062 964.456152714 993.258789062 975.265185732 1010.32588305 c 128,-1,135
 986.07421875 1027.39297705 986.07421875 1027.39297705 986.07421875 1050.1484375 c 128,-1,136
720.592773438 826.384765625 m 0,143,144
 720.592773438 833.211610896 720.592773438 833.211610896 718.506850693 836.741796317 c 128,-1,145
 716.420927949 840.271981738 716.420927949 840.271981738 713.0078125 839.221679688 c 0,146,147
 510.107598116 776.791112416 510.107598116 776.791112416 481.244731367 733.959517671 c 0,148,149
 472.585094169 721.108885948 472.585094169 721.108885948 485.452148438 713.190429688 c 0,150,151
 503.559999293 702.047244138 503.559999293 702.047244138 561.44330386 721.959900882 c 128,-1,152
 619.326608426 741.872557627 619.326608426 741.872557627 669.959690932 774.198627764 c 128,-1,153
 720.592773438 806.5246979 720.592773438 806.5246979 720.592773438 826.384765625 c 0,143,144
815.407226562 424.370117188 m 0,154,155
 787.246753583 455.659531609 787.246753583 455.659531609 761.623332804 477.941093929 c 128,-1,156
 735.999912026 500.22265625 735.999912026 500.22265625 728.177734375 500.22265625 c 0,157,158
 713.547421355 500.22265625 713.547421355 500.22265625 760.88313764 443.495425176 c 0,159,160
 768.704590748 434.122177815 768.704590748 434.122177815 777.481445312 424.370117188 c 0,161,162
 805.641534887 393.081128771 805.641534887 393.081128771 831.26509412 370.799841729 c 128,-1,163
 856.888653354 348.518554688 856.888653354 348.518554688 864.7109375 348.518554688 c 0,164,165
 879.340759529 348.518554688 879.340759529 348.518554688 832.005731324 405.244638598 c 0,166,167
 824.184221939 414.617900102 824.184221939 414.617900102 815.407226562 424.370117188 c 0,154,155
EndSplineSet
EndChar

StartChar: four
Encoding: 52 52 23
Width: 1139
GlyphClass: 1
Flags: W
LayerCount: 2
Back
Fore
SplineSet
1256.56933594 1395.01660156 m 0,0,1
 1256.56933594 1452.76350249 1256.56933594 1452.76350249 1267.02570443 1448.74708802 c 0,2,3
 1270.29136981 1447.49270742 1270.29136981 1447.49270742 1273.92578125 1438.40722656 c 0,4,5
 1281.21484375 1420.18310547 1281.21484375 1420.18310547 1281.21484375 1395.01708984 c 128,-1,6
 1281.21484375 1369.85107422 1281.21484375 1369.85107422 1273.92578125 1351.62695312 c 0,7,8
 1264.08006991 1327.01415861 1264.08006991 1327.01415861 1259.077911 1355.76877858 c 0,9,10
 1256.56933594 1370.18917662 1256.56933594 1370.18917662 1256.56933594 1395.01660156 c 0,0,1
1076.06738281 1565.10546875 m 0,11,12
 1076.06738281 1591.13938176 1076.06738281 1591.13938176 1091.25401893 1609.36314791 c 128,-1,13
 1106.44065505 1627.58691406 1106.44065505 1627.58691406 1128.13574219 1627.58691406 c 0,14,15
 1148.96268854 1627.58691406 1148.96268854 1627.58691406 1164.58290677 1617.69378958 c 128,-1,16
 1180.203125 1607.8006651 1180.203125 1607.8006651 1180.203125 1594.61035156 c 128,-1,17
 1180.203125 1581.41954473 1180.203125 1581.41954473 1195.82373047 1577.45666504 c 128,-1,18
 1211.44433594 1573.49378535 1211.44433594 1573.49378535 1232.27148438 1581.40039062 c 0,19,20
 1271.93918742 1596.45975427 1271.93918742 1596.45975427 1282.68667979 1573.9947032 c 0,21,22
 1293.31779116 1551.77291867 1293.31779116 1551.77291867 1262.4468879 1526.06405973 c 0,23,24
 1256.63609682 1521.22491372 1256.63609682 1521.22491372 1249.62695312 1516.93359375 c 0,25,26
 1235.16377824 1508.07858872 1235.16377824 1508.07858872 1225.03940865 1410.76115974 c 128,-1,27
 1214.91503906 1313.44373076 1214.91503906 1313.44373076 1214.91503906 1183.27441406 c 0,28,29
 1214.91503906 944.179233974 1214.91503906 944.179233974 1194.53417513 894.617326661 c 0,30,31
 1190.93188507 885.85732678 1190.93188507 885.85732678 1187.14550781 888.223632812 c 0,32,33
 1175.73472064 895.355463968 1175.73472064 895.355463968 1168.2499627 869.666437668 c 0,34,35
 1160.36071919 842.589144651 1160.36071919 842.589144651 1161.11230469 794.501953125 c 0,36,37
 1161.8440013 747.640410765 1161.8440013 747.640410765 1154.3185498 686.433523087 c 128,-1,38
 1146.79309831 625.226635408 1146.79309831 625.226635408 1135.078125 582.759765625 c 0,39,40
 1114.15424199 506.909663808 1114.15424199 506.909663808 1123.14299936 503.101419101 c 0,41,42
 1129.83870208 500.264667207 1129.83870208 500.264667207 1161.11230469 525.484375 c 0,43,44
 1203.11567782 559.358867764 1203.11567782 559.358867764 1213.08600901 541.034557811 c 0,45,46
 1214.91503906 537.673013138 1214.91503906 537.673013138 1214.91503906 532.426757812 c 0,47,48
 1214.91503906 517.51669145 1214.91503906 517.51669145 1243.1186102 502.645645447 c 128,-1,49
 1271.32218133 487.774599444 1271.32218133 487.774599444 1310.37304688 482.094726562 c 2,50,-1
 1405.83007812 468.209960938 l 1,51,-1
 1301.6953125 461.267578125 l 2,52,53
 1228.1147057 456.362310496 1228.1147057 456.362310496 1226.98963034 448.197113502 c 0,54,55
 1226.2586462 442.892020412 1226.2586462 442.892020412 1247.83270129 432.084658251 c 0,56,57
 1255.3305445 428.328669558 1255.3305445 428.328669558 1266.98339844 423.084960938 c 0,58,59
 1310.53839143 403.484754584 1310.53839143 403.484754584 1310.85957124 396.824459026 c 0,60,61
 1311.15156712 390.769349742 1311.15156712 390.769349742 1277.39648438 389.333007812 c 0,62,63
 1222.86017105 387.011955208 1222.86017105 387.011955208 1201.85282882 290.064954786 c 128,-1,64
 1180.84548659 193.117954364 1180.84548659 193.117954364 1189.18554688 -17.755859375 c 0,65,66
 1195.97475354 -189.443658836 1195.97475354 -189.443658836 1179.61784597 -213.87375884 c 0,67,68
 1177.44462721 -217.119601699 1177.44462721 -217.119601699 1174.99707031 -215.61328125 c 0,69,70
 1168.69668511 -211.736232171 1168.69668511 -211.736232171 1161.01977007 -222.183486856 c 128,-1,71
 1153.34285503 -232.630741542 1153.34285503 -232.630741542 1146.00822472 -254.708765748 c 128,-1,72
 1138.67359442 -276.786789954 1138.67359442 -276.786789954 1133.34277344 -305.864257812 c 0,73,74
 1125.22824884 -350.122437947 1125.22824884 -350.122437947 1109.75985579 -380.061218973 c 128,-1,75
 1094.29146274 -410 1094.29146274 -410 1079.5390625 -410 c 0,76,77
 1061.91835882 -410 1061.91835882 -410 1060.70463395 -292.894345747 c 128,-1,78
 1059.49090909 -175.788691494 1059.49090909 -175.788691494 1073.46007959 -31.8829980028 c 128,-1,79
 1087.42925009 112.022695489 1087.42925009 112.022695489 1108.37695312 180.1015625 c 0,80,81
 1119.59121389 216.549557968 1119.59121389 216.549557968 1120.27502441 261.848022461 c 128,-1,82
 1120.95883493 307.146486953 1120.95883493 307.146486953 1110.734375 336.3046875 c 0,83,84
 1095.65161638 379.31958455 1095.65161638 379.31958455 1076.72826518 303.5036677 c 0,85,86
 1045.59258759 178.759381198 1045.59258759 178.759381198 1041.7033159 -44.2515307886 c 0,87,88
 1041.35546875 -64.197092968 1041.35546875 -64.197092968 1041.35546875 -83.7080078125 c 0,89,90
 1041.35546875 -146.189871735 1041.35546875 -146.189871735 1029.75153094 -196.643187712 c 128,-1,91
 1018.14759313 -247.096503688 1018.14759313 -247.096503688 1001.4375 -257.267578125 c 0,92,93
 982.670195734 -268.69160902 982.670195734 -268.69160902 977.132237286 -233.349395776 c 0,94,95
 969.495527897 -184.613347239 969.495527897 -184.613347239 984.081054688 -7.3427734375 c 0,96,97
 993.29191356 104.603630949 993.29191356 104.603630949 992.264892578 197.040283203 c 128,-1,98
 991.237871597 289.476935457 991.237871597 289.476935457 980.610351562 305.064453125 c 0,99,100
 969.22778651 321.758540071 969.22778651 321.758540071 852.993556512 337.874996362 c 128,-1,101
 736.759326513 353.991452653 736.759326513 353.991452653 567.5390625 362.338867188 c 0,102,103
 409.758204281 371.725421628 409.758204281 371.725421628 317.933702257 370.322916667 c 128,-1,104
 226.109200233 368.920411706 226.109200233 368.920411706 186.734592014 359.092122396 c 128,-1,105
 147.359983795 349.263833086 147.359983795 349.263833086 121.491210938 324.15625 c 0,106,107
 79.245863071 283.152356816 79.245863071 283.152356816 76.3597412109 285.864257812 c 128,-1,108
 73.4736193509 288.576158809 73.4736193509 288.576158809 101.173828125 343.247070312 c 0,109,110
 151.514322977 442.604308457 151.514322977 442.604308457 132.641357045 451.682294411 c 0,111,112
 123.328388867 456.16187619 123.328388867 456.16187619 97.193359375 430.02734375 c 0,113,114
 46.2028951607 379.036879536 46.2028951607 379.036879536 26.3811609722 390.571599328 c 0,115,116
 7.36181913127 401.63938869 7.36181913127 401.63938869 42.2890625 457.796875 c 0,117,118
 58.4805195867 483.830499741 58.4805195867 483.830499741 78.7732795 499.062503474 c 128,-1,119
 99.0660394133 514.294507206 99.0660394133 514.294507206 109.342773438 508.12890625 c 0,120,121
 120.378869542 501.507102103 120.378869542 501.507102103 135.072229663 520.004471329 c 128,-1,122
 149.765589783 538.501840554 149.765589783 538.501840554 160.353515625 572.345703125 c 0,123,124
 176.414205629 623.683350225 176.414205629 623.683350225 258.270263905 731.608192994 c 128,-1,125
 340.126322182 839.533035763 340.126322182 839.533035763 422.92342099 922.551312215 c 128,-1,126
 505.720519799 1005.56958867 505.720519799 1005.56958867 524.149414062 994.228515625 c 0,127,128
 543.442330784 982.356195045 543.442330784 982.356195045 542.023389976 1002.59000329 c 0,129,130
 541.431997454 1011.02314075 541.431997454 1011.02314075 536.55859375 1023.59960938 c 0,131,132
 528.511521552 1044.36576933 528.511521552 1044.36576933 609.938756506 1152.8995236 c 128,-1,133
 691.36599146 1261.43327788 691.36599146 1261.43327788 785.416386723 1360.29969515 c 128,-1,134
 879.466781986 1459.16611242 879.466781986 1459.16611242 902.508789062 1456.12304688 c 0,135,136
 934.383085254 1451.91310059 934.383085254 1451.91310059 975.851061027 1468.76067935 c 128,-1,137
 1017.3190368 1485.6082581 1017.3190368 1485.6082581 1046.69320981 1513.24452899 c 128,-1,138
 1076.06738281 1540.88079987 1076.06738281 1540.88079987 1076.06738281 1565.10546875 c 0,11,12
991.004882812 912.522460938 m 0,139,140
 997.402607049 1021.86420597 997.402607049 1021.86420597 993.305786133 1124.42199707 c 128,-1,141
 989.208965217 1226.97978817 989.208965217 1226.97978817 977.138671875 1259.640625 c 2,142,-1
 947.633789062 1339.47753906 l 1,143,-1
 925.071289062 1247.49121094 l 2,144,145
 912.300091594 1195.4235142 912.300091594 1195.4235142 891.964322221 1178.4771248 c 128,-1,146
 871.628552849 1161.5307354 871.628552849 1161.5307354 831.349609375 1169.38964844 c 0,147,148
 781.850431616 1179.04768494 781.850431616 1179.04768494 777.19943876 1163.76425965 c 0,149,150
 776.095984099 1160.13824529 776.095984099 1160.13824529 779.28125 1155.50488281 c 0,151,152
 787.156216302 1144.04985371 787.156216302 1144.04985371 772.371260244 1117.53889801 c 128,-1,153
 757.586304185 1091.02794232 757.586304185 1091.02794232 728.94921875 1065.25390625 c 128,-1,154
 700.311774662 1039.48093899 700.311774662 1039.48093899 686.546349436 1010.93022957 c 128,-1,155
 672.78092421 982.37952015 672.78092421 982.37952015 682.087890625 968.060546875 c 128,-1,156
 691.318608199 953.860344358 691.318608199 953.860344358 686.703369141 950.54699707 c 128,-1,157
 682.088130082 947.233649783 682.088130082 947.233649783 666.467773438 956.846679688 c 0,158,159
 657.104929136 962.608330184 657.104929136 962.608330184 647.334175364 962.893885317 c 128,-1,160
 637.563421592 963.179440451 637.563421592 963.179440451 625.522022249 958.119182968 c 128,-1,161
 613.480622906 953.058925486 613.480622906 953.058925486 597.945252942 939.521760909 c 128,-1,162
 582.409882978 925.984596333 582.409882978 925.984596333 563.717374609 906.239559244 c 128,-1,163
 545.024866239 886.494522155 545.024866239 886.494522155 519.60568821 855.129182784 c 128,-1,164
 494.186510181 823.763843414 494.186510181 823.763843414 464.723700912 785.328571634 c 128,-1,165
 435.260891642 746.893299855 435.260891642 746.893299855 395.985351562 693.836914062 c 0,166,167
 250.372825 497.131425982 250.372825 497.131425982 283.808266276 496.919655867 c 0,168,169
 291.618507708 496.870188126 291.618507708 496.870188126 308.935546875 506.971679688 c 0,170,171
 324.555901745 516.083750999 324.555901745 516.083750999 339.829223633 512.106445312 c 128,-1,172
 355.102545521 508.129139626 355.102545521 508.129139626 364.474609375 492.508789062 c 0,173,174
 373.028546149 478.252227772 373.028546149 478.252227772 422.120898462 469.558606716 c 128,-1,175
 471.213250774 460.864985659 471.213250774 460.864985659 531.091796875 463.002929688 c 2,176,-1
 676.881835938 468.209960938 l 1,177,-1
 520.677734375 492.508789062 l 2,178,179
 435.709951115 505.725726599 435.709951115 505.725726599 436.366117383 510.868513687 c 0,180,181
 437.2839147 518.061867612 437.2839147 518.061867612 645.640625 521.654296875 c 0,182,183
 651.357269035 521.75285736 651.357269035 521.75285736 662.488501005 521.940611034 c 0,184,185
 720.640818634 522.921482811 720.640818634 522.921482811 746.086207006 522.90462761 c 128,-1,186
 771.531595377 522.88777241 771.531595377 522.88777241 811.385506006 528.182698121 c 128,-1,187
 851.239416635 533.477623832 851.239416635 533.477623832 864.780468815 534.395374394 c 128,-1,188
 878.321520995 535.313124956 878.321520995 535.313124956 903.172284195 550.168084891 c 128,-1,189
 928.023047395 565.023044825 928.023047395 565.023044825 933.587881759 571.32105633 c 128,-1,190
 939.152716122 577.619067836 939.152716122 577.619067836 952.928450267 606.479717174 c 128,-1,191
 966.704184411 635.340366511 966.704184411 635.340366511 968.220919332 651.46429414 c 128,-1,192
 969.737654252 667.588221769 969.737654252 667.588221769 976.366477716 714.90021569 c 128,-1,193
 982.995301179 762.212209611 982.995301179 762.212209611 984.392055031 792.607708544 c 128,-1,194
 985.788808882 823.003207476 985.788808882 823.003207476 989.831698842 892.411876052 c 0,195,196
 990.6056316 905.698817546 990.6056316 905.698817546 991.004882812 912.522460938 c 0,139,140
1065.65429688 865.661132812 m 0,197,198
 1073.09277344 884.256591797 1073.09277344 884.256591797 1073.09277344 914.009765625 c 128,-1,199
 1073.09277344 943.762939453 1073.09277344 943.762939453 1065.65429688 969.796875 c 0,200,201
 1055.7110071 1004.59789556 1055.7110071 1004.59789556 1050.77939405 972.653338017 c 0,202,203
 1048.29785156 956.579129464 1048.29785156 956.579129464 1048.29785156 926.407226562 c 0,204,205
 1048.29785156 851.875942569 1048.29785156 851.875942569 1059.70899336 856.691627615 c 0,206,207
 1062.54535211 857.888616547 1062.54535211 857.888616547 1065.65429688 865.661132812 c 0,197,198
362.984375 752.84765625 m 0,208,209
 443.914610346 859.452230649 443.914610346 859.452230649 440.5323488 875.741891413 c 0,210,211
 437.975575139 888.05583432 437.975575139 888.05583432 377.814453125 815.329101562 c 0,212,213
 225.627467773 631.35546875 225.627467773 631.35546875 253.396484375 631.35546875 c 0,214,215
 260.462982614 631.35546875 260.462982614 631.35546875 292.94828844 667.369462562 c 128,-1,216
 325.433594266 703.383456373 325.433594266 703.383456373 362.984375 752.84765625 c 0,208,209
EndSplineSet
EndChar

StartChar: five
Encoding: 53 53 24
Width: 1139
GlyphClass: 1
Flags: W
LayerCount: 2
Back
Fore
SplineSet
111.115234375 1590.06835938 m 0,0,1
 97.756863486 1611.92733388 97.756863486 1611.92733388 343.72293411 1620.30984554 c 0,2,3
 470.874734061 1624.64317266 470.874734061 1624.64317266 627.47265625 1622.74902344 c 0,4,5
 780.035530103 1620.90364655 780.035530103 1620.90364655 902.972178378 1614.03603024 c 128,-1,6
 1025.90882665 1607.16841393 1025.90882665 1607.16841393 1094.50698829 1596.83701663 c 128,-1,7
 1163.10514993 1586.50561934 1163.10514993 1586.50561934 1161.25976562 1574.81738281 c 0,8,9
 1158.56369902 1557.74156191 1158.56369902 1557.74156191 1182.24366397 1540.42153307 c 128,-1,10
 1205.92362891 1523.10150424 1205.92362891 1523.10150424 1241.87207031 1515.85644531 c 0,11,12
 1379.92874783 1488.03106845 1379.92874783 1488.03106845 1371.53892149 1461.20146545 c 0,13,14
 1361.36034527 1428.65166669 1361.36034527 1428.65166669 1162.47897623 1421.56637397 c 0,15,16
 1122.10241319 1420.12792969 1122.10241319 1420.12792969 1076.2890625 1420.12792969 c 0,17,18
 785.420219662 1420.12792969 785.420219662 1420.12792969 766.332606818 1385.22459483 c 0,19,20
 762.172098359 1377.61674879 762.172098359 1377.61674879 768.098632812 1367.83789062 c 0,21,22
 780.776617269 1346.91950726 780.776617269 1346.91950726 742.094068113 1341.45823863 c 0,23,24
 651.295083821 1328.63908232 651.295083821 1328.63908232 404.636223775 1391.0842449 c 0,25,26
 379.032173636 1397.56627061 379.032173636 1397.56627061 352.953125 1404.67871094 c 2,27,-1
 248.374023438 1433.20019531 l 1,28,-1
 337.702148438 1343.87207031 l 2,29,30
 377.352635553 1304.2215832 377.352635553 1304.2215832 410.067080144 1220.01277589 c 128,-1,31
 442.781524735 1135.80396859 442.781524735 1135.80396859 455.353515625 1041.03027344 c 2,32,-1
 483.676757812 827.514648438 l 1,33,-1
 840.987304688 742.544921875 l 2,34,35
 988.050114843 707.572726298 988.050114843 707.572726298 1115.60882256 685.77865884 c 128,-1,36
 1243.16753028 663.984591382 1243.16753028 663.984591382 1274.55273438 668.467773438 c 0,37,38
 1307.23407689 673.13695518 1307.23407689 673.13695518 1329.02133532 664.422129934 c 128,-1,39
 1350.80859375 655.707304687 1350.80859375 655.707304687 1350.80859375 637.965820312 c 128,-1,40
 1350.80859375 620.22512207 1350.80859375 620.22512207 1372.59570312 615.245239258 c 128,-1,41
 1394.3828125 610.265356445 1394.3828125 610.265356445 1427.06347656 620.536132812 c 0,42,43
 1480.33863348 637.279902804 1480.33863348 637.279902804 1480.41531682 631.12499603 c 0,44,45
 1480.4886459 625.239315031 1480.4886459 625.239315031 1433.59960938 585.676757812 c 0,46,47
 1415.75599154 570.621003013 1415.75599154 570.621003013 1406.33791706 560.943642619 c 128,-1,48
 1396.91984257 551.266282226 1396.91984257 551.266282226 1390.85934857 536.381593384 c 128,-1,49
 1384.79885456 521.496904542 1384.79885456 521.496904542 1384.79885456 508.8744604 c 128,-1,50
 1384.79885456 496.252016258 1384.79885456 496.252016258 1390.85934857 470.950784645 c 128,-1,51
 1396.91984257 445.649553032 1396.91984257 445.649553032 1406.33791706 419.784770368 c 128,-1,52
 1415.75599154 393.919987703 1415.75599154 393.919987703 1433.59960938 348.1953125 c 0,53,54
 1462.93326173 273.029384753 1462.93326173 273.029384753 1498.27101075 226.516787814 c 128,-1,55
 1533.60875977 180.004190876 1533.60875977 180.004190876 1555.60839844 187.604492188 c 0,56,57
 1599.46414598 202.754322577 1599.46414598 202.754322577 1597.6499326 163.143072517 c 0,58,59
 1595.19059367 109.446252581 1595.19059367 109.446252581 1524.63575172 20.4939874756 c 0,60,61
 1509.1284418 0.943091953128 1509.1284418 0.943091953128 1491.66503906 -17.830078125 c 0,62,63
 1452.14416213 -60.3150757592 1452.14416213 -60.3150757592 1421.96990541 -111.412830288 c 128,-1,64
 1391.7956487 -162.510584817 1391.7956487 -162.510584817 1390.02539062 -189.94921875 c 0,65,66
 1385.86623318 -254.409658199 1385.86623318 -254.409658199 1367.62135414 -209.218724928 c 0,67,68
 1366.85042612 -207.309205181 1366.85042612 -207.309205181 1366.05957031 -205.200195312 c 0,69,70
 1355.1662951 -176.150124234 1355.1662951 -176.150124234 1324.6640625 -180.991699219 c 128,-1,71
 1294.1618299 -185.833274203 1294.1618299 -185.833274203 1228.79980469 -226.987304688 c 0,72,73
 1111.14900763 -301.063537148 1111.14900763 -301.063537148 1089.57910156 -327.208984375 c 0,74,75
 1068.49570303 -352.764490477 1068.49570303 -352.764490477 914.130086964 -365.442086411 c 128,-1,76
 759.764470895 -378.119682345 759.764470895 -378.119682345 566.079548453 -372.378877131 c 128,-1,77
 372.394626011 -366.638071916 372.394626011 -366.638071916 248.374023438 -343.974609375 c 0,78,79
 50.602402099 -307.833509371 50.602402099 -307.833509371 59.5558684841 -274.422690055 c 0,80,81
 69.3796894439 -237.764049371 69.3796894439 -237.764049371 302.422723856 -226.40091763 c 0,82,83
 473.382346265 -218.064960639 473.382346265 -218.064960639 705.90625 -228.796875 c 0,84,85
 766.475654447 -231.592410544 766.475654447 -231.592410544 803.022548408 -232.011084569 c 128,-1,86
 839.56944237 -232.429758595 839.56944237 -232.429758595 876.682000745 -228.163394597 c 128,-1,87
 913.79455912 -223.8970306 913.79455912 -223.8970306 936.290732364 -216.826514257 c 128,-1,88
 958.786905607 -209.755997914 958.786905607 -209.755997914 988.569298199 -192.997704493 c 128,-1,89
 1018.35169079 -176.239411073 1018.35169079 -176.239411073 1043.10286163 -156.554704361 c 128,-1,90
 1067.85403247 -136.869997649 1067.85403247 -136.869997649 1106.79101562 -102.799804688 c 0,91,92
 1175.59107565 -42.6001330549 1175.59107565 -42.6001330549 1207.30768102 -0.648628590859 c 128,-1,93
 1239.0242864 41.3028758731 1239.0242864 41.3028758731 1251.34173304 88.6427692159 c 128,-1,94
 1263.65917969 135.982662559 1263.65917969 135.982662559 1263.65917969 215.293945312 c 0,95,96
 1263.65917969 290.459656305 1263.65917969 290.459656305 1254.11094532 356.66124787 c 128,-1,97
 1244.56271095 422.862839434 1244.56271095 422.862839434 1230.97851562 441.880859375 c 0,98,99
 1217.55619299 460.672550514 1217.55619299 460.672550514 1100.08044815 489.560119691 c 128,-1,100
 982.604703309 518.447688868 982.604703309 518.447688868 832.272460938 539.923828125 c 128,-1,101
 681.944438033 561.398632194 681.944438033 561.398632194 567.034476056 583.225205031 c 128,-1,102
 452.124514078 605.051777868 452.124514078 605.051777868 442.28125 614 c 0,103,104
 432.141633267 623.217500475 432.141633267 623.217500475 449.738973321 648.356753878 c 128,-1,105
 467.336313374 673.496007281 467.336313374 673.496007281 503.28515625 701.149414062 c 0,106,107
 559.68048988 744.530336228 559.68048988 744.530336228 560.981794571 751.812319769 c 0,108,109
 561.80718815 756.431147706 561.80718815 756.431147706 549.748014507 755.580313939 c 0,110,111
 535.35355897 754.564714595 535.35355897 754.564714595 474.961914062 740.927734375 c 0,112,113
 445.674009392 734.314385826 445.674009392 734.314385826 424.401143243 733.840764653 c 128,-1,114
 403.128277093 733.367143479 403.128277093 733.367143479 384.578289155 738.685306434 c 128,-1,115
 366.028301217 744.003469389 366.028301217 744.003469389 352.776023664 759.713111136 c 128,-1,116
 339.52374611 775.422752883 339.52374611 775.422752883 328.353879079 797.926178564 c 128,-1,117
 317.184012047 820.429604245 317.184012047 820.429604245 308.456069901 857.792910243 c 128,-1,118
 299.728127755 895.156216242 299.728127755 895.156216242 292.442128441 940.315305979 c 128,-1,119
 285.156129127 985.474395715 285.156129127 985.474395715 277.594726562 1049.74511719 c 0,120,121
 269.136723647 1121.6425365 269.136723647 1121.6425365 245.193124967 1186.92270296 c 128,-1,122
 221.249526288 1252.20286941 221.249526288 1252.20286941 196.084960938 1271.97460938 c 0,123,124
 163.404281684 1297.65259983 163.404281684 1297.65259983 159.863891602 1319.40063477 c 128,-1,125
 156.323501519 1341.1486697 156.323501519 1341.1486697 180.833984375 1365.65917969 c 0,126,127
 204.914650912 1389.73969164 204.914650912 1389.73969164 186.338134766 1416.57275391 c 128,-1,128
 167.76161862 1443.40581618 167.76161862 1443.40581618 102.400390625 1478.953125 c 0,129,130
 21.3063128158 1523.05667877 21.3063128158 1523.05667877 21.4300392634 1537.68636348 c 0,131,132
 21.514697347 1547.69651971 21.514697347 1547.69651971 56.646484375 1548.671875 c 0,133,134
 89.327822381 1549.5800765 89.327822381 1549.5800765 105.214457234 1561.6540373 c 128,-1,135
 121.101092087 1573.7279981 121.101092087 1573.7279981 111.115234375 1590.06835938 c 0,0,1
444.459960938 1476.77441406 m 0,136,137
 491.361407185 1494.81421969 491.361407185 1494.81421969 439.308793332 1501.1826426 c 0,138,139
 430.252220657 1502.29067696 430.252220657 1502.29067696 418.314453125 1502.91894531 c 0,140,141
 363.223674815 1505.81917477 363.223674815 1505.81917477 358.319950049 1489.95136236 c 0,142,143
 357.028319442 1485.77181453 357.028319442 1485.77181453 361.66796875 1481.13183594 c 0,144,145
 372.226501822 1470.57330287 372.226501822 1470.57330287 396.904663086 1469.27453613 c 128,-1,146
 421.58282435 1467.9757694 421.58282435 1467.9757694 444.459960938 1476.77441406 c 0,136,137
925.95703125 648.859375 m 0,147,148
 955.676756071 660.747264928 955.676756071 660.747264928 922.845271551 667.114222373 c 0,149,150
 904.631013603 670.646484375 904.631013603 670.646484375 871.489257812 670.646484375 c 0,151,152
 799.426958771 670.646484375 799.426958771 670.646484375 804.000883775 657.630973355 c 0,153,154
 805.457878354 653.484965498 805.457878354 653.484965498 817.021484375 648.859375 c 0,155,156
 839.897949219 639.709228516 839.897949219 639.709228516 871.489257812 639.709228516 c 128,-1,157
 903.080566406 639.709228516 903.080566406 639.709228516 925.95703125 648.859375 c 0,147,148
1141.65136719 561.7109375 m 0,158,159
 1188.55418784 579.749991493 1188.55418784 579.749991493 1136.50146456 586.119025784 c 0,160,161
 1127.44475861 587.227180499 1127.44475861 587.227180499 1115.50683594 587.85546875 c 0,162,163
 1060.41476822 590.75446642 1060.41476822 590.75446642 1055.51132519 574.887228907 c 0,164,165
 1054.21980021 570.707934163 1054.21980021 570.707934163 1058.859375 566.068359375 c 0,166,167
 1069.41789879 555.509835583 1069.41789879 555.509835583 1094.09643555 554.21105957 c 128,-1,168
 1118.7749723 552.912283558 1118.7749723 552.912283558 1141.65136719 561.7109375 c 0,158,159
EndSplineSet
EndChar

StartChar: six
Encoding: 54 54 25
Width: 1139
GlyphClass: 1
Flags: W
LayerCount: 2
Back
Fore
SplineSet
593.501953125 1439.46972656 m 128,-1,1
 668.998881537 1520.97180948 668.998881537 1520.97180948 736.752169613 1579.48590474 c 128,-1,2
 804.505457688 1638 804.505457688 1638 823.379882812 1638 c 0,3,4
 881.354861465 1638 881.354861465 1638 849.226923895 1552.20651418 c 0,5,6
 807.392007569 1440.49180193 807.392007569 1440.49180193 657.314835175 1276.681032 c 0,7,8
 640.881172268 1258.74352071 640.881172268 1258.74352071 623.6796875 1240.93847656 c 0,9,10
 499.514215284 1112.41581998 499.514215284 1112.41581998 396.042752173 924.3341788 c 128,-1,11
 292.571289062 736.252537621 292.571289062 736.252537621 292.571289062 639.077148438 c 0,12,13
 292.571289062 626.924686353 292.571289062 626.924686353 371.984069915 594.548726206 c 128,-1,14
 451.396850767 562.17276606 451.396850767 562.17276606 564.245117188 528.318359375 c 0,15,16
 680.228272799 493.523266208 680.228272799 493.523266208 758.073120774 454.600646644 c 128,-1,17
 835.91796875 415.678027081 835.91796875 415.678027081 835.91796875 392.481445312 c 0,18,19
 835.91796875 370.538652173 835.91796875 370.538652173 847.130615234 361.319458008 c 128,-1,20
 858.343261719 352.100263843 858.343261719 352.100263843 873.53515625 361.552734375 c 0,21,22
 929.194836805 396.185498391 929.194836805 396.185498391 936.015657906 337.979725558 c 0,23,24
 944.258796759 267.636542479 944.258796759 267.636542479 880.05078125 116.62890625 c 0,25,26
 846.729351681 38.2614742011 846.729351681 38.2614742011 827.841471084 -33.5412281774 c 128,-1,27
 808.953590488 -105.343930556 808.953590488 -105.343930556 816.282226562 -125.788085938 c 0,28,29
 839.35067311 -190.137353467 839.35067311 -190.137353467 808.805975727 -227.496032261 c 128,-1,30
 778.261278345 -264.854711054 778.261278345 -264.854711054 687.042657085 -282.510152635 c 128,-1,31
 595.824035826 -300.165594216 595.824035826 -300.165594216 426.318359375 -301.978515625 c 0,32,33
 322.316544101 -303.091000999 322.316544101 -303.091000999 262.107776455 -306.11164317 c 128,-1,34
 201.899008809 -309.13228534 201.899008809 -309.13228534 165.668590732 -316.400289203 c 128,-1,35
 129.438172655 -323.668293067 129.438172655 -323.668293067 119.942127041 -334.630991314 c 128,-1,36
 110.446081428 -345.593689561 110.446081428 -345.593689561 117.028320312 -364.024414062 c 0,37,38
 125.985050824 -389.101648176 125.985050824 -389.101648176 120.014038086 -398.655151367 c 128,-1,39
 114.043025348 -408.208654558 114.043025348 -408.208654558 96.130859375 -397.4609375 c 0,40,41
 78.9145243702 -387.131575951 78.9145243702 -387.131575951 59.2507112928 -261.161485737 c 128,-1,42
 39.5868982155 -135.191395524 39.5868982155 -135.191395524 29.2568359375 30.947265625 c 0,43,44
 20.5646697699 170.746368702 20.5646697699 170.746368702 18.7198991538 249.361626579 c 128,-1,45
 16.8751285377 327.976884456 16.8751285377 327.976884456 24.1469068765 397.300543831 c 128,-1,46
 31.4186852153 466.624203206 31.4186852153 466.624203206 46.4735307456 513.94414611 c 128,-1,47
 61.5283762759 561.264089015 61.5283762759 561.264089015 91.951171875 628.62890625 c 0,48,49
 179.721159925 822.978107104 179.721159925 822.978107104 250.775390625 1031.95898438 c 0,50,51
 280.617862276 1119.73005506 280.617862276 1119.73005506 313.950148688 1180.33426581 c 128,-1,52
 347.282435099 1240.93847656 347.282435099 1240.93847656 365.713867188 1240.93847656 c 0,53,54
 383.730652125 1240.93847656 383.730652125 1240.93847656 450.867884294 1299.45274342 c 128,-1,0
 518.005116462 1357.96701027 518.005116462 1357.96701027 593.501953125 1439.46972656 c 128,-1,1
495.28125 359.044921875 m 128,-1,56
 474.906139081 346.642170939 474.906139081 346.642170939 439.992965833 365.904692477 c 128,-1,57
 405.079792584 385.167214015 405.079792584 385.167214015 374.073242188 425.91796875 c 2,58,-1
 300.930664062 522.048828125 l 1,59,-1
 229.877929688 386.211914062 l 2,60,61
 192.870853769 315.463630998 192.870853769 315.463630998 182.649291992 246.870727539 c 128,-1,62
 172.427730216 178.27782408 172.427730216 178.27782408 187.213867188 99.91015625 c 0,63,64
 196.316796214 51.66549217 196.316796214 51.66549217 204.425973557 16.5902800551 c 128,-1,65
 212.5351509 -18.4849320598 212.5351509 -18.4849320598 222.468881942 -48.7514128676 c 128,-1,66
 232.402612984 -79.0178936754 232.402612984 -79.0178936754 242.382035874 -98.863058568 c 128,-1,67
 252.361458763 -118.70822346 252.361458763 -118.70822346 266.151224472 -134.160165309 c 128,-1,68
 279.94099018 -149.612107157 279.94099018 -149.612107157 294.75280156 -157.54637766 c 128,-1,69
 309.56461294 -165.480648162 309.56461294 -165.480648162 330.172556259 -169.437203883 c 128,-1,70
 350.780499578 -173.393759604 350.780499578 -173.393759604 373.386842392 -172.736288548 c 128,-1,71
 395.993185207 -172.078817492 395.993185207 -172.078817492 426.318359375 -168.014648438 c 0,72,73
 554.840752803 -150.790292251 554.840752803 -150.790292251 619.433424789 -100.692541251 c 128,-1,74
 684.026096775 -50.5947902513 684.026096775 -50.5947902513 734.041015625 70.6533203125 c 0,75,76
 747.997762944 104.488353965 747.997762944 104.488353965 754.513319309 122.012594834 c 128,-1,77
 761.028875673 139.536835702 761.028875673 139.536835702 762.491807645 158.066506729 c 128,-1,78
 763.954739617 176.596177756 763.954739617 176.596177756 760.148320032 184.65671014 c 128,-1,79
 756.341900447 192.717242525 756.341900447 192.717242525 740.922327031 203.743445386 c 128,-1,80
 725.502753615 214.769648248 725.502753615 214.769648248 707.567825964 221.42712753 c 128,-1,81
 689.632898312 228.084606813 689.632898312 228.084606813 654.106445312 239.926757812 c 0,82,83
 600.815960693 257.690252686 600.815960693 257.690252686 564.742338926 286.300366501 c 128,-1,84
 528.668717158 314.910480317 528.668717158 314.910480317 532.8984375 336.057617188 c 0,85,86
 537.286386889 358.000293827 537.286386889 358.000293827 526.377685547 364.666503906 c 128,-1,55
 515.468984205 371.332713986 515.468984205 371.332713986 495.28125 359.044921875 c 128,-1,56
606.041015625 425.91796875 m 0,87,88
 594.755894253 444.72650437 594.755894253 444.72650437 577.515180316 456.220185779 c 128,-1,89
 560.27446638 467.713867188 560.27446638 467.713867188 543.346679688 467.713867188 c 0,90,91
 503.085342182 467.713867188 503.085342182 467.713867188 506.171502372 451.443786808 c 0,92,93
 509.926307891 431.648642086 509.926307891 431.648642086 568.424804688 408.708007812 c 0,94,95
 613.101024199 391.188490283 613.101024199 391.188490283 611.775827972 411.089754453 c 0,96,97
 611.381101752 417.017594137 611.381101752 417.017594137 606.041015625 425.91796875 c 0,87,88
794.122070312 382.032226562 m 128,-1,99
 794.122070312 400.84079956 794.122070312 400.84079956 782.180551874 413.379384155 c 128,-1,100
 770.239033436 425.91796875 770.239033436 425.91796875 752.326171875 425.91796875 c 0,101,102
 711.575683594 425.91796875 711.575683594 425.91796875 711.575683594 407.524780273 c 128,-1,103
 711.575683594 389.131591797 711.575683594 389.131591797 752.326171875 363.961914062 c 0,104,105
 770.239013672 352.898664478 770.239013672 352.898664478 782.180541992 358.061523438 c 128,-1,98
 794.122070312 363.224382397 794.122070312 363.224382397 794.122070312 382.032226562 c 128,-1,99
165.09375 -211.469726562 m 0,106,107
 163.003750313 -180.119731257 163.003750313 -180.119731257 125.387695312 -96.5302734375 c 0,108,109
 103.01696531 -46.8185013178 103.01696531 -46.8185013178 95.8628301326 -46.5543465894 c 0,110,111
 87.1664073671 -46.2332454168 87.1664073671 -46.2332454168 85.681640625 -127.877929688 c 0,112,113
 84.8269001916 -174.898175052 84.8269001916 -174.898175052 96.5581444761 -208.857290651 c 128,-1,114
 108.28938876 -242.81640625 108.28938876 -242.81640625 125.387695312 -242.81640625 c 0,115,116
 144.195538039 -242.81640625 144.195538039 -242.81640625 155.114859328 -234.195929827 c 128,-1,117
 166.034180618 -225.575453404 166.034180618 -225.575453404 165.09375 -211.469726562 c 0,106,107
EndSplineSet
EndChar

StartChar: seven
Encoding: 55 55 26
Width: 1139
GlyphClass: 1
Flags: W
LayerCount: 2
Back
Fore
SplineSet
293.236328125 632.618164062 m 0,0,1
 279.153822945 646.700669243 279.153822945 646.700669243 309.81907831 653.382329824 c 0,2,3
 327.638162236 657.264934722 327.638162236 657.264934722 353.745117188 655.890625 c 0,4,5
 408.041176558 653.033187484 408.041176558 653.033187484 404.202549066 641.921813988 c 0,6,7
 402.093885316 635.818030656 402.093885316 635.818030656 381.672851562 627.963867188 c 0,8,9
 357.236445912 618.565311901 357.236445912 618.565311901 330.875610352 619.952514648 c 128,-1,10
 304.514774791 621.339717396 304.514774791 621.339717396 293.236328125 632.618164062 c 0,0,1
1303.27246094 1596.109375 m 0,11,12
 1303.27246094 1614.95982143 1303.27246094 1614.95982143 1313.51249767 1626.47991071 c 128,-1,13
 1323.75253441 1638 1323.75253441 1638 1340.50878906 1638 c 0,14,15
 1373.90967342 1638 1373.90967342 1638 1380.78589373 1596.27970835 c 128,-1,16
 1387.66211403 1554.55941669 1387.66211403 1554.55941669 1366.78734846 1500.66690624 c 128,-1,17
 1345.91258288 1446.77439578 1345.91258288 1446.77439578 1307.92773438 1415.46289062 c 0,18,19
 1260.20164501 1376.12115936 1260.20164501 1376.12115936 1276.1219154 1378.34906352 c 0,20,21
 1281.80824586 1379.14481629 1281.80824586 1379.14481629 1296.29101562 1386.65429688 c 0,22,23
 1339.05357914 1408.82721733 1339.05357914 1408.82721733 1340.27061296 1379.9760768 c 0,24,25
 1341.06374363 1361.17403193 1341.06374363 1361.17403193 1326.54589844 1314.50878906 c 0,26,27
 1293.96028379 1209.77084418 1293.96028379 1209.77084418 1207.85449219 911.890625 c 2,28,-1
 1121.74511719 614 l 1,29,-1
 1261.38183594 614 l 2,30,31
 1357.67867999 614 1357.67867999 614 1375.42599614 587.864492153 c 0,32,33
 1380.48935944 580.407952238 1380.48935944 580.407952238 1375.41796875 572.109375 c 0,34,35
 1364.4469939 554.156204866 1364.4469939 554.156204866 1380.4054256 535.537806693 c 128,-1,36
 1396.36385729 516.919408519 1396.36385729 516.919408519 1431.27246094 506.9453125 c 0,37,38
 1469.01719792 496.161217551 1469.01719792 496.161217551 1418.65601141 487.664058563 c 0,39,40
 1377.80526314 480.771542185 1377.80526314 480.771542185 1296.29101562 479.018554688 c 2,41,-1
 1079.85449219 474.36328125 l 1,42,-1
 942.545898438 67.0908203125 l 2,43,44
 886.052941431 -100.472042104 886.052941431 -100.472042104 833.316663433 -220.326841364 c 128,-1,45
 780.580385435 -340.181640625 780.580385435 -340.181640625 763.345703125 -340.181640625 c 0,46,47
 746.428021017 -340.181640625 746.428021017 -340.181640625 715.904782859 -351.852267078 c 128,-1,48
 685.3815447 -363.52289353 685.3815447 -363.52289353 660.9453125 -379.334960938 c 0,49,50
 605.887307663 -414.960540021 605.887307663 -414.960540021 607.292450954 -382.34892397 c 0,51,52
 608.452381977 -355.428377567 608.452381977 -355.428377567 647.787109375 -279.672851562 c 0,53,54
 688.874052488 -200.541975505 688.874052488 -200.541975505 786.618164062 48.47265625 c 0,55,56
 865.066815272 248.328811166 865.066815272 248.328811166 842.582004973 254.000051712 c 0,57,58
 834.59268312 256.015161709 834.59268312 256.015161709 814.545898438 239.309570312 c 0,59,60
 755.291214578 189.930903897 755.291214578 189.930903897 749.557276379 208.152183163 c 0,61,62
 743.450941856 227.556861549 743.450941856 227.556861549 791.546875 353.345703125 c 0,63,64
 801.199033422 378.589761038 801.199033422 378.589761038 806.161781764 392.304425735 c 128,-1,65
 811.124530106 406.019090432 811.124530106 406.019090432 813.052669072 421.267799836 c 128,-1,66
 814.980808038 436.51650924 814.980808038 436.51650924 814.014420009 443.180856246 c 128,-1,67
 813.048031979 449.845203252 813.048031979 449.845203252 803.593165898 457.395073395 c 128,-1,68
 794.138299817 464.944943538 794.138299817 464.944943538 784.067039943 467.095052261 c 128,-1,69
 773.995780068 469.245160983 773.995780068 469.245160983 749.982173467 471.632271271 c 128,-1,70
 725.968566865 474.01938156 725.968566865 474.01938156 703.616699672 474.191331405 c 128,-1,71
 681.264832479 474.36328125 681.264832479 474.36328125 640 474.36328125 c 0,72,73
 559.709104476 474.36328125 559.709104476 474.36328125 480.20528144 488.190171417 c 128,-1,74
 400.701458405 502.017061584 400.701458405 502.017061584 372.36328125 520.909179688 c 0,75,76
 326.143643865 551.722545547 326.143643865 551.722545547 348.695657697 560.611086421 c 0,77,78
 366.057761815 567.454101562 366.057761815 567.454101562 432.873046875 567.454101562 c 0,79,80
 520.744744938 567.454101562 520.744744938 567.454101562 536.333304445 595.243687515 c 0,81,82
 541.258419619 604.023646394 541.258419619 604.023646394 535.272460938 614 c 0,83,84
 522.655438901 635.028609727 522.655438901 635.028609727 568.546495473 647.552364534 c 0,85,86
 616.158973413 660.545898438 616.158973413 660.545898438 712.145507812 660.545898438 c 0,87,88
 720.750434777 660.545898438 720.750434777 660.545898438 736.941121787 660.493760883 c 0,89,90
 796.234625958 660.302822828 796.234625958 660.302822828 819.639006185 659.851949185 c 128,-1,91
 843.043386412 659.401075543 843.043386412 659.401075543 878.551626123 677.31103931 c 128,-1,92
 914.059865833 695.221003078 914.059865833 695.221003078 925.015616276 708.328447797 c 128,-1,93
 935.971366719 721.435892516 935.971366719 721.435892516 966.197629664 782.170597065 c 128,-1,94
 996.42389261 842.905301613 996.42389261 842.905301613 1013.71229974 892.040969928 c 128,-1,95
 1031.00070687 941.176638242 1031.00070687 941.176638242 1075.0042783 1064.95205508 c 0,96,97
 1087.0194445 1098.74890737 1087.0194445 1098.74890737 1093.41113281 1116.69042969 c 2,98,-1
 1196.21777344 1405.27246094 l 1,99,-1
 781.963867188 1405.27246094 l 2,100,101
 583.596592836 1405.27246094 583.596592836 1405.27246094 401.89931097 1427.55490868 c 128,-1,102
 220.202029103 1449.83735642 220.202029103 1449.83735642 110.101014551 1486.60947934 c 128,-1,103
 0 1523.38160226 0 1523.38160226 0 1563.52734375 c 0,104,105
 0 1581.70471572 0 1581.70471572 184.436401367 1586.3157959 c 128,-1,106
 368.872802734 1590.92687608 368.872802734 1590.92687608 651.63671875 1579.81835938 c 128,-1,107
 934.399902344 1568.7096691 934.399902344 1568.7096691 1118.83618164 1573.32055664 c 128,-1,108
 1303.27246094 1577.93144418 1303.27246094 1577.93144418 1303.27246094 1596.109375 c 0,11,12
896 1512.32714844 m 0,109,110
 944.731021465 1520.99069818 944.731021465 1520.99069818 909.329206838 1527.43535561 c 0,111,112
 881.886211477 1532.4311646 881.886211477 1532.4311646 814.545898438 1533.27246094 c 0,113,114
 684.916647352 1534.89316654 684.916647352 1534.89316654 693.215035472 1521.72087799 c 0,115,116
 695.317726287 1518.38321172 695.317726287 1518.38321172 709.818359375 1514.65429688 c 0,117,118
 742.400101123 1506.27613471 742.400101123 1506.27613471 798.254638672 1505.57800293 c 128,-1,119
 854.10917622 1504.87987115 854.10917622 1504.87987115 896 1512.32714844 c 0,109,110
EndSplineSet
EndChar

StartChar: eight
Encoding: 56 56 27
Width: 1139
GlyphClass: 1
Flags: W
LayerCount: 2
Back
Fore
SplineSet
758.96484375 1581.78027344 m 0,0,1
 761.148186251 1605.79923821 761.148186251 1605.79923821 798.707519531 1606.25720215 c 128,-1,2
 836.266852811 1606.71516609 836.266852811 1606.71516609 923.607421875 1583.78808594 c 0,3,4
 1031.51291252 1555.46328229 1031.51291252 1555.46328229 1047.35281049 1529.20676751 c 0,5,6
 1051.9109697 1521.65107651 1051.9109697 1521.65107651 1044.078125 1516.81152344 c 0,7,8
 1029.96545748 1508.0913831 1029.96545748 1508.0913831 1029.69328625 1476.23653422 c 128,-1,9
 1029.42111503 1444.38168533 1029.42111503 1444.38168533 1040.86383875 1404.6644111 c 128,-1,10
 1052.30656247 1364.94713686 1052.30656247 1364.94713686 1068.80280188 1326.63562797 c 128,-1,11
 1085.29904129 1288.32411907 1085.29904129 1288.32411907 1106.26741687 1262.37787985 c 128,-1,12
 1127.23579246 1236.43164062 1127.23579246 1236.43164062 1144.47070312 1236.43164062 c 0,13,14
 1161.33614516 1236.43164062 1161.33614516 1236.43164062 1174.72849465 1207.31779463 c 128,-1,15
 1188.12084413 1178.20394864 1188.12084413 1178.20394864 1190.65136719 1136.0390625 c 0,16,17
 1193.93629357 1081.27930309 1193.93629357 1081.27930309 1145.10912042 1008.72301038 c 128,-1,18
 1096.28194728 936.166717666 1096.28194728 936.166717666 975.811523438 816.791992188 c 2,19,-1
 754.94921875 597.9375 l 1,20,-1
 963.764648438 377.07421875 l 2,21,22
 1172.58054129 156.211059741 1172.58054129 156.211059741 1234.82324219 180.305664062 c 0,23,24
 1270.96465956 194.295677502 1270.96465956 194.295677502 1276.69909668 187.559814453 c 128,-1,25
 1282.4335338 180.823951405 1282.4335338 180.823951405 1262.171875 148.180664062 c 0,26,27
 1237.95471347 109.16396328 1237.95471347 109.16396328 1228.8594894 82.9934160757 c 128,-1,28
 1219.76426534 56.8228688712 1219.76426534 56.8228688712 1210.53515625 -0.400390625 c 0,29,30
 1207.4522552 -19.5144698131 1207.4522552 -19.5144698131 1078.95104689 -121.008174745 c 128,-1,31
 950.449838573 -222.501879677 950.449838573 -222.501879677 813.934369781 -316.250939838 c 128,-1,32
 677.41890099 -410 677.41890099 -410 654.556640625 -410 c 0,33,34
 626.011376701 -410 626.011376701 -410 502.187035347 -290.803206472 c 128,-1,35
 378.362693993 -171.606412943 378.362693993 -171.606412943 270.750139132 -44.9617674866 c 128,-1,36
 163.137584271 81.6828779701 163.137584271 81.6828779701 174.446289062 99.9921875 c 0,37,38
 183.682937032 114.946661798 183.682937032 114.946661798 179.043945312 142.606689453 c 128,-1,39
 174.404953593 170.266717108 174.404953593 170.266717108 158.619140625 194.360351562 c 0,40,41
 121.350361787 248.561889119 121.350361787 248.561889119 120.470703125 202.392578125 c 0,42,43
 120.470703125 182.31406102 120.470703125 182.31406102 102.39996005 167.255175041 c 128,-1,44
 84.3292169745 152.196289062 84.3292169745 152.196289062 60.2353515625 152.196289062 c 0,45,46
 -72.6744850469 152.196289062 -72.6744850469 152.196289062 98.7741315335 301.257405631 c 0,47,48
 122.753069842 322.105210586 122.753069842 322.105210586 152.595703125 345.676757812 c 0,49,50
 461.80461238 589.905348558 461.80461238 589.905348558 526.0546875 525.655273438 c 0,51,52
 543.382324109 508.327163046 543.382324109 508.327163046 508.695048038 457.24317541 c 128,-1,53
 474.007771966 406.159187775 474.007771966 406.159187775 406.59726967 346.637358444 c 128,-1,54
 339.186767375 287.115529114 339.186767375 287.115529114 269.05078125 247.234375 c 0,55,56
 253.113514292 238.171793193 253.113514292 238.171793193 245.592889249 229.629663613 c 128,-1,57
 238.072264206 221.087534034 238.072264206 221.087534034 238.659470777 206.070206178 c 128,-1,58
 239.246677348 191.052878323 239.246677348 191.052878323 247.900180916 173.704623827 c 128,-1,59
 256.553684483 156.356369331 256.553684483 156.356369331 278.970017652 125.257199813 c 128,-1,60
 301.386350821 94.1580302941 301.386350821 94.1580302941 331.118279874 58.1715111248 c 128,-1,61
 360.850208927 22.1849919555 360.850208927 22.1849919555 409.599609375 -34.533203125 c 2,62,-1
 618.416015625 -277.482421875 l 1,63,-1
 752.94140625 -193.153320312 l 2,64,65
 807.152970479 -159.16974399 807.152970479 -159.16974399 879.675075459 -107.025703388 c 128,-1,66
 952.197180438 -54.8816627855 952.197180438 -54.8816627855 995.890625 -18.470703125 c 2,67,-1
 1104.31347656 71.8828125 l 1,68,-1
 993.8828125 156.211914062 l 2,69,70
 948.706086124 190.710611647 948.706086124 190.710611647 922.604040894 226.303949028 c 128,-1,71
 896.501995664 261.897286409 896.501995664 261.897286409 905.537109375 276.682617188 c 0,72,73
 917.967389064 297.022425313 917.967389064 297.022425313 898.296332913 297.308612091 c 0,74,75
 889.168215377 297.441413631 889.168215377 297.441413631 875.419921875 291.942382812 c 0,76,77
 825.875268312 272.124521387 825.875268312 272.124521387 679.676939901 424.991636463 c 128,-1,78
 533.478611491 577.858751538 533.478611491 577.858751538 336.981445312 854.94140625 c 0,79,80
 176.199444559 1081.66220534 176.199444559 1081.66220534 142.227021209 1147.2835557 c 0,81,82
 100.084137931 1228.68701874 100.084137931 1228.68701874 126.169532859 1269.58613469 c 0,83,84
 145.661043043 1300.14674292 145.661043043 1300.14674292 231.456043121 1342.33322458 c 0,85,86
 243.378693696 1348.19574197 243.378693696 1348.19574197 265.03515625 1358.58203125 c 0,87,88
 340.329064614 1394.69237506 340.329064614 1394.69237506 420.55904848 1421.7264278 c 128,-1,89
 500.789032345 1448.76048054 500.789032345 1448.76048054 540.109375 1451.27050781 c 0,90,91
 565.789556178 1452.90959677 565.789556178 1452.90959677 584.571640116 1459.12658413 c 128,-1,92
 603.353724054 1465.34357149 603.353724054 1465.34357149 610.878229676 1474.47204868 c 128,-1,93
 618.402735297 1483.60052587 618.402735297 1483.60052587 612.392578125 1493.43554688 c 0,94,95
 600.180043185 1513.41840639 600.180043185 1513.41840639 630.925735482 1514.04638321 c 0,96,97
 648.252558376 1514.40028134 648.252558376 1514.40028134 674.635742188 1507.49023438 c 0,98,99
 698.394647158 1501.26738889 698.394647158 1501.26738889 717.459336726 1499.5982099 c 128,-1,100
 736.524026294 1497.92903092 736.524026294 1497.92903092 747.02341067 1501.04046197 c 128,-1,101
 757.522795047 1504.15189302 757.522795047 1504.15189302 756.95703125 1511.50585938 c 0,102,103
 754.948581351 1537.60317763 754.948581351 1537.60317763 758.96484375 1581.78027344 c 0,0,1
883.451171875 1401.07421875 m 0,104,105
 883.451171875 1417.33760845 883.451171875 1417.33760845 874.616471983 1426.97202746 c 128,-1,106
 865.78177209 1436.60644648 865.78177209 1436.60644648 851.325195312 1436.10839844 c 0,107,108
 812.171993255 1434.75780816 812.171993255 1434.75780816 578.086930167 1334.92085324 c 128,-1,109
 344.001867079 1235.08389833 344.001867079 1235.08389833 317.239257812 1208.32128906 c 0,110,111
 303.976510303 1195.05854155 303.976510303 1195.05854155 351.133065062 1121.37601681 c 128,-1,112
 398.289619821 1047.69349207 398.289619821 1047.69349207 477.866210938 957.340820312 c 2,113,-1
 670.619140625 738.486328125 l 1,114,-1
 877.427734375 931.239257812 l 1,115,-1
 1084.23535156 1123.9921875 l 1,116,-1
 983.842773438 1244.46289062 l 2,117,118
 941.176501052 1295.66256397 941.176501052 1295.66256397 912.313836464 1340.68854012 c 128,-1,119
 883.451171875 1385.71451626 883.451171875 1385.71451626 883.451171875 1401.07421875 c 0,104,105
1160.53320312 1065.76464844 m 0,120,121
 1171.80950427 1072.81219383 1171.80950427 1072.81219383 1151.67556877 1075.08763651 c 0,122,123
 1145.33948459 1075.80371094 1145.33948459 1075.80371094 1136.43945312 1075.80371094 c 0,124,125
 1120.37660886 1075.80371094 1120.37660886 1075.80371094 1085.44004037 1048.69800748 c 128,-1,126
 1050.50347188 1021.59230403 1050.50347188 1021.59230403 1019.984375 985.451171875 c 2,127,-1
 943.686523438 895.09765625 l 1,128,-1
 1044.078125 975.412109375 l 2,129,130
 1144.46810205 1055.72374225 1144.46810205 1055.72374225 1160.53320312 1065.76464844 c 0,120,121
240.94140625 312.823242188 m 0,131,132
 240.94140625 330.894217355 240.94140625 330.894217355 235.971817453 341.937343052 c 128,-1,133
 231.002228656 352.98046875 231.002228656 352.98046875 222.870117188 352.98046875 c 0,134,135
 204.799088563 352.98046875 204.799088563 352.98046875 180.706054688 312.823242188 c 0,136,137
 170.379749756 295.613525391 170.379749756 295.613525391 175.54284668 284.140258789 c 128,-1,138
 180.705943604 272.666992188 180.705943604 272.666992188 198.776367188 272.666992188 c 128,-1,139
 216.846751708 272.666992188 216.846751708 272.666992188 228.894078979 284.140293084 c 128,-1,140
 240.94140625 295.61359398 240.94140625 295.61359398 240.94140625 312.823242188 c 0,131,132
EndSplineSet
EndChar

StartChar: nine
Encoding: 57 57 28
Width: 1139
GlyphClass: 1
Flags: W
LayerCount: 2
Back
Fore
SplineSet
618.666992188 1467.33300781 m 128,-1,1
 607.146861049 1486.53344727 607.146861049 1486.53344727 611.840209961 1498.26672363 c 128,-1,2
 616.533558873 1510 616.533558873 1510 635.733398438 1510 c 128,-1,3
 654.933217076 1510 654.933217076 1510 673.706510184 1498.26666783 c 128,-1,4
 692.479803292 1486.53333566 692.479803292 1486.53333566 704 1467.33300781 c 128,-1,5
 715.52015904 1448.13330078 715.52015904 1448.13330078 710.826782227 1436.40014648 c 128,-1,6
 706.133405413 1424.66699219 706.133405413 1424.66699219 686.93359375 1424.66699219 c 128,-1,7
 667.733154297 1424.66699219 667.733154297 1424.66699219 648.959838867 1436.40014648 c 128,-1,0
 630.186523438 1448.13330078 630.186523438 1448.13330078 618.666992188 1467.33300781 c 128,-1,1
140.799804688 1573.20507812 m 0,8,9
 201.068581091 1615.50541603 201.068581091 1615.50541603 303.323220422 1630.19394313 c 128,-1,10
 405.577859753 1644.88247023 405.577859753 1644.88247023 506.678442786 1632.9669608 c 128,-1,11
 607.779025819 1621.05145138 607.779025819 1621.05145138 696.864388635 1583.81201564 c 128,-1,12
 785.94975145 1546.57257989 785.94975145 1546.57257989 821.887695312 1492.93359375 c 0,13,14
 834.797225312 1473.6659774 834.797225312 1473.6659774 844.065116562 1400.10003488 c 128,-1,15
 853.333007812 1326.53409236 853.333007812 1326.53409236 853.333007812 1243.33300781 c 128,-1,16
 853.333007812 1160.13354183 853.333007812 1160.13354183 865.908569662 1100.40026701 c 128,-1,17
 878.484131511 1040.66699219 878.484131511 1040.66699219 896 1040.66699219 c 0,18,19
 913.230917824 1040.66699219 913.230917824 1040.66699219 925.948955006 991.066726845 c 128,-1,20
 938.666992188 941.466461503 938.666992188 941.466461503 938.666992188 874.266601562 c 0,21,22
 938.666992188 781.384654661 938.666992188 781.384654661 916.592928766 677.963399334 c 128,-1,23
 894.518865345 574.542144007 894.518865345 574.542144007 862.978360296 512.064595458 c 128,-1,24
 831.437855247 449.587046908 831.437855247 449.587046908 806.400390625 464.995117188 c 0,25,26
 792.178178499 473.746853344 792.178178499 473.746853344 767.911201068 457.473230513 c 128,-1,27
 743.644223636 441.199607681 743.644223636 441.199607681 723.200195312 409.200195312 c 0,28,29
 697.728869957 369.332488308 697.728869957 369.332488308 693.545519762 369.571429819 c 0,30,31
 686.3087251 369.984775718 686.3087251 369.984775718 744.623046875 550 c 0,32,33
 755.518725853 583.634763416 755.518725853 583.634763416 744.657894932 575.998669205 c 0,34,35
 732.959015269 567.773354961 732.959015269 567.773354961 704 518 c 0,36,37
 676.072945463 470.000329238 676.072945463 470.000329238 663.466856737 422.727397334 c 128,-1,38
 650.860768011 375.454465429 650.860768011 375.454465429 661.333007812 358 c 0,39,40
 672.056499021 340.127514652 672.056499021 340.127514652 646.558582831 277.109736126 c 128,-1,41
 621.060666641 214.091957599 621.060666641 214.091957599 578.646820815 148.775680541 c 128,-1,42
 536.232974988 83.4594034819 536.232974988 83.4594034819 503.466796875 59.677734375 c 0,43,44
 491.123768971 50.7185652955 491.123768971 50.7185652955 456.075662988 -16.9747377667 c 128,-1,45
 421.027557006 -84.668040829 421.027557006 -84.668040829 384 -171.06640625 c 0,46,47
 322.797480518 -313.87349563 322.797480518 -313.87349563 284.15897624 -348.238061111 c 0,48,49
 273.614558675 -357.616124125 273.614558675 -357.616124125 268.799804688 -352.400390625 c 0,50,51
 258.461632905 -341.200226044 258.461632905 -341.200226044 234.297363281 -346.659423828 c 128,-1,52
 210.133093657 -352.118621613 210.133093657 -352.118621613 187.733398438 -370.71484375 c 0,53,54
 128.753733816 -419.678935162 128.753733816 -419.678935162 131.684512367 -390.126005585 c 0,55,56
 135.431041184 -352.347340179 135.431041184 -352.347340179 228.474609375 -226.533203125 c 0,57,58
 344.238788841 -69.9974368644 344.238788841 -69.9974368644 361.271788514 -19.1218725548 c 0,59,60
 365.877336752 -5.36564229448 365.877336752 -5.36564229448 356.284139109 -11.3968915872 c 0,61,62
 342.175772782 -20.2668302256 342.175772782 -20.2668302256 301.9609375 -68.6669921875 c 0,63,64
 264.737038438 -113.467067624 264.737038438 -113.467067624 239.035023125 -153.680071007 c 128,-1,65
 213.333007812 -193.893074389 213.333007812 -193.893074389 213.333007812 -207.333007812 c 0,66,67
 213.333007812 -221.73311942 213.333007812 -221.73311942 201.599876767 -230.533063616 c 128,-1,68
 189.866745721 -239.333007812 189.866745721 -239.333007812 170.666992188 -239.333007812 c 0,69,70
 145.740774787 -239.333007812 145.740774787 -239.333007812 199.078579721 -123.146588039 c 0,71,72
 223.28245681 -70.4229743262 223.28245681 -70.4229743262 257.96875 -8.93359375 c 0,73,74
 344.615006746 144.666289036 344.615006746 144.666289036 470.974007279 440.155781025 c 128,-1,75
 597.333007812 735.645273013 597.333007812 735.645273013 597.333007812 784.666992188 c 0,76,77
 597.333007812 795.333344969 597.333007812 795.333344969 552.533081055 797.443481445 c 128,-1,78
 507.733154297 799.553617922 507.733154297 799.553617922 443.733398438 791.901367188 c 0,79,80
 317.239158362 776.776872769 317.239158362 776.776872769 225.725093349 838.321820216 c 128,-1,81
 134.211028336 899.866767663 134.211028336 899.866767663 54.798828125 1053.46679688 c 0,82,83
 15.0293540565 1130.38908806 15.0293540565 1130.38908806 13.3674050823 1237.15748707 c 128,-1,84
 11.7054561081 1343.92588609 11.7054561081 1343.92588609 46.5547954385 1437.72141918 c 128,-1,85
 81.404134769 1531.51695227 81.404134769 1531.51695227 140.799804688 1573.20507812 c 0,8,9
214.59375 1488.66699219 m 0,86,87
 306.601991343 1587.40696031 306.601991343 1587.40696031 283.192172868 1590.59162467 c 0,88,89
 262.201039872 1593.44725181 262.201039872 1593.44725181 162.133789062 1512.54199219 c 0,90,91
 120.533829507 1478.9078265 120.533829507 1478.9078265 99.6409201786 1448.67988341 c 128,-1,92
 78.7480108501 1418.45194032 78.7480108501 1418.45194032 89.599609375 1407.59960938 c 128,-1,93
 100.351576392 1396.84764236 100.351576392 1396.84764236 136.600131571 1420.3573218 c 128,-1,94
 172.84868675 1443.86700124 172.84868675 1443.86700124 214.59375 1488.66699219 c 0,86,87
710.892578125 1497.20019531 m 0,95,96
 683.323486328 1542.00024414 683.323486328 1542.00024414 655.795288086 1543.4979248 c 128,-1,97
 628.267089844 1544.99560547 628.267089844 1544.99560547 490.666992188 1509.18164062 c 0,98,99
 409.351599476 1488.01781229 409.351599476 1488.01781229 410.244226755 1479.64460019 c 0,100,101
 410.891827646 1473.5698367 410.891827646 1473.5698367 452.266601562 1471.59960938 c 0,102,103
 489.898289903 1469.8081125 489.898289903 1469.8081125 546.815634242 1444.44294314 c 128,-1,104
 603.732978581 1419.07777378 603.732978581 1419.07777378 648.533203125 1384.13378906 c 0,105,106
 726.625071014 1323.22168138 726.625071014 1323.22168138 740.763088359 1325.08051163 c 0,107,108
 752.92853537 1326.67999339 752.92853537 1326.67999339 748.799804688 1373.46679688 c 0,109,110
 746.259043842 1402.26623683 746.259043842 1402.26623683 734.831086199 1439.56825652 c 128,-1,111
 723.403128556 1476.8702762 723.403128556 1476.8702762 710.892578125 1497.20019531 c 0,95,96
614.400390625 1335.41699219 m 0,112,113
 556.290600897 1381.1884722 556.290600897 1381.1884722 492.159736245 1404.24001924 c 128,-1,114
 428.028871593 1427.29156628 428.028871593 1427.29156628 371.866802818 1424.38058233 c 128,-1,115
 315.704734042 1421.46959838 315.704734042 1421.46959838 269.878392495 1399.78359736 c 128,-1,116
 224.052050948 1378.09759635 224.052050948 1378.09759635 197.359521568 1333.14189483 c 128,-1,117
 170.666992188 1288.1861933 170.666992188 1288.1861933 170.666992188 1228.40039062 c 0,118,119
 170.666992188 1121.67042941 170.666992188 1121.67042941 248.533313075 1059.8352147 c 128,-1,120
 326.399633963 998 326.399633963 998 460.799804688 998 c 2,121,-1
 618.666992188 998 l 1,122,-1
 473.599609375 925.466796875 l 2,123,124
 379.049741202 878.191862789 379.049741202 878.191862789 368.670172709 850.140447166 c 0,125,126
 365.219180575 840.813930873 365.219180575 840.813930873 375.466796875 837.428710938 c 0,127,128
 403.866760757 828.046559284 403.866760757 828.046559284 468.823351598 859.642252028 c 128,-1,129
 533.779942439 891.237944771 533.779942439 891.237944771 582.333874964 934.636719327 c 128,-1,130
 630.887807489 978.035493882 630.887807489 978.035493882 618.504882812 998 c 0,131,132
 610.035959968 1011.65296123 610.035959968 1011.65296123 622.884571442 1037.75388183 c 128,-1,133
 635.733182917 1063.85480243 635.733182917 1063.85480243 661.333007812 1085.00292969 c 0,134,135
 729.828444007 1141.58612267 729.828444007 1141.58612267 718.514404297 1201.95373535 c 128,-1,136
 707.200364586 1262.32134803 707.200364586 1262.32134803 614.400390625 1335.41699219 c 0,112,113
857.599609375 650.266601562 m 0,137,138
 874.793833394 707.86608016 874.793833394 707.86608016 882.239835449 784.921170238 c 128,-1,139
 889.685837504 861.976260315 889.685837504 861.976260315 882.543945312 908.400390625 c 0,140,141
 871.04035268 983.173191533 871.04035268 983.173191533 863.430244809 982.665911304 c 0,142,143
 850.880389284 981.829353705 850.880389284 981.829353705 831.094726562 720.666992188 c 0,144,145
 818.97374947 560.66452171 818.97374947 560.66452171 825.625860312 560.891154344 c 0,146,147
 830.975119032 561.073399744 830.975119032 561.073399744 857.599609375 650.266601562 c 0,137,138
EndSplineSet
EndChar

StartChar: question
Encoding: 63 63 34
Width: 521
GlyphClass: 1
Flags: W
LayerCount: 2
Fore
SplineSet
414 1814 m 2,0,-1
 453 1814 l 2,1,2
 547 1814 547 1814 611 1674 c 1,3,4
 667 1655 667 1655 667 1603 c 1,5,6
 659 1567 659 1567 634 1514 c 1,7,8
 588 1349 588 1349 587 1255 c 1,9,10
 544 1090 544 1090 444 997 c 1,11,12
 402 952 402 952 296 881 c 1,13,14
 231 803 231 803 186 712 c 0,15,16
 120 577 120 577 120 489 c 0,17,18
 120 452 120 452 138 400 c 1,19,-1
 135 397 l 1,20,-1
 34 418 l 1,21,22
 35 410 35 410 70 379 c 0,23,24
 97 352 97 352 97 326 c 1,25,-1
 91 320 l 1,26,27
 51 336 51 336 19 394 c 1,28,29
 19 427 19 427 -13 427 c 0,30,31
 -25 427 -25 427 -25 462 c 2,32,-1
 -25 492 l 2,33,34
 -25 547 -25 547 46 691 c 1,35,36
 66 753 66 753 108 780 c 1,37,38
 151 802 151 802 174 881 c 1,39,40
 197 1038 197 1038 400 1324 c 1,41,42
 459 1434 459 1434 459 1547 c 2,43,-1
 459 1556 l 2,44,45
 459 1576 459 1576 438 1585 c 1,46,47
 390 1573 390 1573 135 1333 c 0,48,49
 102 1306 102 1306 79 1306 c 2,50,-1
 67 1306 l 1,51,-1
 43 1312 l 1,52,53
 -59 1125 -59 1125 -96 1125 c 2,54,-1
 -99 1125 l 2,55,56
 -108 1128 -108 1128 -108 1143 c 2,57,-1
 -108 1172 l 1,58,-1
 -105 1208 l 1,59,-1
 -138 1193 l 1,60,-1
 -141 1193 l 1,61,-1
 -147 1202 l 1,62,-1
 -147 1208 l 2,63,64
 -147 1316 -147 1316 -25 1428 c 1,65,66
 84 1596 84 1596 171 1698 c 1,67,68
 296 1814 296 1814 414 1814 c 2,0,-1
414 1775 m 1,69,-1
 414 1772 l 1,70,-1
 429 1769 l 1,71,-1
 435 1769 l 1,72,-1
 441 1775 l 1,73,-1
 414 1775 l 1,69,-1
343 1743 m 1,74,-1
 343 1740 l 1,75,-1
 364 1734 l 1,76,77
 382 1740 382 1740 382 1746 c 2,78,-1
 382 1749 l 1,79,-1
 343 1743 l 1,74,-1
471 1746 m 1,80,81
 531 1671 531 1671 560 1671 c 1,82,-1
 560 1680 l 1,83,84
 545 1749 545 1749 492 1749 c 1,85,-1
 471 1746 l 1,80,81
403 1725 m 1,86,87
 403 1695 403 1695 453 1686 c 1,88,-1
 486 1686 l 1,89,90
 465 1734 465 1734 423 1734 c 1,91,-1
 403 1725 l 1,86,87
174 1579 m 1,92,-1
 174 1576 l 1,93,-1
 177 1576 l 2,94,95
 194 1578 194 1578 269 1660 c 1,96,97
 293 1667 293 1667 325 1710 c 1,98,-1
 325 1713 l 1,99,100
 251 1713 251 1713 174 1579 c 1,92,-1
278 1624 m 1,101,-1
 281 1621 l 1,102,-1
 290 1621 l 2,103,104
 334 1621 334 1621 409 1668 c 1,105,-1
 412 1668 l 1,106,-1
 412 1671 l 1,107,108
 390 1698 390 1698 373 1698 c 1,109,110
 343 1686 343 1686 278 1624 c 1,101,-1
459 1657 m 1,111,112
 468 1647 468 1647 468 1639 c 1,113,-1
 474 1639 l 1,114,-1
 492 1657 l 1,115,-1
 459 1657 l 1,111,112
391 1624 m 1,116,-1
 409 1618 l 1,117,-1
 426 1618 l 2,118,119
 442 1618 442 1618 444 1627 c 0,120,121
 440 1648 440 1648 435 1648 c 0,122,123
 419 1646 419 1646 391 1624 c 1,116,-1
477 1603 m 0,124,125
 484 1581 484 1581 524 1538 c 1,126,-1
 545 1570 l 1,127,-1
 521 1624 l 1,128,-1
 513 1624 l 1,129,130
 477 1615 477 1615 477 1603 c 0,124,125
602 1618 m 1,131,132
 584 1578 584 1578 584 1526 c 1,133,-1
 593 1460 l 1,134,-1
 596 1460 l 1,135,136
 611 1517 611 1517 611 1567 c 2,137,-1
 611 1579 l 2,138,139
 611 1618 611 1618 602 1618 c 1,131,132
73 1348 m 1,140,-1
 73 1345 l 1,141,-1
 79 1339 l 1,142,143
 131 1350 131 1350 284 1505 c 0,144,145
 351 1575 351 1575 388 1588 c 1,146,-1
 388 1594 l 1,147,-1
 364 1600 l 1,148,149
 338 1600 338 1600 171 1440 c 1,150,151
 76 1371 76 1371 76 1359 c 2,152,-1
 73 1348 l 1,140,-1
141 1460 m 1,153,-1
 141 1458 l 1,154,-1
 144 1458 l 1,155,156
 179 1472 179 1472 281 1585 c 1,157,158
 218 1585 218 1585 141 1460 c 1,153,-1
106 1541 m 1,159,-1
 111 1541 l 1,160,-1
 120 1556 l 1,161,-1
 117 1556 l 2,162,163
 111 1554 111 1554 106 1541 c 1,159,-1
486 1550 m 1,164,-1
 480 1499 l 1,165,-1
 480 1458 l 1,166,167
 501 1471 501 1471 501 1508 c 2,168,-1
 501 1514 l 2,169,170
 501 1537 501 1537 486 1550 c 1,164,-1
518 1407 m 2,171,-1
 518 1404 l 1,172,-1
 521 1404 l 1,173,174
 539 1453 539 1453 554 1523 c 1,175,176
 518 1489 518 1489 518 1407 c 2,171,-1
108 1463 m 1,177,-1
 147 1517 l 1,178,-1
 144 1517 l 2,179,180
 122 1517 122 1517 108 1463 c 1,177,-1
-1 1383 m 2,181,-1
 -1 1377 l 1,182,-1
 13 1374 l 1,183,-1
 22 1374 l 2,184,185
 43 1374 43 1374 43 1386 c 1,186,-1
 79 1475 l 1,187,-1
 76 1475 l 1,188,189
 -1 1437 -1 1437 -1 1383 c 2,181,-1
563 1425 m 1,190,191
 552 1387 552 1387 468 1202 c 1,192,-1
 468 1199 l 1,193,-1
 471 1199 l 1,194,195
 566 1349 566 1349 566 1422 c 2,196,-1
 566 1425 l 1,197,-1
 563 1425 l 1,190,191
311 1012 m 1,198,199
 366 1065 366 1065 420 1184 c 1,200,201
 469 1268 469 1268 492 1416 c 1,202,203
 448 1373 448 1373 385 1157 c 1,204,-1
 311 1012 l 1,198,199
-28 1351 m 1,205,206
 -81 1226 -81 1226 -81 1193 c 2,207,-1
 -81 1172 l 1,208,209
 -29 1222 -29 1222 31 1342 c 1,210,-1
 28 1342 l 1,211,-1
 13 1339 l 1,212,-1
 -28 1351 l 1,205,206
560 1300 m 1,213,214
 495 1170 495 1170 346 961 c 1,215,-1
 346 958 l 1,216,-1
 349 958 l 1,217,218
 493 1052 493 1052 551 1226 c 1,219,-1
 563 1297 l 1,220,-1
 563 1300 l 1,221,-1
 560 1300 l 1,213,214
192 875 m 1,222,-1
 192 872 l 1,223,-1
 195 872 l 1,224,225
 318 1052 318 1052 400 1270 c 1,226,227
 256 1097 256 1097 192 875 c 1,222,-1
162 736 m 1,228,-1
 162 733 l 1,229,230
 178 747 178 747 212 813 c 1,231,-1
 209 813 l 2,232,233
 181 813 181 813 162 736 c 1,228,-1
114 697 m 1,234,235
 34 594 34 594 34 545 c 1,236,-1
 31 528 l 1,237,-1
 34 489 l 1,238,-1
 40 489 l 1,239,240
 88 543 88 543 114 667 c 1,241,-1
 117 694 l 1,242,-1
 117 697 l 1,243,-1
 114 697 l 1,234,235
10 492 m 1,244,-1
 10 444 l 1,245,-1
 13 424 l 1,246,-1
 25 424 l 1,247,-1
 22 427 l 1,248,-1
 22 456 l 1,249,-1
 13 492 l 1,250,-1
 10 492 l 1,244,-1
61 477 m 1,251,-1
 52 444 l 1,252,-1
 52 439 l 1,253,-1
 61 430 l 1,254,255
 70 441 70 441 70 456 c 2,256,-1
 70 468 l 1,257,-1
 61 477 l 1,251,-1
64 314 m 1,258,-1
 67 314 l 1,259,-1
 126 290 l 1,260,-1
 126 284 l 1,261,262
 101 284 101 284 64 314 c 1,258,-1
117 127 m 2,263,-1
 132 127 l 1,264,-1
 135 124 l 1,265,-1
 138 124 l 1,266,267
 126 106 126 106 126 91 c 2,268,-1
 126 85 l 2,269,270
 126 46 126 46 156 8 c 1,271,-1
 162 8 l 1,272,273
 193 34 193 34 212 34 c 1,274,-1
 218 29 l 1,275,-1
 218 26 l 1,276,-1
 215 11 l 1,277,-1
 227 11 l 1,278,-1
 248 14 l 1,279,-1
 254 5 l 1,280,281
 235 -33 235 -33 207 -33 c 1,282,283
 215 -44 215 -44 287 -93 c 1,284,-1
 293 -105 l 1,285,-1
 293 -114 l 2,286,287
 293 -130 293 -130 278 -137 c 1,288,289
 144 -118 144 -118 144 -99 c 1,290,-1
 135 -93 l 1,291,292
 116 -93 116 -93 28 -161 c 1,293,-1
 10 -170 l 2,294,295
 5 -170 5 -170 -7 -155 c 1,296,297
 -51 -155 -51 -155 -51 -108 c 1,298,299
 1 -45 1 -45 40 -24 c 1,300,-1
 43 -21 l 1,301,-1
 34 -7 l 1,302,-1
 34 -1 l 1,303,-1
 40 5 l 1,304,-1
 58 5 l 1,305,-1
 117 -24 l 1,306,-1
 120 -24 l 1,307,-1
 94 97 l 1,308,-1
 94 100 l 2,309,310
 94 127 94 127 117 127 c 2,263,-1
-7 -105 m 2,311,-1
 -7 -122 l 1,312,313
 41 -122 41 -122 85 -60 c 1,314,-1
 85 -57 l 1,315,-1
 58 -54 l 1,316,317
 -7 -65 -7 -65 -7 -105 c 2,311,-1
EndSplineSet
EndChar

StartChar: A
Encoding: 65 65 36
Width: 565
GlyphClass: 1
Flags: W
LayerCount: 2
Fore
SplineSet
207 1742 m 2,0,1
 246 1742 246 1742 271 1550 c 1,2,3
 271 1502 271 1502 399 974 c 1,4,5
 451 597 451 597 479 498 c 1,6,-1
 511 498 l 1,7,8
 607 491 607 491 607 450 c 0,9,10
 607 411 607 411 499 378 c 1,11,12
 499 199 499 199 615 -86 c 1,13,14
 671 -297 671 -297 671 -462 c 2,15,-1
 671 -470 l 1,16,-1
 667 -470 l 2,17,18
 642 -470 642 -470 619 -346 c 1,19,-1
 615 -346 l 1,20,-1
 615 -350 l 1,21,22
 641 -628 641 -628 687 -694 c 1,23,-1
 683 -714 l 1,24,-1
 691 -762 l 1,25,-1
 683 -770 l 1,26,27
 639 -770 639 -770 615 -578 c 1,28,29
 515 -294 515 -294 483 -166 c 0,30,31
 451 -21 451 -21 403 386 c 0,32,33
 403 406 403 406 175 434 c 1,34,-1
 171 438 l 1,35,-1
 167 438 l 1,36,37
 160 386 160 386 127 386 c 1,38,-1
 119 402 l 1,39,-1
 127 438 l 1,40,41
 96 438 96 438 91 214 c 0,42,43
 91 96 91 96 119 -10 c 1,44,45
 161 18 161 18 167 190 c 1,46,-1
 183 318 l 1,47,-1
 191 318 l 1,48,-1
 195 270 l 1,49,50
 179 17 179 17 163 -6 c 1,51,52
 163 -45 163 -45 115 -50 c 1,53,-1
 95 -42 l 1,54,-1
 91 -86 l 1,55,-1
 99 -234 l 1,56,57
 96 -285 96 -285 67 -318 c 1,58,59
 21 -318 21 -318 7 34 c 1,60,-1
 7 58 l 2,61,62
 7 190 7 190 39 626 c 1,63,64
 7 640 7 640 7 646 c 2,65,-1
 7 674 l 1,66,-1
 15 682 l 1,67,-1
 31 682 l 1,68,-1
 35 678 l 1,69,-1
 39 678 l 1,70,71
 47 697 47 697 99 1210 c 1,72,73
 151 1605 151 1605 183 1742 c 1,74,-1
 207 1742 l 2,0,1
223 1506 m 1,75,76
 208 1316 208 1316 191 686 c 1,77,78
 185 686 185 686 183 590 c 1,79,80
 292 506 292 506 371 506 c 2,81,-1
 375 506 l 1,82,-1
 375 510 l 2,83,84
 375 592 375 592 271 930 c 0,85,86
 255 978 255 978 255 1038 c 2,87,-1
 255 1046 l 1,88,-1
 263 1054 l 1,89,90
 297 1054 297 1054 319 910 c 1,91,-1
 323 910 l 1,92,-1
 323 922 l 1,93,94
 283 1273 283 1273 227 1506 c 1,95,-1
 223 1506 l 1,75,76
175 1042 m 1,96,-1
 175 1038 l 1,97,-1
 123 650 l 2,98,99
 123 625 123 625 143 614 c 1,100,-1
 147 614 l 1,101,102
 167 716 167 716 183 1042 c 1,103,-1
 175 1042 l 1,96,-1
351 1030 m 1,104,-1
 351 1022 l 1,105,106
 395 685 395 685 423 594 c 1,107,-1
 427 594 l 1,108,-1
 427 598 l 1,109,110
 395 831 395 831 355 1030 c 1,111,-1
 351 1030 l 1,104,-1
331 870 m 1,112,-1
 331 842 l 1,113,-1
 339 842 l 1,114,-1
 335 870 l 1,115,-1
 331 870 l 1,112,-1
123 578 m 1,116,-1
 123 522 l 1,117,118
 143 528 143 528 143 550 c 256,119,120
 143 572 143 572 123 578 c 1,116,-1
171 542 m 1,121,-1
 171 518 l 1,122,-1
 215 510 l 1,123,-1
 219 514 l 1,124,-1
 219 518 l 1,125,126
 183 542 183 542 171 542 c 1,121,-1
491 442 m 1,127,-1
 491 410 l 1,128,-1
 499 402 l 1,129,-1
 503 402 l 2,130,131
 536 402 536 402 571 446 c 1,132,-1
 563 446 l 1,133,-1
 491 442 l 1,127,-1
43 226 m 1,134,-1
 43 102 l 1,135,-1
 47 102 l 1,136,-1
 51 190 l 1,137,-1
 51 198 l 1,138,-1
 47 226 l 1,139,-1
 43 226 l 1,134,-1
459 194 m 1,140,-1
 459 186 l 1,141,142
 511 -204 511 -204 571 -358 c 1,143,144
 579 -358 579 -358 579 -378 c 1,145,-1
 583 -378 l 1,146,-1
 583 -370 l 1,147,148
 531 -14 531 -14 471 170 c 1,149,150
 463 170 463 170 463 194 c 1,151,-1
 459 194 l 1,140,-1
47 -62 m 1,152,-1
 43 -102 l 2,153,154
 43 -132 43 -132 55 -170 c 1,155,-1
 59 -170 l 1,156,-1
 59 -134 l 1,157,-1
 63 -78 l 1,158,-1
 59 -62 l 1,159,-1
 47 -62 l 1,152,-1
EndSplineSet
EndChar

StartChar: B
Encoding: 66 66 37
Width: 961
GlyphClass: 1
Flags: W
LayerCount: 2
Fore
SplineSet
44 1779 m 1,0,-1
 56 1779 l 2,1,2
 85 1779 85 1779 112 1610 c 1,3,4
 237 1706 237 1706 399 1706 c 1,5,-1
 545 1723 l 1,6,7
 680 1707 680 1707 680 1638 c 1,8,-1
 657 1588 l 1,9,10
 781 1572 781 1572 781 1492 c 2,11,-1
 781 1475 l 2,12,13
 781 1398 781 1398 691 1329 c 1,14,-1
 691 1323 l 1,15,-1
 714 1323 l 1,16,-1
 809 1335 l 1,17,18
 867 1335 867 1335 922 1200 c 1,19,-1
 882 1070 l 1,20,-1
 877 1048 l 1,21,22
 877 1026 877 1026 933 958 c 1,23,24
 961 893 961 893 961 828 c 0,25,26
 961 635 961 635 697 283 c 1,27,28
 675 283 675 283 438 108 c 1,29,30
 385 78 385 78 342 69 c 1,31,-1
 348 24 l 1,32,33
 340 1 340 1 320 -9 c 1,34,35
 302 -9 302 -9 286 58 c 1,36,-1
 258 58 l 1,37,38
 241 52 241 52 241 24 c 2,39,-1
 241 -21 l 1,40,-1
 224 -37 l 1,41,-1
 219 -37 l 2,42,43
 205 -37 205 -37 185 24 c 1,44,-1
 179 24 l 1,45,-1
 185 -32 l 2,46,47
 185 -61 185 -61 168 -66 c 1,48,-1
 151 -66 l 2,49,50
 135 -66 135 -66 106 47 c 1,51,-1
 95 58 l 1,52,-1
 95 131 l 2,53,54
 95 239 95 239 39 868 c 1,55,-1
 11 868 l 1,56,-1
 -34 834 l 1,57,-1
 -57 834 l 1,58,-1
 -68 845 l 1,59,-1
 -68 851 l 2,60,61
 -68 879 -68 879 16 947 c 2,62,-1
 22 952 l 1,63,-1
 22 958 l 1,64,65
 -29 982 -29 982 -40 1014 c 1,66,-1
 16 1082 l 1,67,68
 -12 1205 -12 1205 -17 1329 c 1,69,-1
 -12 1413 l 1,70,-1
 -17 1413 l 2,71,72
 -73 1413 -73 1413 -141 1295 c 1,73,-1
 -147 1295 l 1,74,-1
 -147 1340 l 2,75,76
 -147 1400 -147 1400 -6 1532 c 1,77,-1
 -6 1537 l 1,78,-1
 -28 1689 l 1,79,-1
 -12 1712 l 1,80,-1
 -6 1712 l 2,81,82
 23 1712 23 1712 50 1577 c 1,83,-1
 56 1571 l 1,84,-1
 61 1571 l 1,85,-1
 61 1588 l 1,86,-1
 33 1751 l 1,87,-1
 33 1768 l 1,88,-1
 44 1779 l 1,0,-1
483 1667 m 1,89,-1
 483 1661 l 1,90,-1
 590 1593 l 1,91,-1
 624 1627 l 1,92,-1
 624 1644 l 1,93,94
 558 1667 558 1667 522 1667 c 2,95,-1
 483 1667 l 1,89,-1
202 1571 m 1,96,-1
 213 1571 l 1,97,-1
 489 1593 l 1,98,99
 462 1633 462 1633 387 1633 c 0,100,101
 287 1633 287 1633 202 1571 c 1,96,-1
635 1537 m 1,102,103
 691 1445 691 1445 691 1402 c 1,104,-1
 697 1402 l 1,105,106
 747 1444 747 1444 747 1487 c 1,107,108
 710 1537 710 1537 635 1537 c 1,102,103
140 1464 m 1,109,110
 175 1231 175 1231 202 1188 c 1,111,112
 202 1217 202 1217 500 1515 c 1,113,114
 479 1526 479 1526 416 1532 c 1,115,116
 346 1532 346 1532 140 1464 c 1,109,110
303 1228 m 1,117,-1
 309 1222 l 1,118,-1
 314 1228 l 1,119,-1
 326 1228 l 1,120,-1
 326 1217 l 1,121,122
 277 1196 277 1196 230 1132 c 1,123,-1
 230 1110 l 1,124,125
 596 1334 596 1334 596 1453 c 2,126,-1
 596 1458 l 2,127,128
 596 1489 596 1489 573 1498 c 1,129,130
 329 1306 329 1306 303 1228 c 1,117,-1
629 1402 m 1,131,132
 629 1387 629 1387 579 1318 c 1,133,-1
 579 1312 l 1,134,-1
 584 1312 l 2,135,136
 631 1312 631 1312 646 1380 c 1,137,-1
 641 1402 l 1,138,-1
 629 1402 l 1,131,132
747 1267 m 1,139,-1
 747 1262 l 1,140,-1
 792 1250 l 1,141,-1
 826 1262 l 1,142,-1
 826 1273 l 1,143,-1
 770 1284 l 1,144,-1
 747 1267 l 1,139,-1
646 1239 m 1,145,-1
 646 1233 l 1,146,-1
 652 1233 l 1,147,-1
 680 1239 l 1,148,-1
 680 1250 l 1,149,-1
 657 1250 l 1,150,-1
 646 1239 l 1,145,-1
522 1194 m 1,151,-1
 534 1194 l 1,152,153
 559 1205 559 1205 562 1217 c 2,154,-1
 562 1222 l 1,155,-1
 556 1222 l 1,156,157
 533 1214 533 1214 522 1194 c 1,151,-1
809 1200 m 1,158,-1
 809 1194 l 1,159,-1
 832 1166 l 1,160,-1
 837 1194 l 1,161,-1
 837 1200 l 1,162,-1
 809 1200 l 1,158,-1
556 1127 m 1,163,-1
 556 1115 l 1,164,-1
 792 1070 l 1,165,-1
 792 1082 l 2,166,167
 792 1147 792 1147 674 1172 c 1,168,-1
 624 1172 l 2,169,170
 586 1172 586 1172 556 1127 c 1,163,-1
213 992 m 1,171,172
 256 373 256 373 286 373 c 1,173,-1
 286 362 l 1,174,175
 499 610 499 610 759 1014 c 1,176,-1
 759 1025 l 1,177,178
 640 1065 640 1065 562 1065 c 0,179,180
 443 1065 443 1065 213 992 c 1,171,172
899 913 m 1,181,-1
 899 885 l 1,182,-1
 905 800 l 1,183,-1
 911 800 l 1,184,-1
 916 845 l 1,185,-1
 905 913 l 1,186,-1
 899 913 l 1,181,-1
297 243 m 1,187,-1
 314 238 l 1,188,189
 352 238 352 238 438 350 c 1,190,191
 528 388 528 388 567 508 c 1,192,193
 605 603 605 603 719 823 c 1,194,-1
 742 890 l 1,195,-1
 522 570 l 1,196,197
 345 358 345 358 297 243 c 1,187,-1
837 789 m 1,198,199
 830 715 830 715 629 463 c 1,200,201
 579 365 579 365 579 333 c 1,202,203
 764 458 764 458 832 671 c 1,204,-1
 849 783 l 1,205,-1
 843 789 l 1,206,-1
 837 789 l 1,198,199
770 772 m 1,207,-1
 753 727 l 1,208,-1
 764 727 l 1,209,-1
 776 767 l 1,210,-1
 776 772 l 1,211,-1
 770 772 l 1,207,-1
494 283 m 2,212,-1
 494 277 l 1,213,-1
 500 277 l 1,214,-1
 522 305 l 1,215,-1
 522 328 l 1,216,217
 494 313 494 313 494 283 c 2,212,-1
365 131 m 1,218,-1
 371 131 l 2,219,220
 421 131 421 131 449 176 c 1,221,-1
 449 187 l 1,222,-1
 444 187 l 1,223,224
 405 171 405 171 365 131 c 1,218,-1
EndSplineSet
EndChar

StartChar: C
Encoding: 67 67 38
Width: 814
GlyphClass: 1
Flags: W
LayerCount: 2
Fore
SplineSet
403 1617 m 2,0,-1
 443 1617 l 2,1,2
 521 1617 521 1617 602 1510 c 1,3,-1
 612 1479 l 1,4,5
 612 1449 612 1449 592 1428 c 1,6,7
 733 1268 733 1268 781 1014 c 1,8,-1
 781 1009 l 1,9,-1
 766 998 l 1,10,-1
 709 1024 l 1,11,-1
 709 1019 l 1,12,-1
 719 952 l 1,13,-1
 714 952 l 1,14,-1
 612 1116 l 1,15,-1
 581 1136 l 1,16,-1
 581 1131 l 1,17,18
 679 1008 679 1008 679 968 c 2,19,-1
 679 963 l 1,20,-1
 673 958 l 1,21,-1
 668 958 l 2,22,23
 599 958 599 958 392 1147 c 1,24,-1
 387 1147 l 1,25,-1
 387 1101 l 1,26,-1
 372 1085 l 1,27,28
 330 1085 330 1085 326 1188 c 1,29,30
 268 1234 268 1234 188 1234 c 0,31,32
 40 1234 40 1234 40 1014 c 2,33,-1
 40 947 l 1,34,-1
 45 758 l 1,35,-1
 70 758 l 1,36,-1
 60 508 l 1,37,38
 60 265 60 265 162 119 c 1,39,40
 176 42 176 42 229 42 c 1,41,-1
 229 48 l 1,42,-1
 162 135 l 1,43,-1
 157 165 l 1,44,-1
 157 181 l 1,45,-1
 167 191 l 1,46,-1
 300 48 l 1,47,48
 341 57 341 57 346 145 c 1,49,-1
 357 145 l 2,50,51
 367 145 367 145 367 129 c 1,52,53
 420 172 420 172 520 334 c 1,54,55
 602 414 602 414 602 426 c 0,56,57
 602 483 602 483 689 538 c 1,58,-1
 694 523 l 1,59,60
 694 452 694 452 622 227 c 1,61,-1
 627 227 l 2,62,63
 641 227 641 227 689 349 c 1,64,65
 716 375 716 375 730 375 c 1,66,-1
 735 370 l 1,67,-1
 735 365 l 2,68,69
 735 318 735 318 622 124 c 1,70,-1
 627 124 l 1,71,-1
 643 109 l 1,72,-1
 643 104 l 1,73,74
 528 -27 528 -27 438 -44 c 1,75,76
 438 -97 438 -97 377 -126 c 1,77,-1
 362 -162 l 1,78,79
 113 -82 113 -82 14 88 c 0,80,81
 -103 293 -103 293 -103 554 c 1,82,83
 -124 709 -124 709 -124 860 c 2,84,-1
 -124 917 l 2,85,86
 -124 1332 -124 1332 14 1433 c 1,87,88
 195 1484 195 1484 239 1551 c 1,89,90
 334 1617 334 1617 403 1617 c 2,0,-1
362 1566 m 1,91,-1
 362 1561 l 1,92,-1
 500 1520 l 1,93,94
 530 1464 530 1464 566 1464 c 1,95,-1
 566 1469 l 1,96,97
 537 1571 537 1571 418 1571 c 2,98,-1
 397 1571 l 1,99,-1
 362 1566 l 1,91,-1
326 1479 m 1,100,-1
 326 1474 l 1,101,-1
 382 1474 l 1,102,-1
 382 1479 l 1,103,-1
 341 1484 l 1,104,-1
 326 1479 l 1,100,-1
280 1402 m 1,105,-1
 280 1392 l 2,106,107
 280 1378 280 1378 362 1372 c 1,108,109
 364 1357 364 1357 505 1285 c 1,110,-1
 653 1121 l 1,111,112
 701 1080 701 1080 719 1080 c 1,113,-1
 719 1085 l 2,114,115
 719 1175 719 1175 571 1392 c 1,116,117
 443 1428 443 1428 367 1428 c 0,118,119
 330 1428 330 1428 280 1402 c 1,105,-1
152 1290 m 1,120,-1
 126 1295 l 1,121,122
 103 1286 103 1286 91 1264 c 1,123,-1
 96 1264 l 1,124,-1
 152 1280 l 1,125,-1
 198 1280 l 2,126,127
 236 1280 236 1280 305 1259 c 1,128,-1
 305 1264 l 2,129,130
 305 1300 305 1300 254 1305 c 1,131,-1
 152 1290 l 1,120,-1
357 1295 m 1,132,133
 357 1184 357 1184 566 1060 c 1,134,-1
 566 1065 l 1,135,136
 508 1189 508 1189 362 1295 c 1,137,-1
 357 1295 l 1,132,133
-1 825 m 1,138,-1
 -6 681 l 1,139,140
 -1 562 -1 562 14 492 c 1,141,-1
 19 492 l 1,142,-1
 4 825 l 1,143,-1
 -1 825 l 1,138,-1
607 405 m 1,144,145
 580 345 580 345 428 140 c 0,146,147
 394 95 394 95 377 37 c 1,148,-1
 382 37 l 2,149,150
 533 37 533 37 607 308 c 1,151,-1
 622 405 l 1,152,-1
 607 405 l 1,144,145
270 -34 m 1,153,-1
 270 -39 l 1,154,-1
 336 -49 l 1,155,-1
 346 -49 l 2,156,157
 374 -49 374 -49 387 -23 c 1,158,-1
 270 -34 l 1,153,-1
EndSplineSet
EndChar

StartChar: D
Encoding: 68 68 39
Width: 946
GlyphClass: 1
Flags: W
LayerCount: 2
Fore
SplineSet
201 1884 m 1,0,-1
 213 1883 l 2,1,2
 243 1881 243 1881 251 1619 c 0,3,4
 250 1594 250 1594 354 1554 c 1,5,6
 486 1475 486 1475 669 1327 c 1,7,8
 768 1284 768 1284 850 1073 c 1,9,10
 890 942 890 942 886 869 c 2,11,-1
 878 738 l 2,12,13
 876 701 876 701 934 473 c 1,14,-1
 937 414 l 1,15,16
 931 319 931 319 771 328 c 0,17,18
 654 335 654 335 626 283 c 1,19,20
 491 82 491 82 241 8 c 1,21,-1
 121 -9 l 1,22,23
 124 -104 124 -104 145 -105 c 2,24,-1
 181 -107 l 1,25,-1
 181 -113 l 2,26,27
 179 -150 179 -150 135 -176 c 1,28,29
 90 -174 90 -174 69 6 c 1,30,31
 -75 69 -75 69 -147 173 c 1,32,33
 -311 232 -311 232 -306 313 c 1,34,35
 -256 334 -256 334 -126 338 c 1,36,37
 -89 358 -89 358 -56 411 c 1,38,-1
 -44 411 l 1,39,40
 -19 386 -19 386 -4 385 c 0,41,42
 13 384 13 384 47 757 c 1,43,-1
 67 1213 l 1,44,-1
 81 1457 l 1,45,46
 -115 1549 -115 1549 -113 1599 c 1,47,48
 -40 1642 -40 1642 74 1635 c 1,49,-1
 70 1683 l 1,50,-1
 125 1811 l 1,51,-1
 137 1810 l 2,52,53
 149 1810 149 1810 182 1760 c 1,54,-1
 182 1766 l 1,55,-1
 182 1873 l 1,56,-1
 201 1884 l 1,0,-1
161 1714 m 1,57,-1
 158 1660 l 1,58,-1
 169 1648 l 1,59,-1
 179 1707 l 1,60,-1
 173 1713 l 1,61,-1
 161 1714 l 1,57,-1
257 1512 m 1,62,-1
 255 1476 l 1,63,64
 358 1462 358 1462 634 1246 c 1,65,66
 540 1401 540 1401 332 1484 c 1,67,-1
 257 1512 l 1,62,-1
248 1364 m 1,68,69
 218 1150 218 1150 210 1003 c 0,70,71
 195 745 195 745 211 420 c 1,72,73
 279 398 279 398 406 391 c 2,74,-1
 430 389 l 1,75,76
 649 581 649 581 655 674 c 1,77,78
 715 792 715 792 721 890 c 0,79,80
 734 1127 734 1127 248 1364 c 1,68,69
732 1193 m 1,81,-1
 732 1187 l 1,82,83
 755 1101 755 1101 829 920 c 1,84,-1
 835 919 l 1,85,-1
 836 931 l 1,86,87
 811 1094 811 1094 744 1192 c 1,88,-1
 732 1193 l 1,81,-1
784 851 m 1,89,-1
 782 815 l 1,90,-1
 788 815 l 1,91,-1
 790 850 l 1,92,-1
 784 851 l 1,89,-1
732 776 m 1,93,94
 727 685 727 685 602 492 c 1,95,96
 527 416 527 416 525 390 c 1,97,98
 736 532 736 532 745 686 c 1,99,-1
 745 692 l 1,100,-1
 738 776 l 1,101,-1
 732 776 l 1,93,94
809 665 m 1,102,103
 768 572 768 572 765 531 c 2,104,-1
 764 513 l 1,105,-1
 770 512 l 1,106,107
 817 600 817 600 819 640 c 1,108,-1
 815 665 l 1,109,-1
 809 665 l 1,102,103
859 602 m 1,110,111
 855 541 855 541 728 396 c 1,112,-1
 721 378 l 1,113,-1
 733 378 l 1,114,115
 875 370 875 370 877 405 c 1,116,-1
 885 440 l 1,117,118
 886 588 886 588 859 602 c 1,110,111
214 354 m 1,119,-1
 230 335 l 1,120,-1
 254 334 l 1,121,-1
 308 343 l 1,122,-1
 309 349 l 1,123,-1
 232 359 l 1,124,-1
 214 354 l 1,119,-1
116 98 m 1,125,126
 132 50 132 50 190 46 c 0,127,128
 381 35 381 35 580 303 c 1,129,-1
 593 326 l 1,130,-1
 587 327 l 1,131,132
 503 332 503 332 198 183 c 1,133,134
 171 101 171 101 116 104 c 1,135,-1
 116 98 l 1,125,126
-118 260 m 1,136,-1
 -119 254 l 1,137,138
 -122 207 -122 207 -44 203 c 2,139,-1
 -9 201 l 1,140,-1
 32 204 l 1,141,-1
 33 216 l 2,142,143
 37 275 37 275 19 276 c 2,144,-1
 -10 284 l 1,145,-1
 -57 287 l 2,146,147
 -103 289 -103 289 -118 260 c 1,136,-1
-219 278 m 0,148,149
 -214 254 -214 254 -184 252 c 2,150,-1
 -178 252 l 1,151,-1
 -176 288 l 1,152,153
 -218 288 -218 288 -219 278 c 0,148,149
-48 137 m 1,154,155
 -49 121 -49 121 60 72 c 1,156,-1
 67 77 l 1,157,-1
 71 142 l 1,158,-1
 53 143 l 1,159,-1
 -48 137 l 1,154,155
EndSplineSet
EndChar

StartChar: E
Encoding: 69 69 40
Width: 946
GlyphClass: 1
Flags: W
LayerCount: 2
Fore
SplineSet
992 1866 m 1,0,-1
 992 1860 l 2,1,2
 992 1838 992 1838 760 1759 c 1,3,4
 731 1743 731 1743 681 1674 c 1,5,6
 491 1625 491 1625 353 1561 c 0,7,8
 271 1523 271 1523 257 1504 c 1,9,-1
 263 1465 l 1,10,-1
 217 1453 l 1,11,-1
 229 1289 l 1,12,-1
 223 1001 l 1,13,14
 278 1001 278 1001 658 1097 c 1,15,-1
 755 1103 l 1,16,-1
 794 1103 l 1,17,-1
 794 1097 l 2,18,19
 794 1054 794 1054 664 1012 c 1,20,21
 664 985 664 985 415 950 c 1,22,23
 234 905 234 905 234 882 c 1,24,25
 217 786 217 786 217 684 c 2,26,-1
 217 622 l 2,27,28
 217 445 217 445 251 215 c 1,29,-1
 257 215 l 2,30,31
 275 215 275 215 591 396 c 1,32,33
 758 475 758 475 834 475 c 1,34,-1
 839 469 l 1,35,36
 839 398 839 398 709 373 c 1,37,38
 694 332 694 332 427 215 c 1,39,40
 190 91 190 91 178 57 c 1,41,42
 195 29 195 29 195 -16 c 0,43,44
 195 -65 195 -65 155 -96 c 1,45,46
 128 -96 128 -96 104 28 c 1,47,-1
 93 28 l 2,48,49
 59 28 59 28 -36 -5 c 1,50,51
 -70 6 -70 6 -70 17 c 2,52,-1
 -70 23 l 1,53,54
 -64 62 -64 62 99 125 c 1,55,-1
 99 130 l 1,56,57
 70 358 70 358 48 797 c 1,58,-1
 14 803 l 1,59,-1
 -36 797 l 1,60,61
 -65 805 -65 805 -65 814 c 2,62,-1
 -65 831 l 2,63,64
 -65 843 -65 843 -48 843 c 1,65,-1
 -42 848 l 1,66,-1
 -42 854 l 1,67,-1
 -53 854 l 1,68,-1
 -150 843 l 2,69,70
 -184 843 -184 843 -184 865 c 0,71,72
 -184 913 -184 913 20 933 c 1,73,-1
 31 944 l 1,74,75
 31 1033 31 1033 -3 1318 c 1,76,-1
 -8 1318 l 1,77,-1
 -42 1312 l 1,78,79
 -81 1313 -81 1313 -150 1425 c 1,80,81
 -150 1548 -150 1548 87 1640 c 1,82,83
 129 1785 129 1785 138 1792 c 1,84,-1
 144 1792 l 1,85,86
 178 1775 178 1775 178 1730 c 2,87,-1
 178 1691 l 1,88,89
 212 1691 212 1691 353 1781 c 1,90,-1
 398 1787 l 1,91,-1
 404 1781 l 1,92,-1
 404 1776 l 1,93,94
 398 1733 398 1733 381 1713 c 1,95,-1
 387 1713 l 2,96,97
 433 1713 433 1713 630 1815 c 1,98,99
 678 1832 678 1832 721 1832 c 1,100,-1
 732 1809 l 1,101,-1
 721 1787 l 1,102,-1
 992 1866 l 1,0,-1
200 1583 m 1,103,-1
 200 1572 l 1,104,-1
 206 1572 l 1,105,106
 288 1609 288 1609 302 1634 c 1,107,-1
 291 1634 l 2,108,109
 234 1634 234 1634 200 1583 c 1,103,-1
-36 1527 m 1,110,111
 -36 1511 -36 1511 -82 1487 c 1,112,-1
 -82 1476 l 1,113,114
 -57 1476 -57 1476 -31 1521 c 1,115,-1
 -31 1527 l 1,116,-1
 -36 1527 l 1,110,111
-99 1442 m 1,117,-1
 -99 1419 l 1,118,-1
 -87 1408 l 1,119,-1
 -76 1436 l 1,120,-1
 -82 1436 l 1,121,-1
 -99 1442 l 1,117,-1
48 1295 m 1,122,-1
 48 1278 l 1,123,-1
 53 1278 l 1,124,-1
 53 1295 l 1,125,-1
 48 1295 l 1,122,-1
53 1272 m 1,126,-1
 53 1261 l 1,127,-1
 70 1063 l 1,128,-1
 76 1063 l 1,129,-1
 76 1120 l 1,130,-1
 59 1272 l 1,131,-1
 53 1272 l 1,126,-1
127 1210 m 1,132,-1
 127 1091 l 1,133,-1
 133 1091 l 1,134,-1
 138 1120 l 1,135,-1
 138 1171 l 1,136,-1
 133 1210 l 1,137,-1
 127 1210 l 1,132,-1
155 650 m 1,138,-1
 150 475 l 1,139,-1
 172 305 l 1,140,-1
 161 209 l 2,141,142
 161 179 161 179 184 170 c 1,143,-1
 189 226 l 1,144,-1
 189 317 l 2,145,146
 189 449 189 449 161 650 c 1,147,-1
 155 650 l 1,138,-1
EndSplineSet
EndChar

StartChar: F
Encoding: 70 70 41
Width: 646
GlyphClass: 1
Flags: W
LayerCount: 2
Fore
SplineSet
809 1766 m 2,0,-1
 882 1766 l 2,1,2
 908 1764 908 1764 908 1753 c 0,3,4
 908 1731 908 1731 835 1702 c 1,5,6
 835 1667 835 1667 796 1667 c 1,7,8
 686 1637 686 1637 654 1577 c 1,9,-1
 645 1568 l 1,10,-1
 611 1568 l 2,11,12
 424 1568 424 1568 279 1469 c 1,13,14
 232 1376 232 1376 189 1168 c 1,15,-1
 172 1052 l 1,16,17
 324 1108 324 1108 602 1151 c 1,18,19
 767 1164 767 1164 895 1185 c 1,20,-1
 921 1185 l 1,21,22
 968 1179 968 1179 968 1168 c 2,23,-1
 968 1151 l 2,24,25
 968 1137 968 1137 895 1121 c 1,26,27
 895 1108 895 1108 761 1086 c 1,28,29
 707 1048 707 1048 542 1026 c 1,30,31
 219 999 219 999 167 953 c 1,32,-1
 167 940 l 1,33,-1
 193 936 l 1,34,-1
 365 961 l 1,35,-1
 370 957 l 1,36,-1
 370 953 l 2,37,38
 370 932 370 932 189 905 c 1,39,-1
 159 884 l 1,40,-1
 159 867 l 2,41,42
 159 538 159 538 124 -50 c 1,43,-1
 129 -84 l 1,44,-1
 129 -106 l 2,45,46
 129 -142 129 -142 103 -162 c 1,47,-1
 99 -162 l 1,48,-1
 86 -149 l 1,49,-1
 90 -101 l 1,50,51
 51 -84 51 -84 51 -58 c 2,52,-1
 55 277 l 1,53,-1
 55 286 l 1,54,-1
 51 286 l 1,55,-1
 0 135 l 1,56,-1
 -4 131 l 1,57,-1
 -34 131 l 1,58,59
 -34 -37 -34 -37 -82 -37 c 1,60,61
 -99 -5 -99 -5 -99 40 c 1,62,-1
 -56 268 l 1,63,-1
 -56 277 l 1,64,-1
 -69 350 l 1,65,66
 -69 427 -69 427 30 725 c 1,67,-1
 38 802 l 1,68,-1
 38 806 l 1,69,-1
 34 806 l 1,70,-1
 -22 673 l 1,71,-1
 -26 677 l 1,72,-1
 -26 703 l 1,73,-1
 12 854 l 1,74,-1
 12 862 l 1,75,76
 -4 897 -4 897 -43 897 c 2,77,-1
 -56 897 l 1,78,-1
 -185 884 l 2,79,80
 -217 884 -217 884 -220 897 c 0,81,82
 -220 939 -220 939 -56 949 c 1,83,-1
 25 1000 l 1,84,85
 64 1003 64 1003 64 1056 c 1,86,87
 84 1119 84 1119 103 1392 c 1,88,-1
 94 1392 l 2,89,90
 67 1392 67 1392 -60 1345 c 1,91,-1
 -82 1345 l 1,92,93
 -108 1349 -108 1349 -108 1357 c 0,94,95
 -108 1390 -108 1390 -13 1400 c 1,96,-1
 -13 1405 l 1,97,-1
 -69 1405 l 2,98,99
 -92 1405 -92 1405 -99 1422 c 1,100,101
 -99 1450 -99 1450 60 1487 c 1,102,-1
 60 1495 l 1,103,104
 28 1495 28 1495 25 1508 c 2,105,-1
 25 1517 l 2,106,107
 25 1535 25 1535 120 1568 c 1,108,109
 137 1581 137 1581 137 1607 c 1,110,-1
 150 1616 l 1,111,-1
 159 1616 l 1,112,-1
 172 1607 l 1,113,114
 198 1668 198 1668 198 1689 c 1,115,-1
 206 1689 l 1,116,-1
 206 1646 l 1,117,-1
 210 1616 l 1,118,119
 302 1631 302 1631 628 1741 c 1,120,121
 734 1766 734 1766 809 1766 c 2,0,-1
430 1073 m 1,122,-1
 430 1069 l 1,123,-1
 443 1069 l 1,124,-1
 507 1082 l 1,125,-1
 507 1086 l 1,126,-1
 499 1086 l 1,127,-1
 430 1073 l 1,122,-1
86 738 m 1,128,129
 55 577 55 577 55 514 c 1,130,-1
 64 441 l 1,131,-1
 68 441 l 1,132,133
 90 597 90 597 90 669 c 2,134,-1
 90 738 l 1,135,-1
 86 738 l 1,128,129
17 406 m 1,136,137
 -17 255 -17 255 -17 187 c 2,138,-1
 -17 182 l 1,139,-1
 -13 182 l 1,140,141
 38 273 38 273 38 337 c 0,142,143
 38 369 38 369 21 406 c 1,144,-1
 17 406 l 1,136,137
EndSplineSet
EndChar

StartChar: G
Encoding: 71 71 42
Width: 983
GlyphClass: 1
Flags: W
LayerCount: 2
Fore
SplineSet
531 1742 m 2,0,-1
 580 1742 l 1,1,2
 736 1734 736 1734 736 1712 c 0,3,4
 736 1686 736 1686 759 1686 c 0,5,6
 774 1686 774 1686 851 1640 c 1,7,8
 874 1640 874 1640 908 1583 c 1,9,10
 1023 1497 1023 1497 1023 1445 c 1,11,-1
 1013 1438 l 1,12,13
 985 1438 985 1438 904 1501 c 1,14,15
 780 1554 780 1554 762 1557 c 1,16,17
 840 1488 840 1488 855 1405 c 2,18,-1
 901 1157 l 1,19,-1
 901 1150 l 2,20,21
 901 1132 901 1132 884 1124 c 1,22,23
 869 1124 869 1124 851 1319 c 1,24,25
 830 1447 830 1447 769 1511 c 1,26,27
 698 1547 698 1547 620 1547 c 2,28,-1
 590 1547 l 2,29,30
 259 1547 259 1547 131 939 c 0,31,32
 108 813 108 813 108 731 c 0,33,34
 108 601 108 601 214 235 c 1,35,36
 256 132 256 132 375 70 c 1,37,38
 435 47 435 47 471 47 c 2,39,-1
 501 47 l 2,40,41
 604 47 604 47 683 162 c 1,42,43
 769 231 769 231 769 255 c 2,44,-1
 769 275 l 1,45,46
 744 306 744 306 531 370 c 1,47,-1
 451 377 l 1,48,-1
 428 377 l 1,49,-1
 349 370 l 1,50,-1
 336 370 l 2,51,52
 308 370 308 370 296 390 c 1,53,54
 310 427 310 427 342 427 c 2,55,-1
 461 437 l 1,56,57
 462 443 462 443 481 446 c 1,58,-1
 481 453 l 1,59,-1
 445 463 l 1,60,-1
 442 463 l 1,61,-1
 329 460 l 1,62,63
 296 468 296 468 296 493 c 2,64,-1
 296 499 l 2,65,66
 296 532 296 532 336 532 c 2,67,-1
 409 539 l 1,68,-1
 627 526 l 1,69,-1
 713 529 l 1,70,71
 740 509 740 509 752 509 c 2,72,-1
 765 513 l 1,73,74
 765 487 765 487 835 463 c 1,75,-1
 894 288 l 1,76,77
 970 261 970 261 970 238 c 1,78,-1
 974 228 l 1,79,80
 974 205 974 205 924 146 c 1,81,-1
 917 129 l 1,82,-1
 921 119 l 1,83,84
 818 86 818 86 818 53 c 1,85,86
 803 33 803 33 736 -9 c 1,87,88
 666 -79 666 -79 567 -95 c 2,89,-1
 504 -105 l 1,90,-1
 501 -105 l 1,91,-1
 415 -88 l 1,92,-1
 356 -88 l 2,93,94
 239 -88 239 -88 91 80 c 0,95,96
 40 140 40 140 -11 318 c 1,97,98
 -74 564 -74 564 -74 708 c 2,99,-1
 -74 777 l 2,100,101
 -74 1010 -74 1010 9 1279 c 1,102,103
 145 1610 145 1610 405 1722 c 1,104,105
 483 1742 483 1742 531 1742 c 2,0,-1
15 1190 m 1,106,-1
 15 1187 l 1,107,-1
 19 1187 l 1,108,109
 99 1363 99 1363 247 1521 c 1,110,111
 355 1610 355 1610 491 1636 c 0,112,113
 509 1636 509 1636 534 1659 c 1,114,115
 576 1682 576 1682 587 1706 c 1,116,-1
 567 1706 l 2,117,118
 395 1706 395 1706 309 1623 c 1,119,120
 107 1482 107 1482 22 1217 c 1,121,-1
 15 1190 l 1,106,-1
673 1640 m 1,122,123
 732 1640 732 1640 861 1590 c 1,124,125
 796 1656 796 1656 732 1656 c 2,126,-1
 722 1656 l 1,127,128
 673 1652 673 1652 673 1640 c 1,122,123
62 952 m 1,129,-1
 71 843 l 1,130,-1
 78 843 l 1,131,-1
 91 975 l 1,132,133
 91 1044 91 1044 217 1365 c 1,134,-1
 220 1382 l 1,135,136
 62 1179 62 1179 62 952 c 1,129,-1
12 1098 m 1,137,138
 -17 1008 -17 1008 -17 919 c 1,139,-1
 -14 883 l 1,140,-1
 -11 883 l 1,141,142
 15 1028 15 1028 15 1091 c 2,143,-1
 15 1098 l 1,144,-1
 12 1098 l 1,137,138
28 873 m 1,145,-1
 25 820 l 1,146,-1
 32 764 l 1,147,-1
 19 760 l 1,148,-1
 15 678 l 1,149,-1
 15 671 l 2,150,151
 15 453 15 453 45 453 c 1,152,-1
 42 486 l 1,153,-1
 42 513 l 1,154,-1
 58 698 l 1,155,156
 53 758 53 758 38 774 c 1,157,-1
 45 803 l 1,158,-1
 32 873 l 1,159,-1
 28 873 l 1,145,-1
75 532 m 1,160,-1
 75 526 l 2,161,162
 75 285 75 285 131 248 c 1,163,-1
 131 251 l 1,164,165
 108 319 108 319 78 532 c 1,166,-1
 75 532 l 1,160,-1
739 347 m 1,167,168
 756 327 756 327 772 327 c 1,169,-1
 772 331 l 2,170,171
 772 341 772 341 742 347 c 1,172,-1
 739 347 l 1,167,168
888 195 m 2,173,-1
 888 182 l 1,174,-1
 894 175 l 1,175,-1
 898 175 l 2,176,177
 936 175 936 175 944 232 c 1,178,179
 939 248 939 248 921 248 c 2,180,-1
 917 248 l 2,181,182
 888 248 888 248 888 195 c 2,173,-1
184 199 m 1,183,-1
 184 192 l 1,184,185
 199 142 199 142 217 142 c 1,186,-1
 217 146 l 1,187,188
 195 193 195 193 184 199 c 1,183,-1
171 80 m 1,189,-1
 171 76 l 1,190,191
 201 25 201 25 247 10 c 1,192,193
 222 55 222 55 171 80 c 1,189,-1
521 -52 m 1,194,-1
 541 -52 l 1,195,196
 574 -48 574 -48 574 -39 c 1,197,-1
 564 -42 l 1,198,-1
 544 -39 l 1,199,200
 521 -43 521 -43 521 -52 c 1,194,-1
EndSplineSet
EndChar

StartChar: H
Encoding: 72 72 43
Width: 814
GlyphClass: 1
Flags: W
LayerCount: 2
Fore
SplineSet
485 1830 m 2,0,-1
 494 1830 l 2,1,2
 517 1830 517 1830 533 1711 c 1,3,-1
 547 1698 l 1,4,-1
 551 1698 l 2,5,6
 564 1698 564 1698 569 1733 c 1,7,-1
 564 1773 l 1,8,9
 569 1804 569 1804 577 1804 c 0,10,11
 622 1804 622 1804 622 1689 c 1,12,13
 683 1117 683 1117 683 1019 c 1,14,-1
 696 1019 l 2,15,16
 718 1019 718 1019 824 1076 c 1,17,-1
 837 1076 l 1,18,-1
 837 1072 l 1,19,20
 802 1028 802 1028 793 988 c 1,21,22
 724 971 724 971 696 935 c 1,23,-1
 692 931 l 1,24,-1
 692 900 l 1,25,26
 705 874 705 874 718 874 c 1,27,-1
 718 869 l 1,28,29
 683 842 683 842 679 803 c 1,30,31
 679 272 679 272 714 -12 c 1,32,-1
 714 -82 l 1,33,-1
 701 -82 l 1,34,35
 635 -47 635 -47 635 160 c 1,36,37
 630 249 630 249 617 292 c 1,38,-1
 613 292 l 1,39,40
 599 201 599 201 599 133 c 1,41,-1
 608 -16 l 1,42,43
 602 -77 602 -77 586 -82 c 1,44,45
 556 -82 556 -82 551 371 c 2,46,-1
 542 856 l 1,47,48
 329 737 329 737 313 737 c 1,49,50
 276 706 276 706 260 446 c 1,51,-1
 220 -65 l 1,52,-1
 181 -113 l 1,53,-1
 176 -113 l 1,54,55
 115 -55 115 -55 115 124 c 2,56,-1
 119 614 l 1,57,-1
 115 636 l 1,58,-1
 110 636 l 1,59,60
 93 558 93 558 75 133 c 1,61,62
 75 -15 75 -15 132 -131 c 1,63,-1
 106 -140 l 1,64,65
 85 -140 85 -140 62 -60 c 1,66,-1
 35 -69 l 1,67,68
 13 -69 13 -69 9 155 c 0,69,70
 9 351 9 351 71 724 c 1,71,72
 -30 685 -30 685 -30 609 c 1,73,74
 5 555 5 555 5 543 c 1,75,-1
 0 539 l 1,76,-1
 -13 539 l 1,77,78
 -66 565 -66 565 -66 653 c 1,79,80
 -61 687 -61 687 71 786 c 1,81,-1
 84 803 l 1,82,83
 27 803 27 803 27 821 c 2,84,-1
 27 825 l 2,85,86
 27 841 27 841 93 852 c 1,87,-1
 97 856 l 1,88,-1
 97 874 l 1,89,-1
 57 904 l 1,90,-1
 57 918 l 2,91,92
 57 947 57 947 115 988 c 1,93,94
 154 1534 154 1534 194 1636 c 1,95,-1
 198 1636 l 1,96,-1
 278 1557 l 1,97,98
 291 1557 291 1557 291 1548 c 2,99,-1
 265 1138 l 1,100,-1
 265 1094 l 1,101,-1
 273 997 l 1,102,-1
 278 997 l 1,103,104
 322 1096 322 1096 322 1513 c 1,105,106
 335 1662 335 1662 348 1680 c 1,107,108
 426 1680 426 1680 463 1539 c 1,109,-1
 467 1539 l 1,110,111
 485 1582 485 1582 485 1623 c 2,112,-1
 472 1786 l 1,113,114
 476 1830 476 1830 485 1830 c 2,0,-1
375 1623 m 1,115,-1
 375 1618 l 2,116,117
 375 1455 375 1455 331 984 c 1,118,-1
 450 966 l 1,119,120
 529 975 529 975 529 1001 c 0,121,122
 529 1072 529 1072 485 1491 c 1,123,-1
 476 1491 l 1,124,-1
 463 1482 l 1,125,-1
 454 1482 l 2,126,127
 443 1482 443 1482 414 1592 c 1,128,129
 399 1623 399 1623 375 1623 c 1,115,-1
604 1464 m 1,130,-1
 604 1460 l 1,131,-1
 622 1275 l 1,132,-1
 626 1275 l 1,133,-1
 626 1297 l 2,134,135
 626 1388 626 1388 608 1464 c 1,136,-1
 604 1464 l 1,130,-1
622 1226 m 1,137,-1
 622 1209 l 1,138,-1
 630 1054 l 1,139,-1
 635 1054 l 1,140,-1
 639 1151 l 1,141,-1
 630 1226 l 1,142,-1
 622 1226 l 1,137,-1
216 1209 m 1,143,-1
 198 1054 l 1,144,-1
 198 1037 l 2,145,146
 198 1003 198 1003 220 993 c 1,147,-1
 229 1138 l 1,148,-1
 220 1209 l 1,149,-1
 216 1209 l 1,143,-1
203 940 m 1,150,-1
 198 922 l 1,151,152
 198 900 198 900 216 896 c 1,153,-1
 220 913 l 1,154,-1
 216 940 l 1,155,-1
 203 940 l 1,150,-1
317 922 m 1,156,-1
 317 918 l 1,157,-1
 335 918 l 1,158,-1
 366 927 l 1,159,-1
 366 931 l 1,160,-1
 335 935 l 1,161,-1
 317 922 l 1,156,-1
313 816 m 1,162,163
 395 845 395 845 401 860 c 1,164,-1
 388 860 l 2,165,166
 313 860 313 860 313 816 c 1,162,163
644 860 m 1,167,-1
 639 821 l 1,168,-1
 648 821 l 1,169,-1
 652 843 l 1,170,-1
 648 860 l 1,171,-1
 644 860 l 1,167,-1
225 578 m 1,172,-1
 220 543 l 1,173,-1
 220 534 l 1,174,-1
 225 534 l 1,175,-1
 229 570 l 1,176,-1
 229 578 l 1,177,-1
 225 578 l 1,172,-1
EndSplineSet
EndChar

StartChar: I
Encoding: 73 73 44
Width: 323
GlyphClass: 1
Flags: W
LayerCount: 2
Fore
SplineSet
257 1823 m 2,0,-1
 274 1823 l 2,1,2
 297 1823 297 1823 409 1756 c 1,3,4
 426 1756 426 1756 426 1747 c 0,5,6
 425 1700 425 1700 291 1617 c 1,7,-1
 283 1600 l 1,8,9
 360 1543 360 1543 455 1529 c 1,10,-1
 455 1520 l 1,11,-1
 434 1499 l 1,12,-1
 417 1499 l 2,13,14
 382 1499 382 1499 337 1520 c 1,15,-1
 337 1508 l 1,16,17
 371 1479 371 1479 371 1461 c 0,18,19
 371 1455 371 1455 354 1449 c 1,20,21
 304 1449 304 1449 220 1554 c 1,22,23
 128 1449 128 1449 77 1449 c 2,24,-1
 64 1449 l 1,25,-1
 60 1453 l 1,26,-1
 56 1453 l 1,27,28
 73 1498 73 1498 182 1562 c 1,29,-1
 203 1588 l 1,30,-1
 203 1596 l 1,31,-1
 157 1646 l 1,32,-1
 157 1659 l 1,33,34
 163 1676 163 1676 182 1676 c 1,35,-1
 182 1684 l 1,36,37
 186 1747 186 1747 207 1747 c 2,38,-1
 220 1747 l 1,39,-1
 224 1743 l 1,40,-1
 228 1743 l 1,41,-1
 228 1752 l 1,42,-1
 220 1806 l 1,43,44
 242 1823 242 1823 257 1823 c 2,0,-1
262 1794 m 1,45,-1
 257 1789 l 1,46,-1
 257 1785 l 1,47,48
 266 1731 266 1731 274 1731 c 0,49,50
 306 1739 306 1739 342 1760 c 1,51,52
 342 1788 342 1788 262 1794 c 1,45,-1
274 1651 m 1,53,54
 350 1679 350 1679 350 1714 c 1,55,-1
 346 1718 l 1,56,57
 290 1695 290 1695 274 1655 c 1,58,-1
 274 1651 l 1,53,54
220 1693 m 1,59,-1
 220 1684 l 1,60,-1
 228 1646 l 1,61,-1
 236 1655 l 1,62,-1
 236 1701 l 1,63,-1
 228 1701 l 1,64,-1
 220 1693 l 1,59,-1
148 1251 m 1,65,-1
 157 1251 l 2,66,67
 171 1251 171 1251 178 1205 c 1,68,-1
 131 923 l 1,69,-1
 131 919 l 1,70,-1
 136 919 l 1,71,72
 174 1176 174 1176 203 1176 c 1,73,74
 203 1188 203 1188 241 1197 c 1,75,76
 253 1176 253 1176 253 1142 c 2,77,-1
 253 1125 l 1,78,-1
 157 124 l 1,79,80
 115 -132 115 -132 102 -132 c 2,81,-1
 68 -123 l 1,82,-1
 60 -123 l 1,83,-1
 56 -127 l 1,84,-1
 51 -127 l 1,85,86
 39 -106 39 -106 39 -85 c 2,87,-1
 39 -60 l 1,88,-1
 43 24 l 1,89,-1
 22 87 l 1,90,-1
 64 864 l 1,91,92
 70 1091 70 1091 110 1091 c 1,93,94
 128 1111 128 1111 136 1230 c 1,95,96
 148 1239 148 1239 148 1251 c 1,65,-1
182 953 m 1,97,98
 114 440 114 440 114 339 c 2,99,-1
 114 326 l 1,100,-1
 119 326 l 1,101,102
 173 755 173 755 186 936 c 1,103,-1
 186 953 l 1,104,-1
 182 953 l 1,97,98
110 297 m 1,105,-1
 110 288 l 1,106,-1
 114 288 l 1,107,-1
 114 297 l 1,108,-1
 110 297 l 1,105,-1
98 183 m 1,109,-1
 85 74 l 1,110,-1
 85 61 l 1,111,-1
 89 61 l 1,112,-1
 102 171 l 1,113,-1
 102 183 l 1,114,-1
 98 183 l 1,109,-1
EndSplineSet
EndChar

StartChar: J
Encoding: 74 74 45
Width: 389
GlyphClass: 1
Flags: W
LayerCount: 2
Fore
SplineSet
396 1828 m 1,0,-1
 423 1824 l 1,1,-1
 429 1816 l 1,2,3
 410 1804 410 1804 407 1779 c 1,4,5
 413 1692 413 1692 434 1687 c 1,6,7
 478 1712 478 1712 498 1709 c 0,8,9
 505 1708 505 1708 503 1698 c 2,10,-1
 498 1682 l 1,11,-1
 501 1681 l 1,12,-1
 535 1680 l 1,13,-1
 540 1672 l 1,14,15
 537 1647 537 1647 481 1633 c 1,16,17
 484 1622 484 1622 558 1559 c 1,18,-1
 564 1531 l 1,19,20
 562 1517 562 1517 541 1507 c 1,21,22
 409 1543 409 1543 392 1578 c 1,23,-1
 389 1579 l 2,24,25
 372 1581 372 1581 248 1514 c 1,26,-1
 234 1513 l 1,27,28
 236 1527 236 1527 195 1542 c 1,29,30
 176 1556 176 1556 181 1588 c 1,31,32
 225 1644 225 1644 296 1666 c 1,33,-1
 298 1676 l 1,34,-1
 290 1697 l 1,35,-1
 301 1702 l 1,36,-1
 321 1700 l 1,37,-1
 383 1657 l 1,38,-1
 386 1657 l 1,39,-1
 387 1660 l 1,40,41
 372 1773 372 1773 376 1803 c 0,42,43
 379 1821 379 1821 396 1828 c 1,0,-1
278 1294 m 1,44,-1
 281 1293 l 1,45,46
 303 1278 303 1278 295 1224 c 2,47,-1
 291 1191 l 2,48,49
 289 1179 289 1179 314 1140 c 1,50,51
 334 680 334 680 302 453 c 2,52,-1
 294 390 l 2,53,54
 283 317 283 317 229 99 c 1,55,-1
 227 -137 l 1,56,-1
 226 -143 l 2,57,58
 209 -266 209 -266 76 -318 c 1,59,-1
 66 -320 l 1,60,-1
 47 -314 l 1,61,62
 -78 -320 -78 -320 -115 -315 c 2,63,-1
 -241 -298 l 1,64,-1
 -587 -263 l 1,65,66
 -612 -250 -612 -250 -611 -242 c 1,67,68
 -584 -209 -584 -209 -451 -228 c 0,69,70
 -429 -231 -429 -231 -369 -222 c 1,71,-1
 -306 -234 l 1,72,73
 -282 -230 -282 -230 -281 -224 c 1,74,-1
 -322 -222 l 1,75,76
 -493 -198 -493 -198 -643 -103 c 1,77,-1
 -644 -86 l 1,78,79
 -608 -71 -608 -71 -541 -80 c 0,80,81
 -498 -86 -498 -86 -259 -160 c 1,82,-1
 -258 -157 l 1,83,-1
 -256 -90 l 1,84,-1
 -252 -87 l 1,85,-1
 -249 -87 l 1,86,-1
 -230 -171 l 1,87,-1
 -197 -179 l 1,88,-1
 -191 -180 l 2,89,90
 -124 -189 -124 -189 -61 -26 c 1,91,92
 54 220 54 220 73 357 c 2,93,-1
 79 400 l 1,94,-1
 111 797 l 1,95,-1
 116 834 l 1,96,97
 210 1290 210 1290 223 1288 c 1,98,99
 248 1272 248 1272 244 1245 c 1,100,101
 254 1243 254 1243 263 1286 c 1,102,-1
 278 1294 l 1,44,-1
262 1107 m 1,103,104
 180 436 180 436 208 433 c 1,105,-1
 207 426 l 1,106,-1
 211 425 l 1,107,-1
 241 590 l 1,108,-1
 245 620 l 2,109,110
 268 787 268 787 280 1088 c 1,111,-1
 276 1085 l 1,112,-1
 273 1085 l 2,113,114
 266 1086 266 1086 269 1106 c 1,115,-1
 262 1107 l 1,103,104
183 1003 m 1,116,117
 161 913 161 913 146 806 c 0,118,119
 131 701 131 701 120 526 c 1,120,-1
 123 525 l 1,121,122
 157 667 157 667 170 765 c 1,123,-1
 172 775 l 1,124,125
 186 880 186 880 187 1003 c 1,126,-1
 183 1003 l 1,116,117
283 675 m 1,127,-1
 260 510 l 1,128,-1
 215 310 l 1,129,-1
 213 297 l 2,130,131
 207 253 207 253 217 205 c 1,132,-1
 220 205 l 1,133,134
 248 283 248 283 263 388 c 2,135,-1
 270 441 l 2,136,137
 284 541 284 541 286 675 c 1,138,-1
 283 675 l 1,127,-1
124 384 m 1,139,-1
 106 325 l 1,140,-1
 101 292 l 2,141,142
 95 249 95 249 95 151 c 1,143,-1
 98 151 l 1,144,-1
 100 161 l 1,145,-1
 125 367 l 1,146,-1
 127 383 l 1,147,-1
 124 384 l 1,139,-1
-84 -141 m 1,148,-1
 -81 -141 l 1,149,150
 48 -108 48 -108 59 -32 c 2,151,-1
 61 -19 l 1,152,153
 67 74 67 74 63 186 c 1,154,155
 56 187 56 187 6 46 c 1,156,157
 -29 -37 -29 -37 -84 -141 c 1,148,-1
184 162 m 1,158,-1
 179 146 l 1,159,160
 171 76 171 76 185 74 c 1,161,-1
 190 108 l 1,162,-1
 187 162 l 1,163,-1
 184 162 l 1,158,-1
151 -72 m 2,164,-1
 133 -252 l 1,165,-1
 136 -252 l 1,166,167
 189 -190 189 -190 201 -106 c 0,168,169
 209 -43 209 -43 193 30 c 1,170,171
 162 5 162 5 151 -72 c 2,164,-1
119 13 m 1,172,-1
 104 -25 l 1,173,-1
 114 -26 l 1,174,-1
 122 -14 l 1,175,-1
 124 -4 l 1,176,-1
 123 12 l 1,177,-1
 119 13 l 1,172,-1
112 -67 m 1,178,179
 54 -166 54 -166 46 -220 c 1,180,181
 47 -280 47 -280 61 -282 c 0,182,183
 94 -287 94 -287 108 -191 c 0,184,185
 123 -68 123 -68 112 -67 c 1,178,179
-50 -260 m 1,186,-1
 -27 -267 l 1,187,-1
 -14 -268 l 1,188,-1
 9 -268 l 1,189,-1
 6 -265 l 1,190,-1
 8 -255 l 1,191,-1
 24 -189 l 1,192,-1
 22 -179 l 1,193,-1
 -50 -260 l 1,186,-1
-118 -217 m 1,194,-1
 -119 -220 l 1,195,-1
 -81 -239 l 1,196,197
 -33 -212 -33 -212 -28 -179 c 1,198,-1
 -118 -217 l 1,194,-1
-557 -122 m 1,199,-1
 -558 -125 l 1,200,201
 -472 -164 -472 -164 -369 -178 c 2,202,-1
 -330 -184 l 1,203,-1
 -296 -185 l 1,204,-1
 -296 -182 l 1,205,-1
 -500 -123 l 1,206,-1
 -557 -122 l 1,199,-1
-189 -261 m 1,207,-1
 -186 -265 l 1,208,-1
 -139 -271 l 2,209,210
 -121 -274 -121 -274 -111 -258 c 1,211,-1
 -110 -255 l 1,212,-1
 -142 -240 l 1,213,214
 -186 -244 -186 -244 -189 -261 c 1,207,-1
EndSplineSet
EndChar

StartChar: K
Encoding: 75 75 46
Width: 602
GlyphClass: 1
Flags: W
LayerCount: 2
Fore
SplineSet
140 2004 m 1,0,-1
 144 2004 l 1,1,-1
 152 1996 l 1,2,3
 112 1875 112 1875 88 1236 c 1,4,5
 113 1259 113 1259 164 1352 c 1,6,7
 144 1420 144 1420 144 1472 c 2,8,-1
 144 1480 l 1,9,10
 148 1540 148 1540 164 1540 c 2,11,-1
 168 1540 l 2,12,13
 199 1540 199 1540 228 1464 c 1,14,-1
 232 1464 l 1,15,16
 341 1602 341 1602 448 1716 c 1,17,-1
 520 1772 l 1,18,-1
 532 1772 l 1,19,-1
 548 1760 l 1,20,21
 626 1824 626 1824 644 1824 c 1,22,23
 660 1806 660 1806 660 1788 c 1,24,25
 649 1748 649 1748 636 1748 c 2,26,-1
 612 1748 l 1,27,28
 612 1714 612 1714 420 1492 c 1,29,30
 344 1398 344 1398 344 1376 c 2,31,-1
 344 1360 l 2,32,33
 344 1338 344 1338 392 1152 c 1,34,35
 422 915 422 915 496 752 c 1,36,37
 584 464 584 464 620 228 c 1,38,39
 617 176 617 176 604 176 c 2,40,-1
 600 176 l 2,41,42
 569 176 569 176 524 356 c 1,43,-1
 520 356 l 1,44,45
 516 288 516 288 504 288 c 2,46,-1
 496 288 l 1,47,48
 485 329 485 329 476 480 c 1,49,50
 320 762 320 762 240 1204 c 1,51,52
 172 1155 172 1155 172 1120 c 0,53,54
 172 1106 172 1106 204 1076 c 1,55,-1
 212 1052 l 1,56,-1
 200 1048 l 1,57,58
 170 1065 170 1065 140 1116 c 1,59,-1
 136 1120 l 1,60,-1
 124 1120 l 1,61,62
 88 1064 88 1064 88 992 c 1,63,-1
 120 660 l 1,64,-1
 120 552 l 1,65,-1
 136 448 l 1,66,-1
 132 308 l 2,67,68
 132 254 132 254 152 208 c 1,69,-1
 148 204 l 1,70,-1
 144 204 l 1,71,-1
 124 208 l 1,72,-1
 120 164 l 1,73,74
 120 113 120 113 144 52 c 1,75,-1
 152 52 l 1,76,77
 160 74 160 74 164 196 c 1,78,-1
 172 196 l 1,79,80
 184 126 184 126 184 60 c 1,81,82
 176 0 176 0 160 0 c 2,83,-1
 148 0 l 2,84,85
 121 0 121 0 92 104 c 1,86,87
 92 136 92 136 60 176 c 1,88,89
 4 716 4 716 4 948 c 1,90,-1
 16 1052 l 1,91,92
 12 1096 12 1096 0 1096 c 1,93,-1
 4 1276 l 1,94,-1
 0 1788 l 2,95,96
 0 1872 0 1872 28 1896 c 1,97,98
 28 1909 28 1909 48 1920 c 1,99,100
 68 1895 68 1895 68 1856 c 2,101,-1
 64 1744 l 1,102,-1
 72 1688 l 1,103,-1
 76 1688 l 1,104,105
 91 1761 91 1761 108 1940 c 1,106,107
 127 1999 127 1999 140 2004 c 1,0,-1
424 1644 m 1,108,109
 330 1554 330 1554 304 1496 c 1,110,-1
 308 1496 l 1,111,-1
 428 1644 l 1,112,-1
 424 1644 l 1,108,109
172 1452 m 1,113,-1
 172 1420 l 2,114,115
 172 1399 172 1399 188 1392 c 1,116,-1
 188 1412 l 1,117,-1
 176 1452 l 1,118,-1
 172 1452 l 1,113,-1
176 1312 m 1,119,120
 123 1225 123 1225 96 1164 c 1,121,122
 154 1236 154 1236 180 1308 c 1,123,-1
 180 1312 l 1,124,-1
 176 1312 l 1,119,120
268 1264 m 1,125,126
 274 1092 274 1092 436 592 c 0,127,128
 438 584 438 584 456 576 c 1,129,-1
 456 580 l 1,130,131
 364 1084 364 1084 280 1268 c 1,132,-1
 268 1264 l 1,125,126
EndSplineSet
EndChar

StartChar: L
Encoding: 76 76 47
Width: 609
GlyphClass: 1
Flags: W
LayerCount: 2
Fore
SplineSet
164 1879 m 2,0,-1
 167 1879 l 1,1,2
 189 1867 189 1867 189 1808 c 2,3,-1
 189 1798 l 1,4,-1
 164 1585 l 1,5,-1
 164 1582 l 1,6,-1
 167 1582 l 1,7,-1
 192 1585 l 1,8,-1
 199 1575 l 1,9,10
 171 1372 171 1372 171 814 c 1,11,12
 164 797 164 797 157 796 c 1,13,-1
 153 799 l 1,14,-1
 157 853 l 1,15,-1
 157 1100 l 1,16,-1
 153 1136 l 1,17,-1
 150 1136 l 1,18,19
 132 937 132 937 132 856 c 2,20,-1
 132 845 l 2,21,22
 132 727 132 727 157 676 c 1,23,-1
 160 654 l 1,24,-1
 157 569 l 1,25,-1
 189 201 l 1,26,-1
 189 198 l 1,27,-1
 192 198 l 1,28,29
 694 456 694 456 712 456 c 2,30,-1
 758 456 l 2,31,32
 815 456 815 456 815 438 c 1,33,34
 768 355 768 355 652 300 c 1,35,36
 452 179 452 179 189 -32 c 1,37,-1
 157 -81 l 1,38,-1
 143 -78 l 1,39,-1
 54 -88 l 1,40,-1
 50 -85 l 1,41,-1
 50 -74 l 1,42,43
 79 -44 79 -44 79 -28 c 1,44,45
 8 182 8 182 8 580 c 2,46,-1
 8 753 l 2,47,48
 8 1192 8 1192 107 1734 c 1,49,-1
 121 1741 l 1,50,-1
 139 1737 l 1,51,52
 156 1879 156 1879 164 1879 c 2,0,-1
107 1606 m 1,53,54
 33 1157 33 1157 33 665 c 0,55,56
 33 265 33 265 93 31 c 1,57,-1
 96 31 l 1,58,-1
 96 35 l 1,59,60
 61 303 61 303 61 612 c 0,61,62
 61 987 61 987 111 1560 c 1,63,-1
 111 1606 l 1,64,-1
 107 1606 l 1,53,54
86 686 m 1,65,-1
 86 594 l 2,66,67
 86 423 86 423 100 240 c 1,68,-1
 104 240 l 1,69,-1
 104 258 l 1,70,-1
 89 686 l 1,71,-1
 86 686 l 1,65,-1
663 346 m 2,72,-1
 663 343 l 1,73,74
 738 385 738 385 748 403 c 1,75,-1
 748 407 l 1,76,77
 665 355 665 355 663 346 c 2,72,-1
220 159 m 1,78,-1
 224 159 l 1,79,80
 376 230 376 230 465 300 c 1,81,-1
 465 304 l 1,82,-1
 461 304 l 1,83,84
 311 233 311 233 220 159 c 1,78,-1
104 233 m 1,85,-1
 104 212 l 1,86,-1
 107 212 l 1,87,-1
 107 233 l 1,88,-1
 104 233 l 1,85,-1
203 38 m 2,89,-1
 203 35 l 1,90,-1
 206 35 l 1,91,92
 206 42 206 42 259 88 c 1,93,-1
 263 92 l 1,94,-1
 263 95 l 1,95,-1
 259 95 l 1,96,97
 203 57 203 57 203 38 c 2,89,-1
EndSplineSet
EndChar

StartChar: M
Encoding: 77 77 48
Width: 752
GlyphClass: 1
Flags: W
LayerCount: 2
Fore
SplineSet
571 1939 m 1,0,-1
 574 1936 l 1,1,-1
 577 1936 l 1,2,-1
 574 1846 l 1,3,-1
 574 1780 l 2,4,5
 574 1726 574 1726 616 1441 c 1,6,7
 636 1240 636 1240 649 1240 c 1,8,9
 667 1184 667 1184 667 1150 c 1,10,-1
 661 1150 l 1,11,12
 652 1180 652 1180 652 1201 c 1,13,-1
 649 1201 l 1,14,-1
 646 1192 l 1,15,16
 646 1115 646 1115 691 982 c 1,17,18
 697 866 697 866 706 802 c 1,19,-1
 709 802 l 1,20,-1
 709 937 l 2,21,22
 709 957 709 957 700 982 c 1,23,24
 704 997 704 997 709 997 c 2,25,-1
 718 997 l 1,26,-1
 718 994 l 2,27,28
 718 850 718 850 802 264 c 1,29,-1
 847 48 l 1,30,-1
 844 45 l 1,31,-1
 841 45 l 1,32,-1
 820 87 l 1,33,34
 812 87 812 87 808 54 c 1,35,-1
 814 -17 l 1,36,37
 810 -56 810 -56 802 -56 c 0,38,39
 787 -56 787 -56 787 36 c 1,40,-1
 784 36 l 1,41,-1
 763 18 l 1,42,-1
 757 18 l 1,43,44
 724 48 724 48 718 48 c 1,45,-1
 724 123 l 1,46,47
 724 225 724 225 664 499 c 1,48,-1
 664 502 l 1,49,-1
 661 502 l 1,50,-1
 661 481 l 1,51,-1
 670 418 l 1,52,-1
 670 415 l 1,53,-1
 664 415 l 1,54,55
 625 547 625 547 589 826 c 1,56,57
 550 1288 550 1288 514 1501 c 1,58,-1
 511 1501 l 1,59,-1
 511 1480 l 1,60,-1
 526 1264 l 1,61,-1
 526 1228 l 1,62,-1
 520 1222 l 1,63,64
 502 1229 502 1229 502 1261 c 1,65,-1
 499 1261 l 1,66,-1
 496 1234 l 1,67,-1
 511 1051 l 1,68,-1
 496 1036 l 1,69,-1
 541 418 l 1,70,-1
 538 415 l 1,71,-1
 532 415 l 1,72,-1
 517 430 l 1,73,-1
 517 424 l 1,74,-1
 520 364 l 1,75,76
 517 304 517 304 508 304 c 2,77,-1
 505 304 l 1,78,79
 493 308 493 308 493 325 c 1,80,-1
 490 325 l 1,81,-1
 487 307 l 1,82,-1
 502 234 l 2,83,84
 502 219 502 219 484 207 c 1,85,-1
 478 207 l 1,86,-1
 442 258 l 1,87,88
 425 337 425 337 406 565 c 1,89,-1
 328 862 l 1,90,91
 265 1206 265 1206 211 1306 c 0,92,93
 204 1324 204 1324 199 1324 c 1,94,-1
 193 1255 l 1,95,96
 193 1200 193 1200 235 946 c 1,97,-1
 235 928 l 1,98,-1
 229 928 l 2,99,100
 224 928 224 928 208 958 c 1,101,102
 187 958 187 958 187 1000 c 1,103,104
 148 1150 148 1150 148 1171 c 1,105,106
 135 1168 135 1168 130 1114 c 1,107,108
 138 982 138 982 148 982 c 1,109,-1
 160 970 l 1,110,-1
 151 964 l 1,111,-1
 136 967 l 1,112,-1
 136 964 l 1,113,114
 184 237 184 237 196 201 c 1,115,116
 201 201 201 201 205 147 c 0,117,118
 205 136 205 136 184 105 c 1,119,-1
 187 15 l 1,120,121
 181 -26 181 -26 166 -26 c 0,122,123
 149 -26 149 -26 139 33 c 1,124,125
 127 30 127 30 127 15 c 1,126,-1
 139 -11 l 1,127,-1
 136 -14 l 1,128,-1
 133 -14 l 1,129,130
 115 -1 115 -1 115 12 c 1,131,132
 95 12 95 12 25 -62 c 1,133,-1
 1 -71 l 1,134,-1
 -1 -68 l 1,135,-1
 -1 -65 l 1,136,-1
 25 -20 l 1,137,-1
 22 -8 l 1,138,-1
 64 57 l 1,139,-1
 64 60 l 1,140,-1
 58 60 l 1,141,-1
 -22 30 l 1,142,-1
 -46 30 l 1,143,-1
 -53 36 l 1,144,145
 -30 121 -30 121 16 153 c 0,146,147
 47 175 47 175 85 180 c 1,148,-1
 106 162 l 1,149,-1
 109 162 l 1,150,-1
 115 213 l 1,151,-1
 94 385 l 1,152,-1
 91 385 l 1,153,-1
 91 364 l 1,154,-1
 100 243 l 1,155,156
 96 198 96 198 85 198 c 0,157,158
 67 198 67 198 67 292 c 2,159,-1
 70 472 l 1,160,-1
 28 1072 l 1,161,-1
 25 1147 l 1,162,-1
 13 1159 l 1,163,-1
 13 1165 l 2,164,165
 13 1180 13 1180 22 1192 c 1,166,167
 13 1225 13 1225 13 1249 c 2,168,-1
 16 1381 l 1,169,-1
 25 1387 l 1,170,171
 37 1382 37 1382 37 1369 c 1,172,-1
 40 1369 l 1,173,174
 76 1590 76 1590 76 1663 c 2,175,-1
 76 1678 l 1,176,-1
 82 1684 l 1,177,-1
 85 1684 l 1,178,-1
 115 1681 l 1,179,180
 125 1750 125 1750 133 1750 c 2,181,-1
 136 1750 l 1,182,183
 164 1729 164 1729 187 1588 c 1,184,185
 236 1539 236 1539 253 1456 c 0,186,187
 286 1288 286 1288 355 1108 c 1,188,189
 454 911 454 911 454 763 c 1,190,-1
 457 754 l 1,191,-1
 460 754 l 1,192,-1
 469 823 l 1,193,-1
 469 865 l 1,194,-1
 466 955 l 1,195,-1
 463 955 l 1,196,-1
 445 949 l 1,197,-1
 442 949 l 2,198,199
 431 949 431 949 427 1078 c 0,200,201
 427 1152 427 1152 448 1264 c 1,202,-1
 427 1636 l 1,203,-1
 445 1642 l 1,204,-1
 445 1807 l 1,205,-1
 451 1813 l 1,206,-1
 475 1798 l 1,207,-1
 478 1798 l 2,208,209
 483 1800 483 1800 508 1852 c 1,210,211
 521 1864 521 1864 532 1864 c 1,212,-1
 538 1846 l 1,213,-1
 541 1846 l 1,214,215
 541 1936 541 1936 568 1936 c 1,216,-1
 571 1939 l 1,0,-1
526 1771 m 1,217,-1
 523 1717 l 2,218,219
 523 1668 523 1668 544 1597 c 1,220,-1
 547 1597 l 1,221,-1
 547 1603 l 1,222,-1
 535 1666 l 1,223,224
 547 1686 547 1686 547 1711 c 0,225,226
 547 1738 547 1738 532 1771 c 1,227,-1
 526 1771 l 1,217,-1
136 1693 m 1,228,-1
 136 1669 l 2,229,230
 136 1641 136 1641 163 1588 c 1,231,-1
 166 1588 l 1,232,-1
 166 1591 l 1,233,234
 151 1693 151 1693 136 1693 c 1,228,-1
103 1630 m 1,235,-1
 100 1576 l 1,236,-1
 100 1564 l 1,237,-1
 103 1564 l 1,238,-1
 109 1612 l 1,239,-1
 109 1624 l 1,240,-1
 103 1630 l 1,235,-1
136 1582 m 1,241,242
 136 1517 136 1517 175 1459 c 1,243,-1
 178 1459 l 1,244,-1
 178 1465 l 2,245,246
 178 1535 178 1535 136 1582 c 1,241,242
532 1552 m 1,247,-1
 532 1546 l 1,248,249
 538 1481 538 1481 553 1420 c 1,250,-1
 556 1420 l 1,251,-1
 556 1423 l 1,252,-1
 535 1552 l 1,253,-1
 532 1552 l 1,247,-1
202 1420 m 1,254,-1
 202 1411 l 2,255,256
 202 1395 202 1395 220 1360 c 1,257,-1
 226 1360 l 1,258,-1
 226 1363 l 1,259,-1
 205 1420 l 1,260,-1
 202 1420 l 1,254,-1
145 1399 m 1,261,262
 151 1348 151 1348 169 1291 c 1,263,-1
 172 1291 l 1,264,-1
 172 1351 l 1,265,266
 168 1399 168 1399 151 1399 c 2,267,-1
 145 1399 l 1,261,262
448 1201 m 1,268,-1
 448 1009 l 1,269,-1
 451 1009 l 1,270,-1
 460 1087 l 1,271,-1
 454 1207 l 1,272,-1
 448 1201 l 1,268,-1
589 1198 m 1,273,-1
 589 1189 l 1,274,-1
 592 1189 l 1,275,-1
 592 1198 l 1,276,-1
 589 1198 l 1,273,-1
592 1183 m 1,277,-1
 592 1177 l 1,278,279
 640 724 640 724 691 478 c 1,280,-1
 694 478 l 1,281,-1
 694 484 l 1,282,283
 637 919 637 919 595 1183 c 1,284,-1
 592 1183 l 1,277,-1
82 1117 m 1,285,-1
 82 1111 l 1,286,-1
 85 1111 l 1,287,-1
 85 1117 l 1,288,-1
 82 1117 l 1,285,-1
304 1042 m 1,289,-1
 304 1039 l 1,290,291
 343 833 343 833 376 730 c 1,292,-1
 379 730 l 1,293,-1
 379 733 l 1,294,295
 349 936 349 936 313 1027 c 1,296,297
 307 1027 307 1027 307 1042 c 1,298,-1
 304 1042 l 1,289,-1
112 751 m 1,299,-1
 109 691 l 1,300,301
 109 480 109 480 133 243 c 1,302,-1
 142 237 l 1,303,-1
 148 237 l 1,304,305
 160 243 160 243 160 255 c 2,306,-1
 115 751 l 1,307,-1
 112 751 l 1,299,-1
409 727 m 1,308,-1
 409 712 l 1,309,-1
 412 682 l 1,310,-1
 415 682 l 1,311,-1
 421 697 l 1,312,-1
 412 727 l 1,313,-1
 409 727 l 1,308,-1
436 598 m 1,314,-1
 436 547 l 1,315,-1
 439 547 l 1,316,-1
 442 568 l 1,317,-1
 442 583 l 1,318,-1
 439 598 l 1,319,-1
 436 598 l 1,314,-1
694 472 m 1,320,-1
 694 466 l 1,321,-1
 697 466 l 1,322,-1
 697 472 l 1,323,-1
 694 472 l 1,320,-1
157 207 m 1,324,325
 145 181 145 181 145 153 c 0,326,327
 145 117 145 117 163 51 c 1,328,-1
 166 51 l 1,329,-1
 166 144 l 1,330,-1
 160 207 l 1,331,-1
 157 207 l 1,324,325
-19 63 m 1,332,333
 97 96 97 96 97 129 c 2,334,-1
 97 138 l 1,335,336
 92 150 92 150 76 150 c 0,337,338
 27 150 27 150 -19 81 c 1,339,-1
 -19 63 l 1,332,333
769 147 m 1,340,-1
 760 78 l 1,341,-1
 763 63 l 1,342,-1
 784 63 l 1,343,-1
 784 66 l 1,344,-1
 772 147 l 1,345,-1
 769 147 l 1,340,-1
118 66 m 2,346,-1
 118 60 l 1,347,-1
 124 60 l 1,348,-1
 133 69 l 1,349,-1
 133 78 l 1,350,-1
 127 84 l 1,351,352
 118 81 118 81 118 66 c 2,346,-1
EndSplineSet
EndChar

StartChar: N
Encoding: 78 78 49
Width: 572
GlyphClass: 1
Flags: W
LayerCount: 2
Fore
SplineSet
483 1877 m 1,0,1
 495 1872 495 1872 495 1856 c 2,2,-1
 495 1836 l 1,3,-1
 471 1619 l 1,4,5
 495 1619 495 1619 515 1770 c 1,6,7
 533 1807 533 1807 542 1809 c 2,8,-1
 548 1809 l 1,9,-1
 548 1800 l 2,10,11
 548 1762 548 1762 515 1634 c 1,12,13
 494 1634 494 1634 477 794 c 1,14,15
 491 317 491 317 507 317 c 1,16,17
 545 215 545 215 545 122 c 1,18,-1
 551 113 l 1,19,-1
 545 89 l 1,20,-1
 545 39 l 2,21,22
 545 23 545 23 536 21 c 0,23,24
 515 21 515 21 504 125 c 1,25,-1
 501 128 l 1,26,27
 501 136 501 136 495 136 c 1,28,-1
 483 116 l 1,29,-1
 477 116 l 2,30,31
 459 116 459 116 453 216 c 1,32,-1
 433 216 l 2,33,34
 414 216 414 216 391 382 c 1,35,36
 391 438 391 438 305 663 c 1,37,38
 261 797 261 797 160 1235 c 1,39,-1
 157 1235 l 1,40,-1
 154 1217 l 1,41,-1
 148 829 l 1,42,-1
 148 761 l 2,43,44
 148 497 148 497 187 290 c 1,45,-1
 193 184 l 1,46,-1
 193 145 l 1,47,-1
 190 145 l 2,48,49
 166 145 166 145 142 370 c 1,50,-1
 140 370 l 1,51,-1
 137 335 l 1,52,-1
 154 202 l 1,53,-1
 137 148 l 1,54,-1
 140 116 l 1,55,56
 134 102 134 102 128 101 c 0,57,58
 104 101 104 101 86 358 c 1,59,60
 30 844 30 844 30 1161 c 2,61,-1
 30 1249 l 1,62,63
 37 1497 37 1497 57 1525 c 1,64,-1
 60 1525 l 2,65,66
 74 1525 74 1525 98 1463 c 1,67,-1
 101 1460 l 1,68,-1
 104 1460 l 1,69,-1
 113 1492 l 1,70,-1
 110 1587 l 2,71,72
 112 1611 112 1611 119 1611 c 2,73,-1
 125 1611 l 2,74,75
 131 1611 131 1611 134 1596 c 1,76,-1
 140 1596 l 1,77,-1
 172 1649 l 1,78,-1
 175 1649 l 2,79,80
 179 1649 179 1649 184 1637 c 1,81,-1
 169 1587 l 2,82,83
 169 1577 169 1577 208 1522 c 1,84,85
 262 1416 262 1416 314 1107 c 1,86,87
 359 803 359 803 388 672 c 1,88,-1
 391 672 l 1,89,-1
 391 675 l 1,90,-1
 347 1412 l 1,91,-1
 347 1495 l 2,92,93
 347 1648 347 1648 376 1833 c 1,94,-1
 379 1833 l 1,95,96
 397 1822 397 1822 397 1797 c 1,97,98
 385 1723 385 1723 385 1617 c 2,99,-1
 385 1516 l 1,100,-1
 394 1244 l 1,101,-1
 397 1244 l 1,102,103
 448 1734 448 1734 480 1877 c 1,104,-1
 483 1877 l 1,0,1
480 1605 m 1,105,-1
 471 1569 l 1,106,107
 480 1569 480 1569 483 1602 c 2,108,-1
 483 1605 l 1,109,-1
 480 1605 l 1,105,-1
160 1540 m 1,110,111
 216 1211 216 1211 308 835 c 0,112,113
 341 705 341 705 388 554 c 1,114,-1
 391 554 l 1,115,-1
 391 560 l 1,116,117
 344 778 344 778 311 974 c 1,118,119
 264 1296 264 1296 211 1445 c 0,120,121
 181 1519 181 1519 163 1540 c 1,122,-1
 160 1540 l 1,110,111
60 1466 m 1,123,-1
 57 1463 l 1,124,-1
 57 1460 l 1,125,-1
 68 1418 l 1,126,127
 56 1418 56 1418 51 1282 c 1,128,-1
 54 1170 l 1,129,-1
 54 1158 l 1,130,-1
 60 1158 l 1,131,-1
 60 1161 l 2,132,133
 60 1230 60 1230 95 1412 c 1,134,-1
 95 1415 l 2,135,136
 95 1447 95 1447 60 1466 c 1,123,-1
148 1430 m 1,137,-1
 148 1412 l 2,138,139
 148 1361 148 1361 169 1300 c 1,140,-1
 172 1300 l 1,141,-1
 172 1306 l 2,142,143
 169 1346 169 1346 151 1430 c 1,144,-1
 148 1430 l 1,137,-1
219 1116 m 1,145,-1
 219 1110 l 1,146,147
 225 1054 225 1054 234 1054 c 1,148,-1
 234 1057 l 1,149,-1
 222 1116 l 1,150,-1
 219 1116 l 1,145,-1
453 1039 m 1,151,-1
 450 891 l 1,152,-1
 456 755 l 1,153,-1
 459 755 l 1,154,-1
 462 838 l 1,155,-1
 456 1039 l 1,156,-1
 453 1039 l 1,151,-1
101 974 m 1,157,-1
 98 945 l 1,158,-1
 98 909 l 1,159,-1
 104 820 l 1,160,-1
 107 820 l 1,161,-1
 107 832 l 1,162,-1
 104 962 l 1,163,-1
 104 974 l 1,164,-1
 101 974 l 1,157,-1
80 865 m 1,165,-1
 80 808 l 2,166,167
 80 705 80 705 113 341 c 0,168,169
 113 318 113 318 125 270 c 1,170,-1
 128 270 l 1,171,-1
 128 276 l 1,172,173
 104 521 104 521 83 865 c 1,174,-1
 80 865 l 1,165,-1
110 755 m 1,175,-1
 107 705 l 1,176,-1
 113 690 l 1,177,-1
 116 690 l 1,178,-1
 116 720 l 1,179,-1
 113 755 l 1,180,-1
 110 755 l 1,175,-1
116 657 m 1,181,-1
 116 651 l 1,182,183
 122 514 122 514 131 456 c 1,184,-1
 134 456 l 1,185,-1
 134 459 l 1,186,-1
 119 657 l 1,187,-1
 116 657 l 1,181,-1
415 338 m 1,188,-1
 421 302 l 1,189,-1
 424 302 l 1,190,-1
 424 308 l 1,191,-1
 421 338 l 1,192,-1
 415 338 l 1,188,-1
EndSplineSet
EndChar

StartChar: O
Encoding: 79 79 50
Width: 1139
GlyphClass: 1
Flags: W
LayerCount: 2
Fore
SplineSet
380 1692 m 2,0,-1
 420 1692 l 2,1,2
 495 1692 495 1692 724 1536 c 1,3,4
 825 1452 825 1452 896 1216 c 1,5,6
 1000 848 1000 848 1000 556 c 2,7,-1
 1000 480 l 2,8,9
 1000 217 1000 217 836 120 c 1,10,11
 756 0 756 0 536 0 c 0,12,13
 219 0 219 0 104 268 c 1,14,15
 0 496 0 496 0 788 c 2,16,-1
 0 884 l 2,17,18
 0 1316 0 1316 196 1588 c 1,19,20
 288 1692 288 1692 380 1692 c 2,0,-1
200 1504 m 1,21,22
 285 1595 285 1595 436 1636 c 1,23,-1
 436 1640 l 1,24,-1
 396 1644 l 1,25,-1
 388 1644 l 2,26,27
 331 1644 331 1644 224 1552 c 1,28,-1
 200 1504 l 1,21,22
516 1600 m 1,29,30
 520 1584 520 1584 544 1584 c 1,31,-1
 560 1588 l 1,32,33
 560 1600 560 1600 516 1604 c 1,34,-1
 516 1600 l 1,29,30
540 1572 m 1,35,-1
 648 1460 l 1,36,-1
 652 1460 l 1,37,38
 601 1572 601 1572 556 1572 c 2,39,-1
 540 1572 l 1,35,-1
632 1556 m 1,40,41
 872 1259 872 1259 872 316 c 1,42,43
 844 316 844 316 844 228 c 1,44,-1
 840 204 l 1,45,46
 844 176 844 176 852 176 c 0,47,48
 972 239 972 239 972 560 c 0,49,50
 972 1114 972 1114 748 1464 c 1,51,52
 684 1534 684 1534 640 1556 c 1,53,-1
 632 1556 l 1,40,41
396 1504 m 1,54,-1
 396 1500 l 1,55,-1
 408 1476 l 1,56,-1
 428 1476 l 2,57,58
 469 1476 469 1476 536 1436 c 1,59,-1
 536 1440 l 2,60,61
 536 1495 536 1495 440 1508 c 1,62,-1
 424 1508 l 1,63,-1
 396 1504 l 1,54,-1
132 904 m 0,64,65
 132 601 132 601 260 392 c 1,66,67
 349 292 349 292 380 292 c 2,68,-1
 400 292 l 1,69,70
 296 575 296 575 296 1056 c 2,71,-1
 296 1220 l 1,72,73
 358 1461 358 1461 400 1480 c 1,74,-1
 376 1496 l 1,75,76
 311 1496 311 1496 224 1356 c 1,77,78
 132 1163 132 1163 132 904 c 0,64,65
388 1368 m 1,79,80
 450 1418 450 1418 484 1424 c 1,81,-1
 484 1428 l 1,82,-1
 452 1440 l 1,83,84
 388 1414 388 1414 388 1368 c 1,79,80
568 1424 m 1,85,-1
 568 1420 l 2,86,87
 568 1376 568 1376 616 1348 c 1,88,-1
 616 1352 l 1,89,90
 599 1403 599 1403 568 1424 c 1,85,-1
328 1000 m 2,91,-1
 328 940 l 2,92,93
 328 617 328 617 420 340 c 1,94,95
 568 512 568 512 568 936 c 1,96,97
 555 1376 555 1376 536 1376 c 1,98,-1
 492 1396 l 1,99,100
 435 1396 435 1396 348 1264 c 1,101,102
 328 1145 328 1145 328 1000 c 2,91,-1
656 1348 m 1,103,-1
 656 1340 l 1,104,-1
 660 1340 l 1,105,-1
 660 1348 l 1,106,-1
 656 1348 l 1,103,-1
660 1336 m 1,107,-1
 660 1332 l 1,108,109
 689 1152 689 1152 708 1152 c 1,110,-1
 708 1156 l 2,111,112
 708 1207 708 1207 664 1336 c 1,113,-1
 660 1336 l 1,107,-1
584 1312 m 1,114,-1
 584 1308 l 1,115,-1
 596 940 l 1,116,117
 596 538 596 538 468 352 c 1,118,119
 444 310 444 310 444 288 c 2,120,-1
 444 280 l 1,121,122
 468 200 468 200 572 200 c 1,123,124
 680 482 680 482 680 884 c 0,125,126
 680 1198 680 1198 608 1272 c 1,127,128
 597 1312 597 1312 584 1312 c 1,114,-1
700 996 m 1,129,-1
 700 792 l 2,130,131
 700 409 700 409 608 192 c 1,132,-1
 612 192 l 1,133,134
 681 218 681 218 724 292 c 1,135,136
 772 397 772 397 772 548 c 0,137,138
 772 732 772 732 704 996 c 1,139,-1
 700 996 l 1,129,-1
96 804 m 1,140,-1
 96 760 l 2,141,142
 96 553 96 553 240 320 c 1,143,144
 298 252 298 252 328 252 c 2,145,-1
 348 252 l 1,146,-1
 348 264 l 1,147,148
 256 341 256 341 256 348 c 1,149,150
 188 441 188 441 144 596 c 1,151,-1
 100 804 l 1,152,-1
 96 804 l 1,140,-1
36 792 m 1,153,-1
 36 764 l 2,154,155
 36 636 36 636 56 548 c 1,156,-1
 60 548 l 1,157,-1
 60 552 l 1,158,-1
 40 792 l 1,159,-1
 36 792 l 1,153,-1
156 400 m 1,160,161
 176 352 176 352 184 352 c 2,162,-1
 188 352 l 1,163,164
 167 400 167 400 160 400 c 2,165,-1
 156 400 l 1,160,161
788 288 m 1,166,167
 812 307 812 307 812 368 c 2,168,-1
 812 400 l 1,169,170
 803 400 803 400 788 288 c 1,166,167
644 92 m 1,171,-1
 676 84 l 1,172,173
 754 84 754 84 800 228 c 1,174,-1
 800 236 l 1,175,-1
 644 92 l 1,171,-1
360 220 m 0,176,177
 360 203 360 203 472 164 c 1,178,179
 440 232 440 232 392 232 c 2,180,-1
 384 232 l 2,181,182
 360 230 360 230 360 220 c 0,176,177
248 192 m 1,183,184
 318 122 318 122 364 116 c 1,185,-1
 368 116 l 1,186,-1
 368 120 l 1,187,188
 262 192 262 192 248 192 c 1,183,184
592 140 m 1,189,-1
 592 132 l 1,190,-1
 596 132 l 1,191,-1
 632 144 l 1,192,-1
 632 148 l 1,193,-1
 620 148 l 1,194,-1
 592 140 l 1,189,-1
380 112 m 1,195,-1
 380 108 l 1,196,-1
 388 108 l 1,197,-1
 388 112 l 1,198,-1
 380 112 l 1,195,-1
296 92 m 1,199,200
 317 68 317 68 336 68 c 1,201,202
 315 90 315 90 296 92 c 1,199,200
516 40 m 1,203,-1
 568 36 l 1,204,-1
 624 44 l 1,205,-1
 624 48 l 1,206,207
 618 64 618 64 596 64 c 0,208,209
 549 64 549 64 516 40 c 1,203,-1
EndSplineSet
EndChar

StartChar: P
Encoding: 80 80 51
Width: 602
GlyphClass: 1
Flags: W
LayerCount: 2
Fore
SplineSet
323 1899 m 2,0,-1
 368 1899 l 2,1,2
 448 1899 448 1899 541 1813 c 0,3,4
 557 1793 557 1793 603 1687 c 1,5,6
 663 1605 663 1605 663 1550 c 2,7,-1
 663 1538 l 1,8,9
 648 1462 648 1462 648 1422 c 0,10,11
 648 1233 648 1233 547 1142 c 1,12,13
 344 930 344 930 299 930 c 1,14,15
 234 898 234 898 234 843 c 1,16,-1
 320 184 l 1,17,-1
 323 110 l 1,18,-1
 323 104 l 2,19,20
 323 47 323 47 299 47 c 2,21,-1
 296 47 l 1,22,-1
 329 -131 l 1,23,-1
 329 -140 l 1,24,-1
 326 -173 l 1,25,-1
 320 -173 l 2,26,27
 304 -173 304 -173 287 -54 c 1,28,29
 281 -54 281 -54 281 -39 c 1,30,-1
 278 -39 l 1,31,-1
 278 -42 l 1,32,-1
 281 -92 l 2,33,34
 281 -100 281 -100 269 -113 c 1,35,-1
 284 -176 l 2,36,37
 284 -191 284 -191 269 -200 c 1,38,-1
 263 -200 l 1,39,40
 243 -161 243 -161 213 56 c 1,41,42
 180 64 180 64 180 92 c 1,43,-1
 79 769 l 1,44,45
 40 771 40 771 40 781 c 0,46,47
 40 794 40 794 73 826 c 1,48,-1
 76 837 l 1,49,-1
 76 843 l 1,50,-1
 70 912 l 1,51,-1
 67 912 l 1,52,53
 29 897 29 897 16 897 c 1,54,55
 4 902 4 902 4 906 c 0,56,57
 4 925 4 925 64 954 c 1,58,-1
 67 957 l 1,59,-1
 67 1324 l 1,60,-1
 64 1443 l 1,61,-1
 16 1452 l 1,62,63
 -11 1424 -11 1424 -43 1347 c 1,64,65
 -74 1312 -74 1312 -100 1312 c 1,66,-1
 -115 1356 l 1,67,-1
 -118 1356 l 1,68,-1
 -127 1350 l 1,69,-1
 -133 1350 l 1,70,71
 -141 1354 -141 1354 -154 1386 c 1,72,73
 -135 1429 -135 1429 -67 1520 c 1,74,-1
 -67 1538 l 2,75,76
 -67 1669 -67 1669 79 1774 c 1,77,-1
 79 1795 l 2,78,79
 79 1801 79 1801 132 1813 c 0,80,81
 140 1813 140 1813 192 1860 c 1,82,83
 270 1899 270 1899 323 1899 c 2,0,-1
234 1854 m 1,84,-1
 234 1851 l 1,85,-1
 263 1854 l 1,86,-1
 275 1854 l 2,87,88
 300 1854 300 1854 418 1818 c 1,89,-1
 448 1818 l 1,90,-1
 475 1824 l 1,91,92
 427 1875 427 1875 323 1875 c 0,93,94
 282 1875 282 1875 234 1854 c 1,84,-1
257 1827 m 1,95,96
 252 1814 252 1814 246 1813 c 1,97,-1
 243 1816 l 1,98,-1
 243 1818 l 1,99,-1
 246 1821 l 1,100,-1
 246 1824 l 1,101,-1
 243 1824 l 1,102,103
 207 1820 207 1820 207 1810 c 1,104,-1
 255 1789 l 1,105,106
 277 1807 277 1807 290 1807 c 1,107,-1
 299 1786 l 1,108,109
 350 1797 350 1797 350 1804 c 1,110,111
 311 1809 311 1809 311 1824 c 1,112,-1
 278 1824 l 1,113,-1
 257 1827 l 1,95,96
469 1795 m 1,114,-1
 469 1792 l 2,115,116
 472 1783 472 1783 487 1783 c 2,117,-1
 493 1783 l 1,118,119
 488 1795 488 1795 472 1795 c 2,120,-1
 469 1795 l 1,114,-1
520 1792 m 1,121,-1
 517 1780 l 1,122,123
 523 1763 523 1763 538 1756 c 1,124,-1
 541 1756 l 1,125,-1
 541 1762 l 1,126,127
 533 1792 533 1792 520 1792 c 1,121,-1
156 1756 m 2,128,-1
 156 1753 l 1,129,-1
 159 1753 l 1,130,131
 186 1768 186 1768 201 1768 c 2,132,-1
 219 1768 l 1,133,-1
 219 1771 l 2,134,135
 219 1781 219 1781 186 1786 c 1,136,137
 156 1778 156 1778 156 1756 c 2,128,-1
469 1756 m 1,138,-1
 469 1753 l 1,139,-1
 487 1744 l 1,140,-1
 493 1744 l 1,141,-1
 493 1750 l 1,142,-1
 472 1756 l 1,143,-1
 469 1756 l 1,138,-1
-43 1559 m 1,144,145
 91 1727 91 1727 91 1747 c 1,146,-1
 73 1747 l 1,147,148
 -43 1633 -43 1633 -43 1559 c 1,144,145
177 1666 m 1,149,-1
 180 1666 l 1,150,151
 279 1729 279 1729 281 1735 c 2,152,-1
 281 1738 l 1,153,-1
 278 1738 l 1,154,155
 177 1700 177 1700 177 1666 c 1,149,-1
416 1729 m 1,156,-1
 416 1726 l 1,157,-1
 466 1696 l 1,158,-1
 469 1699 l 1,159,160
 458 1729 458 1729 427 1729 c 2,161,-1
 416 1729 l 1,156,-1
299 1690 m 1,162,-1
 299 1684 l 1,163,164
 369 1696 369 1696 410 1696 c 1,165,166
 390 1723 390 1723 347 1723 c 0,167,168
 318 1723 318 1723 299 1690 c 1,162,-1
147 1604 m 1,169,-1
 150 1604 l 1,170,171
 199 1625 199 1625 263 1687 c 1,172,-1
 272 1699 l 1,173,-1
 272 1702 l 1,174,175
 172 1638 172 1638 147 1604 c 1,169,-1
517 1693 m 1,176,-1
 517 1687 l 1,177,178
 530 1672 530 1672 553 1672 c 1,179,180
 539 1693 539 1693 517 1693 c 1,176,-1
192 1577 m 1,181,-1
 192 1574 l 1,182,-1
 195 1574 l 1,183,184
 376 1646 376 1646 460 1646 c 2,185,-1
 475 1646 l 1,186,-1
 484 1643 l 1,187,-1
 484 1646 l 2,188,189
 484 1650 484 1650 448 1663 c 1,190,191
 448 1652 448 1652 436 1652 c 1,192,193
 417 1660 417 1660 368 1663 c 0,194,195
 253 1663 253 1663 192 1577 c 1,181,-1
544 1634 m 1,196,197
 555 1612 555 1612 562 1610 c 2,198,-1
 574 1610 l 1,199,-1
 574 1613 l 1,200,201
 568 1634 568 1634 550 1634 c 2,202,-1
 544 1634 l 1,196,197
153 1517 m 1,203,-1
 216 1097 l 1,204,205
 246 1117 246 1117 338 1198 c 1,206,207
 395 1237 395 1237 395 1285 c 1,208,209
 460 1535 460 1535 475 1616 c 1,210,-1
 457 1616 l 2,211,212
 323 1616 323 1616 153 1517 c 1,203,-1
502 1610 m 1,213,-1
 404 1267 l 1,214,215
 559 1377 559 1377 559 1493 c 0,216,217
 559 1560 559 1560 511 1610 c 1,218,-1
 502 1610 l 1,213,-1
591 1592 m 1,219,-1
 591 1574 l 1,220,221
 595 1544 595 1544 603 1544 c 1,222,-1
 603 1556 l 2,223,224
 603 1592 603 1592 591 1592 c 1,219,-1
117 1496 m 1,225,226
 105 1453 105 1453 105 1386 c 0,227,228
 105 1321 105 1321 141 1040 c 1,229,-1
 144 1040 l 2,230,231
 167 1040 167 1040 189 1079 c 1,232,233
 152 1438 152 1438 117 1496 c 1,225,226
606 1446 m 1,234,235
 615 1449 615 1449 615 1464 c 2,236,-1
 615 1467 l 1,237,238
 608 1467 608 1467 606 1446 c 1,234,235
-70 1371 m 1,239,-1
 -64 1371 l 1,240,241
 -34 1416 -34 1416 -34 1428 c 1,242,243
 -44 1424 -44 1424 -70 1371 c 1,239,-1
618 1350 m 1,244,245
 618 1314 618 1314 565 1204 c 1,246,-1
 565 1201 l 1,247,-1
 568 1201 l 1,248,249
 621 1279 621 1279 621 1338 c 2,250,-1
 621 1350 l 1,251,-1
 618 1350 l 1,244,245
421 1243 m 1,252,253
 509 1302 509 1302 517 1335 c 1,254,-1
 421 1243 l 1,252,253
550 1321 m 1,255,-1
 529 1267 l 1,256,-1
 529 1264 l 1,257,-1
 532 1264 l 1,258,-1
 553 1318 l 1,259,-1
 553 1321 l 1,260,-1
 550 1321 l 1,255,-1
574 1306 m 1,261,-1
 544 1237 l 1,262,263
 577 1273 577 1273 577 1303 c 2,264,-1
 577 1306 l 1,265,-1
 574 1306 l 1,261,-1
293 1088 m 1,266,-1
 296 1088 l 1,267,268
 416 1138 416 1138 439 1165 c 1,269,270
 484 1241 484 1241 484 1258 c 1,271,272
 405 1199 405 1199 359 1139 c 1,273,274
 329 1131 329 1131 293 1088 c 1,266,-1
377 1034 m 1,275,-1
 380 1034 l 1,276,277
 481 1090 481 1090 529 1195 c 1,278,-1
 526 1195 l 1,279,280
 435 1105 435 1105 377 1034 c 1,275,-1
296 1130 m 1,281,-1
 284 1115 l 1,282,-1
 287 1115 l 1,283,-1
 299 1130 l 1,284,-1
 296 1130 l 1,281,-1
225 993 m 2,285,-1
 225 984 l 1,286,-1
 228 981 l 1,287,-1
 228 978 l 1,288,289
 347 1051 347 1051 386 1094 c 2,290,-1
 389 1097 l 1,291,-1
 389 1100 l 1,292,-1
 386 1100 l 1,293,294
 225 1032 225 1032 225 993 c 2,285,-1
162 945 m 1,295,-1
 165 945 l 1,296,-1
 201 960 l 1,297,-1
 201 975 l 1,298,-1
 195 981 l 1,299,-1
 186 981 l 1,300,301
 162 964 162 964 162 945 c 1,295,-1
234 942 m 2,302,-1
 234 939 l 1,303,-1
 237 939 l 1,304,305
 284 955 284 955 284 969 c 1,306,-1
 281 969 l 1,307,308
 235 951 235 951 234 942 c 2,302,-1
93 891 m 1,309,-1
 93 864 l 1,310,-1
 99 858 l 1,311,-1
 99 885 l 1,312,-1
 93 891 l 1,309,-1
171 858 m 2,313,-1
 171 855 l 1,314,-1
 174 855 l 2,315,316
 184 855 184 855 207 888 c 1,317,-1
 204 888 l 1,318,319
 171 882 171 882 171 858 c 2,313,-1
207 846 m 1,320,321
 179 827 179 827 177 817 c 0,322,323
 204 615 204 615 278 232 c 1,324,325
 278 197 278 197 299 131 c 1,326,-1
 302 131 l 1,327,328
 302 182 302 182 210 846 c 1,329,-1
 207 846 l 1,320,321
150 775 m 1,330,-1
 150 751 l 2,331,332
 150 704 150 704 174 602 c 1,333,-1
 177 602 l 1,334,-1
 177 605 l 1,335,-1
 153 775 l 1,336,-1
 150 775 l 1,330,-1
102 763 m 1,337,-1
 102 757 l 1,338,-1
 114 614 l 1,339,-1
 117 614 l 1,340,-1
 117 635 l 2,341,342
 117 703 117 703 105 763 c 1,343,-1
 102 763 l 1,337,-1
171 310 m 1,344,-1
 171 301 l 1,345,-1
 174 268 l 1,346,-1
 177 268 l 1,347,-1
 177 286 l 1,348,-1
 174 310 l 1,349,-1
 171 310 l 1,344,-1
177 262 m 1,350,-1
 177 247 l 1,351,-1
 180 247 l 1,352,-1
 180 262 l 1,353,-1
 177 262 l 1,350,-1
EndSplineSet
EndChar

StartChar: Q
Encoding: 81 81 52
Width: 895
GlyphClass: 1
Flags: W
LayerCount: 2
Fore
SplineSet
447 1778 m 2,0,-1
 475 1778 l 2,1,2
 762 1778 762 1778 819 902 c 1,3,-1
 831 682 l 1,4,-1
 831 658 l 2,5,6
 831 590 831 590 811 478 c 1,7,-1
 811 466 l 2,8,9
 811 438 811 438 927 278 c 1,10,11
 1112 -5 1112 -5 1147 -74 c 0,12,13
 1175 -130 1175 -130 1175 -170 c 2,14,-1
 1175 -222 l 1,15,16
 1227 -295 1227 -295 1227 -334 c 1,17,-1
 1223 -338 l 1,18,19
 1177 -338 1177 -338 1123 -242 c 1,20,21
 1059 -207 1059 -207 1059 -202 c 2,22,-1
 759 322 l 1,23,24
 669 159 669 159 571 78 c 1,25,26
 495 38 495 38 431 38 c 0,27,28
 250 38 250 38 83 238 c 1,29,30
 -81 495 -81 495 -81 842 c 2,31,-1
 -81 926 l 2,32,33
 -81 1220 -81 1220 63 1426 c 1,34,35
 191 1510 191 1510 215 1578 c 1,36,37
 321 1778 321 1778 447 1778 c 2,0,-1
427 1746 m 1,38,39
 258 1637 258 1637 231 1550 c 1,40,-1
 223 1530 l 1,41,-1
 227 1530 l 1,42,43
 328 1554 328 1554 399 1554 c 2,44,-1
 451 1554 l 2,45,46
 613 1554 613 1554 695 1458 c 1,47,48
 635 1722 635 1722 523 1722 c 2,49,-1
 471 1722 l 2,50,51
 453 1722 453 1722 427 1746 c 1,38,39
259 1398 m 1,52,-1
 315 1378 l 1,53,54
 369 1433 369 1433 451 1494 c 1,55,-1
 427 1494 l 2,56,57
 348 1494 348 1494 335 1446 c 1,58,59
 268 1416 268 1416 259 1398 c 1,52,-1
515 1470 m 1,60,-1
 515 1466 l 1,61,62
 613 1406 613 1406 659 1246 c 2,63,-1
 719 1018 l 1,64,-1
 723 1018 l 1,65,-1
 723 1066 l 1,66,67
 714 1418 714 1418 571 1478 c 1,68,-1
 547 1482 l 1,69,-1
 515 1470 l 1,60,-1
187 1450 m 1,70,-1
 215 1478 l 1,71,-1
 211 1478 l 2,72,73
 187 1478 187 1478 187 1450 c 1,70,-1
3 1230 m 2,74,-1
 3 1190 l 1,75,76
 -45 1138 -45 1138 -45 934 c 1,77,-1
 -49 870 l 1,78,79
 -49 555 -49 555 63 354 c 1,80,-1
 67 354 l 1,81,-1
 67 358 l 1,82,83
 -25 598 -25 598 -25 778 c 0,84,85
 -25 981 -25 981 135 1418 c 1,86,-1
 139 1446 l 1,87,88
 131 1446 131 1446 83 1370 c 1,89,90
 56 1370 56 1370 47 1318 c 1,91,92
 3 1252 3 1252 3 1230 c 2,74,-1
347 1358 m 1,93,94
 491 1283 491 1283 647 954 c 1,95,96
 647 942 647 942 691 858 c 1,97,-1
 695 858 l 1,98,99
 675 1084 675 1084 631 1250 c 1,100,101
 569 1407 569 1407 511 1430 c 1,102,103
 511 1437 511 1437 491 1438 c 2,104,-1
 483 1438 l 2,105,106
 407 1438 407 1438 347 1366 c 1,107,-1
 347 1358 l 1,93,94
235 1374 m 1,108,109
 95 1155 95 1155 95 1026 c 1,110,-1
 91 990 l 1,111,-1
 91 982 l 1,112,-1
 95 982 l 1,113,114
 128 1105 128 1105 267 1326 c 1,115,-1
 295 1362 l 1,116,-1
 235 1374 l 1,108,109
323 1338 m 1,117,118
 107 1055 107 1055 107 814 c 2,119,-1
 107 774 l 2,120,121
 107 592 107 592 243 342 c 0,122,123
 291 262 291 262 359 262 c 2,124,-1
 383 262 l 2,125,126
 508 262 508 262 635 518 c 1,127,-1
 639 522 l 1,128,-1
 643 522 l 1,129,-1
 463 850 l 1,130,-1
 455 874 l 1,131,-1
 459 878 l 1,132,-1
 491 870 l 1,133,-1
 475 910 l 1,134,-1
 475 922 l 1,135,-1
 483 930 l 1,136,137
 514 930 514 930 571 846 c 1,138,139
 595 846 595 846 615 766 c 1,140,141
 648 699 648 699 691 666 c 1,142,-1
 703 730 l 1,143,144
 681 863 681 863 463 1210 c 1,145,146
 356 1338 356 1338 323 1338 c 1,117,118
51 886 m 1,147,-1
 35 718 l 1,148,-1
 51 634 l 1,149,-1
 55 634 l 1,150,-1
 55 662 l 1,151,-1
 63 822 l 1,152,-1
 63 830 l 1,153,-1
 55 886 l 1,154,-1
 51 886 l 1,147,-1
791 714 m 1,155,-1
 771 570 l 1,156,-1
 771 558 l 1,157,-1
 779 522 l 1,158,-1
 783 522 l 1,159,160
 799 599 799 599 799 646 c 2,161,-1
 799 674 l 1,162,-1
 795 714 l 1,163,-1
 791 714 l 1,155,-1
99 586 m 1,164,-1
 99 574 l 1,165,166
 103 513 103 513 159 414 c 1,167,-1
 163 414 l 1,168,-1
 163 422 l 1,169,170
 103 562 103 562 103 586 c 1,171,-1
 99 586 l 1,164,-1
415 222 m 1,172,-1
 415 218 l 1,173,-1
 479 206 l 1,174,175
 587 206 587 206 683 430 c 1,176,-1
 691 438 l 1,177,178
 673 478 673 478 667 478 c 2,179,-1
 663 478 l 1,180,181
 527 257 527 257 415 222 c 1,172,-1
95 438 m 1,182,-1
 95 434 l 1,183,184
 172 271 172 271 299 214 c 1,185,-1
 319 206 l 1,186,-1
 323 206 l 1,187,-1
 323 210 l 1,188,189
 192 267 192 267 99 438 c 1,190,-1
 95 438 l 1,182,-1
363 90 m 1,191,-1
 363 86 l 1,192,-1
 423 82 l 1,193,194
 623 82 623 82 727 374 c 1,195,-1
 723 374 l 1,196,197
 670 275 670 275 615 202 c 1,198,199
 513 90 513 90 363 90 c 1,191,-1
79 322 m 1,200,-1
 79 318 l 1,201,-1
 99 290 l 1,202,-1
 99 294 l 1,203,-1
 87 322 l 1,204,-1
 79 322 l 1,200,-1
159 270 m 1,205,-1
 159 266 l 1,206,207
 243 134 243 134 375 134 c 2,208,-1
 403 134 l 1,209,-1
 403 138 l 1,210,211
 299 138 299 138 159 270 c 1,205,-1
927 202 m 1,212,-1
 927 198 l 1,213,214
 1065 -51 1065 -51 1111 -110 c 1,215,-1
 1115 -110 l 1,216,-1
 1115 -106 l 1,217,218
 1051 22 1051 22 931 202 c 1,219,-1
 927 202 l 1,212,-1
EndSplineSet
EndChar

StartChar: R
Encoding: 82 82 53
Width: 814
GlyphClass: 1
Flags: W
LayerCount: 2
Fore
SplineSet
-8 1877 m 0,0,1
 5 1876 5 1876 4 1825 c 1,2,3
 90 1870 90 1870 176 1863 c 0,4,5
 292 1855 292 1855 365 1760 c 1,6,7
 471 1709 471 1709 497 1641 c 1,8,9
 514 1581 514 1581 557 1381 c 1,10,11
 580 1308 580 1308 575 1247 c 2,12,-1
 574 1236 l 2,13,14
 568 1151 568 1151 482 1051 c 1,15,-1
 482 1046 l 1,16,17
 562 929 562 929 625 889 c 1,18,19
 641 888 641 888 706 805 c 1,20,21
 870 623 870 623 897 532 c 1,22,23
 939 444 939 444 935 389 c 0,24,25
 934 375 934 375 914 329 c 1,26,27
 927 274 927 274 925 258 c 2,28,-1
 925 255 l 1,29,-1
 921 241 l 1,30,-1
 916 242 l 1,31,32
 886 339 886 339 868 360 c 1,33,34
 859 347 859 347 858 333 c 2,35,-1
 857 319 l 2,36,37
 856 305 856 305 871 242 c 1,38,-1
 865 237 l 1,39,40
 852 238 852 238 825 273 c 1,41,42
 780 277 780 277 757 337 c 1,43,44
 728 368 728 368 729 376 c 0,45,46
 731 403 731 403 720 410 c 1,47,-1
 695 409 l 1,48,-1
 692 412 l 1,49,-1
 692 415 l 1,50,-1
 705 434 l 1,51,52
 665 546 665 546 512 805 c 1,53,54
 384 957 384 957 372 958 c 1,55,56
 229 896 229 896 218 896 c 1,57,-1
 218 891 l 1,58,59
 228 839 228 839 242 838 c 0,60,61
 325 815 325 815 323 785 c 1,62,-1
 320 782 l 1,63,-1
 317 782 l 2,64,65
 308 783 308 783 255 818 c 1,66,-1
 246 818 l 1,67,68
 367 343 367 343 358 223 c 1,69,70
 343 216 343 216 343 207 c 0,71,72
 341 183 341 183 410 11 c 1,73,-1
 412 -3 l 1,74,-1
 409 -2 l 1,75,76
 355 55 355 55 332 143 c 0,77,78
 273 370 273 370 219 483 c 1,79,-1
 216 483 l 1,80,-1
 216 475 l 1,81,-1
 217 449 l 1,82,-1
 211 450 l 1,83,84
 190 512 190 512 167 650 c 1,85,86
 143 713 143 713 113 839 c 1,87,-1
 110 839 l 1,88,-1
 110 834 l 1,89,90
 105 766 105 766 181 424 c 1,91,92
 250 202 250 202 247 161 c 1,93,94
 279 72 279 72 277 35 c 2,95,-1
 275 15 l 2,96,97
 275 11 275 11 244 3 c 1,98,-1
 229 -9 l 1,99,-1
 223 -9 l 1,100,101
 199 42 199 42 158 181 c 1,102,-1
 161 184 l 1,103,-1
 164 183 l 2,104,105
 175 183 175 183 181 146 c 1,106,-1
 184 146 l 1,107,-1
 184 148 l 1,108,109
 168 240 168 240 101 525 c 1,110,111
 49 810 49 810 31 949 c 1,112,113
 3 993 3 993 5 1019 c 2,114,-1
 15 1080 l 2,115,116
 17 1103 17 1103 -9 1124 c 1,117,118
 0 1148 0 1148 6 1148 c 1,119,120
 -58 1502 -58 1502 -56 1523 c 1,121,-1
 -53 1526 l 1,122,123
 -16 1523 -16 1523 -11 1405 c 1,124,-1
 -9 1405 l 1,125,-1
 -8 1419 l 2,126,127
 -4 1473 -4 1473 -16 1608 c 1,128,129
 -99 1557 -99 1557 -105 1468 c 1,130,-1
 -101 1409 l 1,131,-1
 -104 1406 l 1,132,-1
 -113 1407 l 1,133,134
 -123 1413 -123 1413 -123 1424 c 1,135,-1
 -125 1424 l 1,136,-1
 -126 1416 l 2,137,138
 -130 1365 -130 1365 -93 1208 c 1,139,-1
 -93 1206 l 1,140,-1
 -96 1206 l 1,141,142
 -173 1355 -173 1355 -162 1497 c 2,143,-1
 -160 1522 l 2,144,145
 -152 1632 -152 1632 -23 1791 c 1,146,-1
 -19 1847 l 2,147,148
 -17 1877 -17 1877 -8 1877 c 0,0,1
138 1810 m 1,149,-1
 138 1807 l 1,150,-1
 222 1801 l 1,151,152
 223 1811 223 1811 192 1817 c 2,153,-1
 187 1818 l 2,154,155
 167 1819 167 1819 138 1810 c 1,149,-1
48 1735 m 1,156,-1
 141 1734 l 1,157,-1
 186 1776 l 1,158,-1
 181 1776 l 1,159,160
 52 1785 52 1785 48 1735 c 1,156,-1
175 1734 m 1,161,-1
 180 1734 l 1,162,163
 295 1726 295 1726 391 1657 c 1,164,-1
 392 1660 l 1,165,166
 318 1755 318 1755 233 1761 c 0,167,168
 185 1764 185 1764 175 1734 c 1,161,-1
-37 1713 m 1,169,170
 -114 1620 -114 1620 -120 1542 c 1,171,-1
 -114 1542 l 1,172,173
 -111 1563 -111 1563 -25 1645 c 1,174,-1
 -35 1665 l 1,175,-1
 -29 1704 l 1,176,-1
 -29 1707 l 1,177,-1
 -34 1713 l 1,178,-1
 -37 1713 l 1,169,170
166 1696 m 1,179,-1
 166 1693 l 1,180,-1
 233 1685 l 1,181,-1
 244 1684 l 1,182,-1
 245 1687 l 1,183,-1
 200 1693 l 1,184,-1
 166 1696 l 1,179,-1
44 1637 m 1,185,186
 50 1410 50 1410 63 1231 c 1,187,-1
 68 1230 l 1,188,-1
 134 1209 l 1,189,190
 158 1207 158 1207 213 1248 c 1,191,-1
 221 1247 l 2,192,193
 239 1246 239 1246 269 1207 c 1,194,-1
 272 1207 l 1,195,196
 340 1241 340 1241 354 1263 c 1,197,-1
 314 1370 l 2,198,199
 305 1396 305 1396 307 1424 c 2,200,-1
 308 1441 l 1,201,202
 314 1468 314 1468 335 1467 c 1,203,204
 348 1461 348 1461 349 1455 c 2,205,-1
 348 1449 l 1,206,-1
 330 1431 l 1,207,-1
 329 1420 l 1,208,209
 333 1387 333 1387 384 1281 c 1,210,211
 450 1339 450 1339 457 1433 c 0,212,213
 467 1572 467 1572 338 1624 c 0,214,215
 263 1658 263 1658 195 1663 c 1,216,-1
 192 1663 l 1,217,218
 97 1670 97 1670 44 1637 c 1,185,186
449 1596 m 1,219,220
 448 1581 448 1581 459 1576 c 1,221,-1
 464 1576 l 1,222,223
 454 1589 454 1589 454 1596 c 1,224,-1
 449 1596 l 1,219,220
521 1389 m 1,225,226
 473 1261 473 1261 433 1226 c 1,227,228
 416 1218 416 1218 415 1203 c 2,229,-1
 414 1194 l 1,230,-1
 430 1145 l 1,231,-1
 508 1131 l 1,232,233
 540 1182 540 1182 544 1244 c 2,234,-1
 546 1263 l 2,235,236
 551 1341 551 1341 521 1389 c 1,225,226
168 1206 m 1,237,238
 212 1189 212 1189 228 1188 c 2,239,-1
 236 1187 l 1,240,-1
 237 1193 l 2,241,242
 239 1221 239 1221 208 1223 c 1,243,244
 172 1216 172 1216 168 1206 c 1,237,238
377 1183 m 1,245,-1
 370 1166 l 1,246,-1
 370 1164 l 1,247,248
 377 1163 377 1163 391 1148 c 1,249,-1
 394 1148 l 1,250,251
 396 1178 396 1178 377 1183 c 1,245,-1
127 1153 m 1,252,253
 126 1138 126 1138 140 1130 c 1,254,-1
 145 1129 l 1,255,-1
 186 1143 l 1,256,-1
 186 1146 l 1,257,-1
 127 1153 l 1,252,253
333 1124 m 1,258,259
 352 1100 352 1100 429 1050 c 1,260,-1
 432 1052 l 1,261,262
 407 1119 407 1119 347 1123 c 2,263,-1
 333 1124 l 1,258,259
453 1113 m 1,264,-1
 452 1101 l 2,265,266
 451 1086 451 1086 462 1081 c 2,267,-1
 470 1080 l 2,268,269
 478 1080 478 1080 486 1102 c 1,270,271
 472 1111 472 1111 453 1113 c 1,264,-1
249 1094 m 1,272,273
 322 1041 322 1041 330 1040 c 1,274,-1
 330 1043 l 1,275,276
 295 1107 295 1107 270 1109 c 0,277,278
 258 1110 258 1110 249 1094 c 1,272,273
162 1089 m 1,279,-1
 158 1072 l 1,280,-1
 175 1082 l 1,281,-1
 176 1085 l 1,282,-1
 162 1089 l 1,279,-1
170 1040 m 1,283,284
 168 1019 168 1019 209 925 c 1,285,286
 285 942 285 942 343 986 c 1,287,-1
 343 988 l 1,288,-1
 249 1054 l 1,289,-1
 222 1062 l 1,290,-1
 211 1063 l 2,291,292
 191 1064 191 1064 170 1040 c 1,283,284
120 1021 m 1,293,-1
 119 1005 l 2,294,295
 117 969 117 969 142 924 c 1,296,-1
 175 916 l 1,297,-1
 175 919 l 1,298,299
 166 984 166 984 135 1026 c 1,300,-1
 132 1026 l 1,301,-1
 120 1021 l 1,293,-1
422 994 m 1,302,-1
 422 991 l 1,303,304
 432 958 432 958 455 944 c 1,305,-1
 458 944 l 1,306,307
 447 992 447 992 422 994 c 1,302,-1
529 916 m 1,308,309
 584 822 584 822 621 786 c 1,310,-1
 621 788 l 2,311,312
 624 836 624 836 532 916 c 1,313,-1
 529 916 l 1,308,309
151 893 m 1,314,315
 168 809 168 809 185 786 c 1,316,-1
 200 839 l 1,317,-1
 201 853 l 1,318,-1
 192 890 l 1,319,-1
 151 893 l 1,314,315
108 848 m 1,320,-1
 108 842 l 1,321,-1
 110 842 l 1,322,-1
 111 848 l 1,323,-1
 108 848 l 1,320,-1
642 770 m 1,324,325
 673 681 673 681 786 473 c 1,326,-1
 794 464 l 1,327,-1
 794 467 l 2,328,329
 795 538 795 538 676 740 c 1,330,-1
 648 770 l 1,331,-1
 642 770 l 1,324,325
141 804 m 1,332,333
 145 767 145 767 153 766 c 2,334,-1
 155 766 l 1,335,336
 148 801 148 801 141 804 c 1,332,333
214 793 m 1,337,-1
 204 740 l 1,338,339
 202 704 202 704 253 523 c 1,340,341
 287 380 287 380 332 258 c 1,342,-1
 335 258 l 1,343,-1
 336 264 l 1,344,345
 339 317 339 317 258 666 c 1,346,347
 222 788 222 788 216 792 c 2,348,-1
 214 793 l 1,337,-1
157 755 m 1,349,-1
 157 746 l 1,350,-1
 159 732 l 1,351,-1
 164 732 l 1,352,353
 166 752 166 752 157 755 c 1,349,-1
762 685 m 1,354,-1
 762 683 l 1,355,356
 795 578 795 578 902 366 c 1,357,-1
 902 363 l 1,358,-1
 905 363 l 1,359,-1
 907 391 l 2,360,361
 915 499 915 499 776 676 c 1,362,-1
 762 685 l 1,354,-1
203 217 m 1,363,-1
 202 212 l 1,364,365
 224 117 224 117 245 62 c 1,366,-1
 248 62 l 1,367,-1
 248 65 l 1,368,369
 243 214 243 214 203 217 c 1,363,-1
EndSplineSet
EndChar

StartChar: S
Encoding: 83 83 54
Width: 741
GlyphClass: 1
Flags: W
LayerCount: 2
Fore
SplineSet
264 1638 m 2,0,-1
 297 1636 l 2,1,2
 366 1631 366 1631 426 1576 c 0,3,4
 442 1557 442 1557 570 1465 c 1,5,6
 743 1299 743 1299 744 1255 c 1,7,-1
 751 1227 l 1,8,-1
 748 1225 l 1,9,-1
 745 1225 l 2,10,11
 707 1227 707 1227 628 1286 c 1,12,-1
 619 1287 l 1,13,-1
 619 1284 l 1,14,-1
 625 1151 l 1,15,-1
 625 1148 l 1,16,-1
 619 1103 l 1,17,-1
 613 1103 l 1,18,19
 602 1108 602 1108 603 1131 c 2,20,-1
 603 1134 l 1,21,-1
 608 1158 l 1,22,23
 600 1318 600 1318 576 1320 c 1,24,25
 547 1353 547 1353 395 1479 c 1,26,-1
 339 1491 l 1,27,28
 255 1497 255 1497 199 1425 c 1,29,30
 181 1379 181 1379 179 1338 c 0,31,32
 170 1197 170 1197 318 953 c 1,33,34
 339 927 339 927 455 833 c 1,35,36
 622 653 622 653 607 413 c 1,37,38
 631 270 631 270 660 198 c 1,39,-1
 661 177 l 1,40,41
 659 132 659 132 594 109 c 1,42,43
 537 -26 537 -26 411 -18 c 0,44,45
 179 -3 179 -3 14 338 c 1,46,-1
 -99 496 l 1,47,48
 -141 564 -141 564 -137 625 c 2,49,-1
 -136 640 l 1,50,-1
 -129 646 l 1,51,-1
 -120 645 l 1,52,-1
 -94 628 l 1,53,-1
 -94 631 l 1,54,-1
 -94 674 l 1,55,-1
 -93 692 l 2,56,57
 -92 714 -92 714 -83 715 c 0,58,59
 -46 713 -46 713 14 583 c 1,60,61
 29 565 29 565 49 517 c 1,62,-1
 83 521 l 1,63,64
 128 518 128 518 263 359 c 1,65,66
 269 359 269 359 300 323 c 0,67,68
 373 250 373 250 429 216 c 1,69,70
 453 214 453 214 455 247 c 2,71,-1
 455 253 l 1,72,73
 465 418 465 418 330 617 c 1,74,75
 214 832 214 832 204 966 c 1,76,77
 195 1016 195 1016 129 1067 c 0,78,79
 103 1089 103 1089 32 1311 c 1,80,-1
 32 1357 l 1,81,-1
 33 1372 l 2,82,83
 41 1509 41 1509 162 1608 c 1,84,85
 220 1641 220 1641 264 1638 c 2,0,-1
118 1520 m 1,86,-1
 117 1517 l 1,87,88
 175 1551 175 1551 207 1554 c 1,89,90
 247 1597 247 1597 330 1591 c 1,91,-1
 345 1594 l 1,92,-1
 345 1597 l 1,93,94
 308 1608 308 1608 280 1610 c 0,95,96
 172 1616 172 1616 122 1538 c 1,97,-1
 118 1520 l 1,86,-1
310 1563 m 1,98,-1
 310 1557 l 1,99,-1
 361 1556 l 1,100,-1
 361 1559 l 1,101,-1
 319 1565 l 1,102,-1
 310 1563 l 1,98,-1
70 1384 m 2,103,-1
 68 1348 l 1,104,-1
 71 1348 l 1,105,-1
 82 1381 l 1,106,-1
 84 1411 l 1,107,108
 160 1482 160 1482 162 1502 c 2,109,-1
 162 1514 l 1,110,111
 75 1475 75 1475 70 1384 c 2,103,-1
435 1491 m 1,112,113
 529 1404 529 1404 551 1403 c 1,114,115
 519 1458 519 1458 435 1491 c 1,112,113
205 1473 m 1,116,117
 235 1488 235 1488 240 1501 c 1,118,-1
 237 1501 l 2,119,120
 207 1503 207 1503 205 1473 c 1,116,117
120 1408 m 1,121,-1
 112 1391 l 1,122,-1
 117 1360 l 1,123,-1
 126 1360 l 1,124,-1
 130 1375 l 1,125,-1
 130 1378 l 2,126,127
 128 1408 128 1408 120 1408 c 1,121,-1
611 1360 m 1,128,129
 636 1307 636 1307 662 1305 c 1,130,-1
 662 1308 l 1,131,132
 640 1358 640 1358 611 1360 c 1,128,129
92 1347 m 1,133,-1
 86 1311 l 1,134,135
 82 1239 82 1239 163 1131 c 1,136,-1
 163 1128 l 1,137,-1
 166 1128 l 1,138,139
 154 1233 154 1233 128 1299 c 1,140,141
 102 1343 102 1343 95 1347 c 1,142,-1
 92 1347 l 1,133,-1
206 1092 m 1,143,-1
 205 1089 l 1,144,145
 218 1013 218 1013 252 1011 c 1,146,147
 219 1083 219 1083 206 1092 c 1,143,-1
227 949 m 1,148,-1
 227 946 l 1,149,150
 286 703 286 703 412 537 c 1,151,-1
 413 540 l 1,152,153
 337 772 337 772 230 949 c 1,154,-1
 227 949 l 1,148,-1
375 856 m 1,155,156
 511 637 511 637 573 497 c 1,157,-1
 576 496 l 1,158,-1
 576 502 l 1,159,160
 581 587 581 587 503 727 c 1,161,162
 422 831 422 831 378 856 c 1,163,-1
 375 856 l 1,155,156
336 807 m 1,164,-1
 335 804 l 1,165,166
 406 676 406 676 443 502 c 0,167,168
 459 429 459 429 496 384 c 1,169,-1
 497 387 l 1,170,171
 501 464 501 464 423 666 c 1,172,173
 366 776 366 776 336 807 c 1,164,-1
-68 666 m 1,174,-1
 -69 648 l 2,175,176
 -71 609 -71 609 -25 479 c 1,177,-1
 17 489 l 1,178,-1
 29 488 l 1,179,-1
 32 485 l 1,180,-1
 35 485 l 1,181,-1
 35 488 l 1,182,183
 -9 592 -9 592 -68 666 c 1,174,-1
483 608 m 1,184,-1
 483 605 l 1,185,186
 551 433 551 433 568 367 c 1,187,-1
 571 367 l 1,188,-1
 571 373 l 1,189,190
 576 446 576 446 486 607 c 1,191,-1
 483 608 l 1,184,-1
77 485 m 1,192,-1
 77 479 l 2,193,194
 75 450 75 450 165 386 c 1,195,196
 325 207 325 207 356 205 c 2,197,-1
 362 205 l 2,198,199
 377 204 377 204 380 213 c 1,200,201
 354 218 354 218 164 431 c 1,202,203
 97 484 97 484 80 485 c 2,204,-1
 77 485 l 1,192,-1
0 448 m 2,205,-1
 0 445 l 2,206,207
 -3 392 -3 392 75 346 c 1,208,-1
 75 349 l 1,209,-1
 42 451 l 1,210,-1
 21 455 l 1,211,-1
 18 456 l 1,212,213
 0 455 0 455 0 448 c 2,205,-1
524 391 m 1,214,-1
 524 385 l 2,215,216
 525 286 525 286 553 272 c 1,217,-1
 553 275 l 1,218,-1
 527 391 l 1,219,-1
 524 391 l 1,214,-1
136 364 m 1,220,221
 206 230 206 230 272 226 c 1,222,223
 180 340 180 340 139 364 c 1,224,-1
 136 364 l 1,220,221
481 339 m 1,225,-1
 479 291 l 1,226,-1
 482 249 l 1,227,228
 492 248 492 248 499 281 c 1,229,-1
 500 296 l 2,230,231
 502 323 502 323 481 339 c 1,225,-1
595 329 m 1,232,233
 584 293 584 293 582 261 c 0,234,235
 581 186 581 186 598 172 c 1,236,-1
 601 172 l 1,237,-1
 607 217 l 1,238,-1
 607 229 l 2,239,240
 610 271 610 271 598 329 c 1,241,-1
 595 329 l 1,232,233
106 357 m 1,242,-1
 105 354 l 1,243,244
 120 304 120 304 129 304 c 2,245,-1
 141 303 l 1,246,247
 120 330 120 330 112 356 c 1,248,-1
 106 357 l 1,242,-1
519 259 m 1,249,250
 518 252 518 252 480 213 c 1,251,-1
 469 186 l 1,252,-1
 472 186 l 1,253,254
 498 169 498 169 513 168 c 1,255,-1
 541 224 l 1,256,-1
 525 255 l 1,257,-1
 522 258 l 1,258,-1
 519 259 l 1,249,250
101 278 m 1,259,-1
 100 275 l 1,260,-1
 112 263 l 1,261,-1
 115 263 l 1,262,-1
 101 278 l 1,259,-1
162 242 m 1,263,-1
 162 239 l 1,264,-1
 233 128 l 1,265,266
 279 95 279 95 309 94 c 1,267,268
 309 108 309 108 227 180 c 1,269,270
 187 240 187 240 162 242 c 1,263,-1
381 180 m 1,271,-1
 381 174 l 1,272,-1
 427 150 l 1,273,-1
 435 176 l 1,274,-1
 415 184 l 1,275,-1
 408 184 l 1,276,-1
 381 180 l 1,271,-1
264 187 m 1,277,-1
 264 184 l 1,278,279
 339 112 339 112 361 102 c 1,280,281
 392 117 392 117 399 127 c 1,282,283
 326 183 326 183 297 185 c 2,284,-1
 264 187 l 1,277,-1
458 157 m 1,285,-1
 448 142 l 1,286,-1
 478 137 l 1,287,-1
 481 140 l 1,288,-1
 481 143 l 1,289,-1
 467 156 l 1,290,-1
 458 157 l 1,285,-1
455 51 m 1,291,-1
 457 48 l 1,292,-1
 481 47 l 2,293,294
 535 43 535 43 549 118 c 1,295,296
 512 116 512 116 455 51 c 1,291,-1
387 83 m 1,297,-1
 387 80 l 2,298,299
 386 72 386 72 410 66 c 1,300,-1
 419 66 l 2,301,302
 448 64 448 64 470 108 c 1,303,-1
 467 111 l 1,304,-1
 452 112 l 2,305,306
 406 115 406 115 387 83 c 1,297,-1
325 59 m 1,307,-1
 364 54 l 1,308,-1
 364 57 l 2,309,310
 362 66 362 66 347 67 c 2,311,-1
 344 67 l 2,312,313
 326 67 326 67 325 59 c 1,307,-1
393 25 m 1,314,-1
 392 22 l 1,315,-1
 395 22 l 1,316,-1
 405 24 l 1,317,-1
 422 20 l 1,318,-1
 423 26 l 1,319,-1
 414 30 l 1,320,-1
 393 25 l 1,314,-1
EndSplineSet
EndChar

